<svg version="1.1" preserveAspectRatio="none" xmlns="http://www.w3.org/2000/svg" width="500" height="500" viewBox="0 0 500 500"><rect width="100%" height="100%" fill="#FFFFFF" fill-opacity="1"/><svg viewBox="53.0471 127.6492 468.7431 140" width="333" height="99.45746401387028" x="83.5px" y="200.2713px" xmlns="http://www.w3.org/2000/svg" xmlns:xlink="http://www.w3.org/1999/xlink" preserveAspectRatio="none"><defs></defs><style>.companyName {fill:#182145;fill-opacity:1;}.icon1 {fill:#182145;fill-opacity:1;}.icon2 {fill:#E35B34;fill-opacity:1;}.icon3 {fill:#E3D454;fill-opacity:1;}.icon3-str {stroke:#E3D454;stroke-opacity:1;}.text {fill:#182145;fill-opacity:1;}</style><g opacity="1" transform="rotate(0 53.0471 127.6492)">
<svg width="81.2356" height="140" x="53.0471" y="127.6492" version="1.1" preserveAspectRatio="none" viewBox="76.5 59.5 47 80.99899291992188">
  <g transform="matrix(1 0 0 1 0 0)"><g><path d="M100 59.5c-12.959 0-23.5 10.628-23.5 23.694v33.611c0 13.066 10.541 23.694 23.5 23.694s23.5-10.628 23.5-23.694V83.194c0-13.066-10.541-23.694-23.5-23.694zm19.71 23.694v12.678h-17.815V89.4c2.662-.824 4.614-3.295 4.614-6.246V76.24c0-2.978-1.988-5.471-4.688-6.272v-6.555c10.017.932 17.889 9.442 17.889 19.781zM100 73.497c1.5 0 2.719 1.231 2.719 2.744v6.914c0 1.513-1.219 2.742-2.719 2.742s-2.719-1.229-2.719-2.742v-6.914c0-1.513 1.219-2.744 2.719-2.744zm-1.969-10.075v6.594c-2.624.847-4.54 3.302-4.54 6.225v6.914c0 2.951 1.952 5.422 4.614 6.246v6.472H80.29V83.194c0-10.288 7.793-18.773 17.741-19.772zM100 136.679c-10.869 0-19.71-8.914-19.71-19.873V99.694h39.42v17.112c0 10.959-8.841 19.873-19.71 19.873z" data-color="1" class="icon1"></path></g></g>
</svg>
</g><g opacity="1" transform="rotate(0 164.2827 127.6492)">
<svg width="357.5075" height="100" x="164.2827" y="127.6492" version="1.1" preserveAspectRatio="none" viewBox="3.32 -36 271.68 76">
  <g transform="matrix(1 0 0 1 0 0)" class="companyName"><path id="id-D6z1nYkh14" d="M34.88 0L28.80 0L28.76-16.80L20.52-2.96L17.60-2.96L9.40-16.44L9.40 0L3.32 0L3.32-28L8.68-28L19.16-10.60L29.48-28L34.80-28L34.88 0Z M53.96 0.48Q47.96 0.48 44.62-2.84Q41.28-6.16 41.28-12.32L41.28-12.32L41.28-28L47.76-28L47.76-12.56Q47.76-5.04 54-5.04L54-5.04Q57.04-5.04 58.64-6.86Q60.24-8.68 60.24-12.56L60.24-12.56L60.24-28L66.64-28L66.64-12.32Q66.64-6.16 63.30-2.84Q59.96 0.48 53.96 0.48L53.96 0.48ZM49.96-30.48Q48.76-30.48 47.96-31.26Q47.16-32.04 47.16-33.24L47.16-33.24Q47.16-34.44 47.96-35.22Q48.76-36 49.96-36L49.96-36Q51.16-36 51.94-35.22Q52.72-34.44 52.72-33.24L52.72-33.24Q52.72-32.04 51.94-31.26Q51.16-30.48 49.96-30.48L49.96-30.48ZM58.04-30.48Q56.84-30.48 56.06-31.26Q55.28-32.04 55.28-33.24L55.28-33.24Q55.28-34.44 56.06-35.22Q56.84-36 58.04-36L58.04-36Q59.24-36 60.04-35.22Q60.84-34.44 60.84-33.24L60.84-33.24Q60.84-32.04 60.04-31.26Q59.24-30.48 58.04-30.48L58.04-30.48Z M92.24-28L98.72-28L98.72 0L92.24 0L92.24-11.48L79.52-11.48L79.52 0L73.04 0L73.04-28L79.52-28L79.52-16.96L92.24-16.96L92.24-28Z M111.80-5.20L127.04-5.20L127.04 0L105.36 0L105.36-28L126.52-28L126.52-22.80L111.80-22.80L111.80-16.72L124.80-16.72L124.80-11.68L111.80-11.68L111.80-5.20Z M151.48-28L157.88-28L157.88 0L152.56 0L138.60-17L138.60 0L132.20 0L132.20-28L137.56-28L151.48-11L151.48-28Z M164.52 0L164.52-28L177.24-28Q181.80-28 185.30-26.26Q188.80-24.52 190.74-21.36Q192.68-18.20 192.68-14L192.68-14Q192.68-9.80 190.74-6.64Q188.80-3.48 185.30-1.74Q181.80 0 177.24 0L177.24 0L164.52 0ZM171-5.32L176.92-5.32Q181.12-5.32 183.62-7.66Q186.12-10 186.12-14L186.12-14Q186.12-18 183.62-20.34Q181.12-22.68 176.92-22.68L176.92-22.68L171-22.68L171-5.32Z M197.56 0L197.56-28L204.04-28L204.04 0L197.56 0Z M219.88 0.48Q216.56 0.48 213.46-0.42Q210.36-1.32 208.48-2.76L208.48-2.76L210.68-7.64Q212.48-6.32 214.96-5.52Q217.44-4.72 219.92-4.72L219.92-4.72Q222.68-4.72 224-5.54Q225.32-6.36 225.32-7.72L225.32-7.72Q225.32-8.72 224.54-9.38Q223.76-10.04 222.54-10.44Q221.32-10.84 219.24-11.32L219.24-11.32Q216.04-12.08 214-12.84Q211.96-13.60 210.50-15.28Q209.04-16.96 209.04-19.76L209.04-19.76Q209.04-22.20 210.36-24.18Q211.68-26.16 214.34-27.32Q217-28.48 220.84-28.48L220.84-28.48Q223.52-28.48 226.08-27.84Q228.64-27.20 230.56-26L230.56-26L228.56-21.08Q224.68-23.28 220.80-23.28L220.80-23.28Q218.08-23.28 216.78-22.40Q215.48-21.52 215.48-20.08L215.48-20.08Q215.48-18.64 216.98-17.94Q218.48-17.24 221.56-16.56L221.56-16.56Q224.76-15.80 226.80-15.04Q228.84-14.28 230.30-12.64Q231.76-11 231.76-8.20L231.76-8.20Q231.76-5.80 230.42-3.82Q229.08-1.84 226.40-0.68Q223.72 0.48 219.88 0.48L219.88 0.48Z M236.20 0L236.20-28L242.68-28L242.68 0L236.20 0Z M268.60-28L275-28L275 0L269.68 0L255.72-17L255.72 0L249.32 0L249.32-28L254.68-28L268.60-11L268.60-28Z M23.88 25.44Q26.28 26.20 27.64 27.98Q29 29.76 29 32.36L29 32.36Q29 36.04 26.14 38.02Q23.28 40 17.80 40L17.80 40L3.32 40L3.32 12L17 12Q22.12 12 24.86 13.96Q27.60 15.92 27.60 19.28L27.60 19.28Q27.60 21.32 26.62 22.92Q25.64 24.52 23.88 25.44L23.88 25.44ZM16.20 16.88L9.76 16.88L9.76 23.48L16.20 23.48Q18.60 23.48 19.84 22.64Q21.08 21.80 21.08 20.16L21.08 20.16Q21.08 18.52 19.84 17.70Q18.60 16.88 16.20 16.88L16.20 16.88ZM17.32 35.12Q19.88 35.12 21.18 34.28Q22.48 33.44 22.48 31.68L22.48 31.68Q22.48 28.20 17.32 28.20L17.32 28.20L9.76 28.20L9.76 35.12L17.32 35.12Z M33.92 40L33.92 12L40.40 12L40.40 40L33.92 40Z M71.84 40L64.88 40L59.48 32.20L59.16 32.20L53.52 32.20L53.52 40L47.04 40L47.04 12L59.16 12Q62.88 12 65.62 13.24Q68.36 14.48 69.84 16.76Q71.32 19.04 71.32 22.16L71.32 22.16Q71.32 25.28 69.82 27.54Q68.32 29.80 65.56 31L65.56 31L71.84 40ZM64.76 22.16Q64.76 19.80 63.24 18.54Q61.72 17.28 58.80 17.28L58.80 17.28L53.52 17.28L53.52 27.04L58.80 27.04Q61.72 27.04 63.24 25.76Q64.76 24.48 64.76 22.16L64.76 22.16Z M76.44 40L76.44 12L82.92 12L82.92 40L76.44 40Z"/></g>
</svg>
</g><g opacity="1" transform="rotate(0 164.2827 247.6492)">
<svg width="126.1695" height="20" x="164.2827" y="247.6492" version="1.1" preserveAspectRatio="none" viewBox="4.2 -30.28 247.60000000000002 39.24">
  <g transform="matrix(1 0 0 1 0 0)" class="text"><path id="id-D-YM9nyY412" d="M23.04-14.52Q25.48-13.84 26.88-12.06Q28.28-10.28 28.28-7.56L28.28-7.56Q28.28-3.92 25.54-1.96Q22.80 0 17.56 0L17.56 0L4.20 0L4.20-28L16.76-28Q21.56-28 24.18-26.08Q26.80-24.16 26.80-20.76L26.80-20.76Q26.80-18.56 25.78-16.96Q24.76-15.36 23.04-14.52L23.04-14.52ZM16.40-24.76L8.20-24.76L8.20-15.80L16.40-15.80Q19.48-15.80 21.14-16.94Q22.80-18.08 22.80-20.28L22.80-20.28Q22.80-22.48 21.14-23.62Q19.48-24.76 16.40-24.76L16.40-24.76ZM17.40-3.24Q20.80-3.24 22.52-4.36Q24.24-5.48 24.24-7.88L24.24-7.88Q24.24-12.56 17.40-12.56L17.40-12.56L8.20-12.56L8.20-3.24L17.40-3.24Z M35.12 0L35.12-21.20L38.96-21.20L38.96 0L35.12 0ZM37.04-25.28Q35.92-25.28 35.18-26Q34.44-26.72 34.44-27.76L34.44-27.76Q34.44-28.80 35.18-29.54Q35.92-30.28 37.04-30.28L37.04-30.28Q38.16-30.28 38.90-29.58Q39.64-28.88 39.64-27.84L39.64-27.84Q39.64-26.76 38.90-26.02Q38.16-25.28 37.04-25.28L37.04-25.28Z M47.48 0L47.48-29.68L51.32-29.68L51.32 0L47.48 0Z M76.48-21.20L80.12-21.20L80.12-2.88Q80.12 2.68 77.36 5.34Q74.60 8 69.12 8L69.12 8Q66.12 8 63.40 7.18Q60.68 6.36 59 4.84L59 4.84L60.84 1.88Q62.32 3.16 64.50 3.90Q66.68 4.64 69 4.64L69 4.64Q72.72 4.64 74.50 2.88Q76.28 1.12 76.28-2.48L76.28-2.48L76.28-4.16Q74.92-2.52 72.94-1.70Q70.96-0.88 68.64-0.88L68.64-0.88Q65.60-0.88 63.14-2.18Q60.68-3.48 59.28-5.82Q57.88-8.16 57.88-11.16L57.88-11.16Q57.88-14.16 59.28-16.50Q60.68-18.84 63.14-20.12Q65.60-21.40 68.64-21.40L68.64-21.40Q71.04-21.40 73.10-20.52Q75.16-19.64 76.48-17.92L76.48-17.92L76.48-21.20ZM69.08-4.24Q71.16-4.24 72.82-5.12Q74.48-6 75.42-7.58Q76.36-9.16 76.36-11.16L76.36-11.16Q76.36-14.24 74.32-16.14Q72.28-18.04 69.08-18.04L69.08-18.04Q65.84-18.04 63.80-16.14Q61.76-14.24 61.76-11.16L61.76-11.16Q61.76-9.16 62.70-7.58Q63.64-6 65.30-5.12Q66.96-4.24 69.08-4.24L69.08-4.24Z M88.64 0L88.64-21.20L92.48-21.20L92.48 0L88.64 0ZM90.56-25.28Q89.44-25.28 88.70-26Q87.96-26.72 87.96-27.76L87.96-27.76Q87.96-28.80 88.70-29.54Q89.44-30.28 90.56-30.28L90.56-30.28Q91.68-30.28 92.42-29.58Q93.16-28.88 93.16-27.84L93.16-27.84Q93.16-26.76 92.42-26.02Q91.68-25.28 90.56-25.28L90.56-25.28Z M129.60-21.20L133.24-21.20L133.24-2.88Q133.24 2.68 130.48 5.34Q127.72 8 122.24 8L122.24 8Q119.24 8 116.52 7.18Q113.80 6.36 112.12 4.84L112.12 4.84L113.96 1.88Q115.44 3.16 117.62 3.90Q119.80 4.64 122.12 4.64L122.12 4.64Q125.84 4.64 127.62 2.88Q129.40 1.12 129.40-2.48L129.40-2.48L129.40-4.16Q128.04-2.52 126.06-1.70Q124.08-0.88 121.76-0.88L121.76-0.88Q118.72-0.88 116.26-2.18Q113.80-3.48 112.40-5.82Q111.00-8.16 111.00-11.16L111.00-11.16Q111.00-14.16 112.40-16.50Q113.80-18.84 116.26-20.12Q118.72-21.40 121.76-21.40L121.76-21.40Q124.16-21.40 126.22-20.52Q128.28-19.64 129.60-17.92L129.60-17.92L129.60-21.20ZM122.20-4.24Q124.28-4.24 125.94-5.12Q127.60-6 128.54-7.58Q129.48-9.16 129.48-11.16L129.48-11.16Q129.48-14.24 127.44-16.14Q125.40-18.04 122.20-18.04L122.20-18.04Q118.96-18.04 116.92-16.14Q114.88-14.24 114.88-11.16L114.88-11.16Q114.88-9.16 115.82-7.58Q116.76-6 118.42-5.12Q120.08-4.24 122.20-4.24L122.20-4.24Z M157.68-21.20L161.52-21.20L161.52 0L157.88 0L157.88-3.20Q156.72-1.56 154.82-0.66Q152.92 0.24 150.68 0.24L150.68 0.24Q146.44 0.24 144-2.10Q141.56-4.44 141.56-9L141.56-9L141.56-21.20L145.40-21.20L145.40-9.44Q145.40-6.36 146.88-4.78Q148.36-3.20 151.12-3.20L151.12-3.20Q154.16-3.20 155.92-5.04Q157.68-6.88 157.68-10.24L157.68-10.24L157.68-21.20ZM147.84-24.96Q147-24.96 146.40-25.54Q145.80-26.12 145.80-27L145.80-27Q145.80-27.88 146.40-28.48Q147-29.08 147.84-29.08L147.84-29.08Q148.68-29.08 149.28-28.48Q149.88-27.88 149.88-27L149.88-27Q149.88-26.12 149.28-25.54Q148.68-24.96 147.84-24.96L147.84-24.96ZM155.28-24.96Q154.44-24.96 153.84-25.54Q153.24-26.12 153.24-27L153.24-27Q153.24-27.88 153.84-28.48Q154.44-29.08 155.28-29.08L155.28-29.08Q156.12-29.08 156.72-28.48Q157.32-27.88 157.32-27L157.32-27Q157.32-26.12 156.72-25.54Q156.12-24.96 155.28-24.96L155.28-24.96Z M179.28 0.24Q176.04 0.24 173.50-1.16Q170.96-2.56 169.52-5.02Q168.08-7.48 168.08-10.60L168.08-10.60Q168.08-13.72 169.52-16.18Q170.96-18.64 173.50-20.02Q176.04-21.40 179.28-21.40L179.28-21.40Q182.16-21.40 184.42-20.24Q186.68-19.08 187.92-16.88L187.92-16.88L185-15Q184-16.52 182.52-17.28Q181.04-18.04 179.24-18.04L179.24-18.04Q177.16-18.04 175.50-17.12Q173.84-16.20 172.90-14.50Q171.96-12.80 171.96-10.60L171.96-10.60Q171.96-8.36 172.90-6.66Q173.84-4.96 175.50-4.04Q177.16-3.12 179.24-3.12L179.24-3.12Q181.04-3.12 182.52-3.88Q184-4.64 185-6.16L185-6.16L187.92-4.32Q186.68-2.12 184.42-0.94Q182.16 0.24 179.28 0.24L179.28 0.24ZM177.40 8.96Q175.32 8.96 173.84 8.08L173.84 8.08L174.68 6.12Q175.88 6.80 177.40 6.80L177.40 6.80Q179.64 6.80 179.64 5.20L179.64 5.20Q179.64 4.48 179.08 4.06Q178.52 3.64 177.36 3.64L177.36 3.64L176.28 3.64L177.28-0.28L179.48-0.28L178.88 2Q180.56 2.16 181.46 3.06Q182.36 3.96 182.36 5.32L182.36 5.32Q182.36 7 181 7.98Q179.64 8.96 177.40 8.96L177.40 8.96Z M205.08-4L206.28-1.24Q205.44-0.52 204.20-0.14Q202.96 0.24 201.64 0.24L201.64 0.24Q198.44 0.24 196.68-1.48Q194.92-3.20 194.92-6.40L194.92-6.40L194.92-18.04L191.32-18.04L191.32-21.20L194.92-21.20L194.92-25.84L198.76-25.84L198.76-21.20L204.84-21.20L204.84-18.04L198.76-18.04L198.76-6.56Q198.76-4.84 199.62-3.92Q200.48-3 202.08-3L202.08-3Q203.84-3 205.08-4L205.08-4Z M228.04-21.20L231.88-21.20L231.88 0L228.24 0L228.24-3.20Q227.08-1.56 225.18-0.66Q223.28 0.24 221.04 0.24L221.04 0.24Q216.80 0.24 214.36-2.10Q211.92-4.44 211.92-9L211.92-9L211.92-21.20L215.76-21.20L215.76-9.44Q215.76-6.36 217.24-4.78Q218.72-3.20 221.48-3.20L221.48-3.20Q224.52-3.20 226.28-5.04Q228.04-6.88 228.04-10.24L228.04-10.24L228.04-21.20ZM218.20-24.96Q217.36-24.96 216.76-25.54Q216.16-26.12 216.16-27L216.16-27Q216.16-27.88 216.76-28.48Q217.36-29.08 218.20-29.08L218.20-29.08Q219.04-29.08 219.64-28.48Q220.24-27.88 220.24-27L220.24-27Q220.24-26.12 219.64-25.54Q219.04-24.96 218.20-24.96L218.20-24.96ZM225.64-24.96Q224.80-24.96 224.20-25.54Q223.60-26.12 223.60-27L223.60-27Q223.60-27.88 224.20-28.48Q224.80-29.08 225.64-29.08L225.64-29.08Q226.48-29.08 227.08-28.48Q227.68-27.88 227.68-27L227.68-27Q227.68-26.12 227.08-25.54Q226.48-24.96 225.64-24.96L225.64-24.96Z M244.08-17.64Q245.08-19.48 247.04-20.44Q249-21.40 251.80-21.40L251.80-21.40L251.80-17.68Q251.48-17.72 250.92-17.72L250.92-17.72Q247.80-17.72 246.02-15.86Q244.24-14 244.24-10.56L244.24-10.56L244.24 0L240.40 0L240.40-21.20L244.08-21.20L244.08-17.64Z"/></g>
</svg>
</g></svg></svg>