<svg version="1.1" preserveAspectRatio="none" xmlns="http://www.w3.org/2000/svg" width="500" height="500" viewBox="0 0 500 500"><rect width="100%" height="100%" fill="#F1F1F1" fill-opacity="1"/><svg viewBox="79.9263 -8.4039 389.025 367.7659" width="333" height="314.8025054945055" x="83.5px" y="92.5987px" xmlns="http://www.w3.org/2000/svg" xmlns:xlink="http://www.w3.org/1999/xlink" preserveAspectRatio="none"><defs></defs><style>.companyName {fill:#3B3B6B;fill-opacity:1;}.icon1 {fill:#D24848;fill-opacity:1;}.icon2 {fill:#CCAF60;fill-opacity:1;}.icon3 {fill:#797468;fill-opacity:1;}.icon3-str {stroke:#797468;stroke-opacity:1;}.text {fill:#D24848;fill-opacity:1;}</style><g opacity="1" transform="rotate(0 208.9785 342.262)">
<svg width="130.9207" height="17.1" x="208.9785" y="342.262" version="1.1" preserveAspectRatio="none" viewBox="4.2 -30.28 300.4 39.24">
  <g transform="matrix(1 0 0 1 0 0)" class="text"><path id="id-6izo4zJp12" d="M23.04-14.52Q25.48-13.84 26.88-12.06Q28.28-10.28 28.28-7.56L28.28-7.56Q28.28-3.92 25.54-1.96Q22.80 0 17.56 0L17.56 0L4.20 0L4.20-28L16.76-28Q21.56-28 24.18-26.08Q26.80-24.16 26.80-20.76L26.80-20.76Q26.80-18.56 25.78-16.96Q24.76-15.36 23.04-14.52L23.04-14.52ZM16.40-24.76L8.20-24.76L8.20-15.80L16.40-15.80Q19.48-15.80 21.14-16.94Q22.80-18.08 22.80-20.28L22.80-20.28Q22.80-22.48 21.14-23.62Q19.48-24.76 16.40-24.76L16.40-24.76ZM17.40-3.24Q20.80-3.24 22.52-4.36Q24.24-5.48 24.24-7.88L24.24-7.88Q24.24-12.56 17.40-12.56L17.40-12.56L8.20-12.56L8.20-3.24L17.40-3.24Z M39.92 0L39.92-21.20L43.76-21.20L43.76 0L39.92 0ZM41.84-25.28Q40.72-25.28 39.98-26Q39.24-26.72 39.24-27.76L39.24-27.76Q39.24-28.80 39.98-29.54Q40.72-30.28 41.84-30.28L41.84-30.28Q42.96-30.28 43.70-29.58Q44.44-28.88 44.44-27.84L44.44-27.84Q44.44-26.76 43.70-26.02Q42.96-25.28 41.84-25.28L41.84-25.28Z M57.08 0L57.08-29.68L60.92-29.68L60.92 0L57.08 0Z M90.88-21.20L94.52-21.20L94.52-2.88Q94.52 2.68 91.76 5.34Q89 8 83.52 8L83.52 8Q80.52 8 77.80 7.18Q75.08 6.36 73.40 4.84L73.40 4.84L75.24 1.88Q76.72 3.16 78.90 3.90Q81.08 4.64 83.40 4.64L83.40 4.64Q87.12 4.64 88.90 2.88Q90.68 1.12 90.68-2.48L90.68-2.48L90.68-4.16Q89.32-2.52 87.34-1.70Q85.36-0.88 83.04-0.88L83.04-0.88Q80-0.88 77.54-2.18Q75.08-3.48 73.68-5.82Q72.28-8.16 72.28-11.16L72.28-11.16Q72.28-14.16 73.68-16.50Q75.08-18.84 77.54-20.12Q80-21.40 83.04-21.40L83.04-21.40Q85.44-21.40 87.50-20.52Q89.56-19.64 90.88-17.92L90.88-17.92L90.88-21.20ZM83.48-4.24Q85.56-4.24 87.22-5.12Q88.88-6 89.82-7.58Q90.76-9.16 90.76-11.16L90.76-11.16Q90.76-14.24 88.72-16.14Q86.68-18.04 83.48-18.04L83.48-18.04Q80.24-18.04 78.20-16.14Q76.16-14.24 76.16-11.16L76.16-11.16Q76.16-9.16 77.10-7.58Q78.04-6 79.70-5.12Q81.36-4.24 83.48-4.24L83.48-4.24Z M107.84 0L107.84-21.20L111.68-21.20L111.68 0L107.84 0ZM109.76-25.28Q108.64-25.28 107.90-26Q107.16-26.72 107.16-27.76L107.16-27.76Q107.16-28.80 107.90-29.54Q108.64-30.28 109.76-30.28L109.76-30.28Q110.88-30.28 111.62-29.58Q112.36-28.88 112.36-27.84L112.36-27.84Q112.36-26.76 111.62-26.02Q110.88-25.28 109.76-25.28L109.76-25.28Z M158.40-21.20L162.04-21.20L162.04-2.88Q162.04 2.68 159.28 5.34Q156.52 8 151.04 8L151.04 8Q148.04 8 145.32 7.18Q142.60 6.36 140.92 4.84L140.92 4.84L142.76 1.88Q144.24 3.16 146.42 3.90Q148.60 4.64 150.92 4.64L150.92 4.64Q154.64 4.64 156.42 2.88Q158.20 1.12 158.20-2.48L158.20-2.48L158.20-4.16Q156.84-2.52 154.86-1.70Q152.88-0.88 150.56-0.88L150.56-0.88Q147.52-0.88 145.06-2.18Q142.60-3.48 141.20-5.82Q139.80-8.16 139.80-11.16L139.80-11.16Q139.80-14.16 141.20-16.50Q142.60-18.84 145.06-20.12Q147.52-21.40 150.56-21.40L150.56-21.40Q152.96-21.40 155.02-20.52Q157.08-19.64 158.40-17.92L158.40-17.92L158.40-21.20ZM151.00-4.24Q153.08-4.24 154.74-5.12Q156.40-6 157.34-7.58Q158.28-9.16 158.28-11.16L158.28-11.16Q158.28-14.24 156.24-16.14Q154.20-18.04 151.00-18.04L151.00-18.04Q147.76-18.04 145.72-16.14Q143.68-14.24 143.68-11.16L143.68-11.16Q143.68-9.16 144.62-7.58Q145.56-6 147.22-5.12Q148.88-4.24 151.00-4.24L151.00-4.24Z M191.28-21.20L195.12-21.20L195.12 0L191.48 0L191.48-3.20Q190.32-1.56 188.42-0.66Q186.52 0.24 184.28 0.24L184.28 0.24Q180.04 0.24 177.60-2.10Q175.16-4.44 175.16-9L175.16-9L175.16-21.20L179.00-21.20L179.00-9.44Q179.00-6.36 180.48-4.78Q181.96-3.20 184.72-3.20L184.72-3.20Q187.76-3.20 189.52-5.04Q191.28-6.88 191.28-10.24L191.28-10.24L191.28-21.20ZM181.44-24.96Q180.60-24.96 180.00-25.54Q179.40-26.12 179.40-27L179.40-27Q179.40-27.88 180.00-28.48Q180.60-29.08 181.44-29.08L181.44-29.08Q182.28-29.08 182.88-28.48Q183.48-27.88 183.48-27L183.48-27Q183.48-26.12 182.88-25.54Q182.28-24.96 181.44-24.96L181.44-24.96ZM188.88-24.96Q188.04-24.96 187.44-25.54Q186.84-26.12 186.84-27L186.84-27Q186.84-27.88 187.44-28.48Q188.04-29.08 188.88-29.08L188.88-29.08Q189.72-29.08 190.32-28.48Q190.92-27.88 190.92-27L190.92-27Q190.92-26.12 190.32-25.54Q189.72-24.96 188.88-24.96L188.88-24.96Z M217.68 0.24Q214.44 0.24 211.90-1.16Q209.36-2.56 207.92-5.02Q206.48-7.48 206.48-10.60L206.48-10.60Q206.48-13.72 207.92-16.18Q209.36-18.64 211.90-20.02Q214.44-21.40 217.68-21.40L217.68-21.40Q220.56-21.40 222.82-20.24Q225.08-19.08 226.32-16.88L226.32-16.88L223.40-15Q222.40-16.52 220.92-17.28Q219.44-18.04 217.64-18.04L217.64-18.04Q215.56-18.04 213.90-17.12Q212.24-16.20 211.30-14.50Q210.36-12.80 210.36-10.60L210.36-10.60Q210.36-8.36 211.30-6.66Q212.24-4.96 213.90-4.04Q215.56-3.12 217.64-3.12L217.64-3.12Q219.44-3.12 220.92-3.88Q222.40-4.64 223.40-6.16L223.40-6.16L226.32-4.32Q225.08-2.12 222.82-0.94Q220.56 0.24 217.68 0.24L217.68 0.24ZM215.80 8.96Q213.72 8.96 212.24 8.08L212.24 8.08L213.08 6.12Q214.28 6.80 215.80 6.80L215.80 6.80Q218.04 6.80 218.04 5.20L218.04 5.20Q218.04 4.48 217.48 4.06Q216.92 3.64 215.76 3.64L215.76 3.64L214.68 3.64L215.68-0.28L217.88-0.28L217.28 2Q218.96 2.16 219.86 3.06Q220.76 3.96 220.76 5.32L220.76 5.32Q220.76 7 219.40 7.98Q218.04 8.96 215.80 8.96L215.80 8.96Z M248.28-4L249.48-1.24Q248.64-0.52 247.40-0.14Q246.16 0.24 244.84 0.24L244.84 0.24Q241.64 0.24 239.88-1.48Q238.12-3.20 238.12-6.40L238.12-6.40L238.12-18.04L234.52-18.04L234.52-21.20L238.12-21.20L238.12-25.84L241.96-25.84L241.96-21.20L248.04-21.20L248.04-18.04L241.96-18.04L241.96-6.56Q241.96-4.84 242.82-3.92Q243.68-3 245.28-3L245.28-3Q247.04-3 248.28-4L248.28-4Z M276.04-21.20L279.88-21.20L279.88 0L276.24 0L276.24-3.20Q275.08-1.56 273.18-0.66Q271.28 0.24 269.04 0.24L269.04 0.24Q264.80 0.24 262.36-2.10Q259.92-4.44 259.92-9L259.92-9L259.92-21.20L263.76-21.20L263.76-9.44Q263.76-6.36 265.24-4.78Q266.72-3.20 269.48-3.20L269.48-3.20Q272.52-3.20 274.28-5.04Q276.04-6.88 276.04-10.24L276.04-10.24L276.04-21.20ZM266.20-24.96Q265.36-24.96 264.76-25.54Q264.16-26.12 264.16-27L264.16-27Q264.16-27.88 264.76-28.48Q265.36-29.08 266.20-29.08L266.20-29.08Q267.04-29.08 267.64-28.48Q268.24-27.88 268.24-27L268.24-27Q268.24-26.12 267.64-25.54Q267.04-24.96 266.20-24.96L266.20-24.96ZM273.64-24.96Q272.80-24.96 272.20-25.54Q271.60-26.12 271.60-27L271.60-27Q271.60-27.88 272.20-28.48Q272.80-29.08 273.64-29.08L273.64-29.08Q274.48-29.08 275.08-28.48Q275.68-27.88 275.68-27L275.68-27Q275.68-26.12 275.08-25.54Q274.48-24.96 273.64-24.96L273.64-24.96Z M296.88-17.64Q297.88-19.48 299.84-20.44Q301.80-21.40 304.60-21.40L304.60-21.40L304.60-17.68Q304.28-17.72 303.72-17.72L303.72-17.72Q300.60-17.72 298.82-15.86Q297.04-14 297.04-10.56L297.04-10.56L297.04 0L293.20 0L293.20-21.20L296.88-21.20L296.88-17.64Z"/></g>
</svg>
</g><g opacity="1" transform="rotate(0 79.9263 286.262)">
<svg width="389.025" height="38" x="79.9263" y="286.262" version="1.1" preserveAspectRatio="none" viewBox="3.76 -30.88 319 31.16">
  <g transform="matrix(1 0 0 1 0 0)" class="companyName"><path id="id-D6z1nYkh15" d="M34.40 0L29.48 0L29.44-18.56L20.24-3.20L17.92-3.20L8.72-18.32L8.72 0L3.76 0L3.76-28L8.04-28L19.16-9.44L30.08-28L34.36-28L34.40 0Z M57.16-21.36L62.16-21.36L62.16 0L57.40 0L57.40-2.72Q56.20-1.28 54.40-0.50Q52.60 0.28 50.52 0.28L50.52 0.28Q46.24 0.28 43.78-2.10Q41.32-4.48 41.32-9.16L41.32-9.16L41.32-21.36L46.32-21.36L46.32-9.84Q46.32-6.96 47.62-5.54Q48.92-4.12 51.32-4.12L51.32-4.12Q54-4.12 55.58-5.78Q57.16-7.44 57.16-10.56L57.16-10.56L57.16-21.36ZM47.84-24.72Q46.80-24.72 46.12-25.40Q45.44-26.08 45.44-27.12L45.44-27.12Q45.44-28.20 46.12-28.88Q46.80-29.56 47.84-29.56L47.84-29.56Q48.88-29.56 49.56-28.88Q50.24-28.20 50.24-27.12L50.24-27.12Q50.24-26.08 49.56-25.40Q48.88-24.72 47.84-24.72L47.84-24.72ZM55.60-24.72Q54.56-24.72 53.88-25.40Q53.20-26.08 53.20-27.12L53.20-27.12Q53.20-28.20 53.88-28.88Q54.56-29.56 55.60-29.56L55.60-29.56Q56.64-29.56 57.32-28.88Q58-28.20 58-27.12L58-27.12Q58-26.08 57.32-25.40Q56.64-24.72 55.60-24.72L55.60-24.72Z M80.84-21.60Q84.88-21.60 87.32-19.24Q89.76-16.88 89.76-12.24L89.76-12.24L89.76 0L84.76 0L84.76-11.60Q84.76-14.40 83.44-15.82Q82.12-17.24 79.68-17.24L79.68-17.24Q76.92-17.24 75.32-15.58Q73.72-13.92 73.72-10.80L73.72-10.80L73.72 0L68.72 0L68.72-29.68L73.72-29.68L73.72-18.88Q74.96-20.20 76.78-20.90Q78.60-21.60 80.84-21.60L80.84-21.60Z M116.40-10.56Q116.40-10.04 116.32-9.08L116.32-9.08L99.56-9.08Q100-6.72 101.86-5.34Q103.72-3.96 106.48-3.96L106.48-3.96Q110-3.96 112.28-6.28L112.28-6.28L114.96-3.20Q113.52-1.48 111.32-0.60Q109.12 0.28 106.36 0.28L106.36 0.28Q102.84 0.28 100.16-1.12Q97.48-2.52 96.02-5.02Q94.56-7.52 94.56-10.68L94.56-10.68Q94.56-13.80 95.98-16.30Q97.40-18.80 99.92-20.20Q102.44-21.60 105.60-21.60L105.60-21.60Q108.72-21.60 111.18-20.22Q113.64-18.84 115.02-16.34Q116.40-13.84 116.40-10.56L116.40-10.56ZM105.60-17.60Q103.20-17.60 101.54-16.18Q99.88-14.76 99.52-12.40L99.52-12.40L111.64-12.40Q111.32-14.72 109.68-16.16Q108.04-17.60 105.60-17.60L105.60-17.60Z M133.32-21.60Q137.36-21.60 139.80-19.24Q142.24-16.88 142.24-12.24L142.24-12.24L142.24 0L137.24 0L137.24-11.60Q137.24-14.40 135.92-15.82Q134.60-17.24 132.16-17.24L132.16-17.24Q129.40-17.24 127.80-15.58Q126.20-13.92 126.20-10.80L126.20-10.80L126.20 0L121.20 0L121.20-21.36L125.96-21.36L125.96-18.60Q127.20-20.08 129.08-20.84Q130.96-21.60 133.32-21.60L133.32-21.60Z M164.72-29.68L169.72-29.68L169.72 0L164.92 0L164.92-2.76Q163.68-1.24 161.86-0.48Q160.04 0.28 157.84 0.28L157.84 0.28Q154.76 0.28 152.30-1.08Q149.84-2.44 148.44-4.94Q147.04-7.44 147.04-10.68L147.04-10.68Q147.04-13.92 148.44-16.40Q149.84-18.88 152.30-20.24Q154.76-21.60 157.84-21.60L157.84-21.60Q159.96-21.60 161.72-20.88Q163.48-20.16 164.72-18.72L164.72-18.72L164.72-29.68ZM158.44-4Q160.24-4 161.68-4.82Q163.12-5.64 163.96-7.16Q164.80-8.68 164.80-10.68L164.80-10.68Q164.80-12.68 163.96-14.20Q163.12-15.72 161.68-16.54Q160.24-17.36 158.44-17.36L158.44-17.36Q156.64-17.36 155.20-16.54Q153.76-15.72 152.92-14.20Q152.08-12.68 152.08-10.68L152.08-10.68Q152.08-8.68 152.92-7.16Q153.76-5.64 155.20-4.82Q156.64-4 158.44-4L158.44-4Z M176.28 0L176.28-21.36L181.28-21.36L181.28 0L176.28 0ZM178.80-24.88Q177.44-24.88 176.52-25.74Q175.60-26.60 175.60-27.88L175.60-27.88Q175.60-29.16 176.52-30.02Q177.44-30.88 178.80-30.88L178.80-30.88Q180.16-30.88 181.08-30.06Q182.00-29.24 182.00-28L182.00-28Q182.00-26.68 181.10-25.78Q180.20-24.88 178.80-24.88L178.80-24.88Z M194.44 0.28Q191.84 0.28 189.36-0.40Q186.88-1.08 185.40-2.12L185.40-2.12L187.32-5.92Q188.76-4.96 190.78-4.38Q192.80-3.80 194.76-3.80L194.76-3.80Q199.24-3.80 199.24-6.16L199.24-6.16Q199.24-7.28 198.10-7.72Q196.96-8.16 194.44-8.56L194.44-8.56Q191.80-8.96 190.14-9.48Q188.48-10 187.26-11.30Q186.04-12.60 186.04-14.92L186.04-14.92Q186.04-17.96 188.58-19.78Q191.12-21.60 195.44-21.60L195.44-21.60Q197.64-21.60 199.84-21.10Q202.04-20.60 203.44-19.76L203.44-19.76L201.52-15.96Q198.80-17.56 195.40-17.56L195.40-17.56Q193.20-17.56 192.06-16.90Q190.92-16.24 190.92-15.16L190.92-15.16Q190.92-13.96 192.14-13.46Q193.36-12.96 195.92-12.52L195.92-12.52Q198.48-12.12 200.12-11.60Q201.76-11.08 202.94-9.84Q204.12-8.60 204.12-6.32L204.12-6.32Q204.12-3.32 201.52-1.52Q198.92 0.28 194.44 0.28L194.44 0.28Z M208.44 0L208.44-21.36L213.44-21.36L213.44 0L208.44 0ZM210.96-24.88Q209.60-24.88 208.68-25.74Q207.76-26.60 207.76-27.88L207.76-27.88Q207.76-29.16 208.68-30.02Q209.60-30.88 210.96-30.88L210.96-30.88Q212.32-30.88 213.24-30.06Q214.16-29.24 214.16-28L214.16-28Q214.16-26.68 213.26-25.78Q212.36-24.88 210.96-24.88L210.96-24.88Z M232.12-21.60Q236.16-21.60 238.60-19.24Q241.04-16.88 241.04-12.24L241.04-12.24L241.04 0L236.04 0L236.04-11.60Q236.04-14.40 234.72-15.82Q233.40-17.24 230.96-17.24L230.96-17.24Q228.20-17.24 226.60-15.58Q225.00-13.92 225.00-10.80L225.00-10.80L225.00 0L220.00 0L220.00-21.36L224.76-21.36L224.76-18.60Q226.00-20.08 227.88-20.84Q229.76-21.60 232.12-21.60L232.12-21.60Z M278.76-14.56Q281.08-13.80 282.44-12.02Q283.80-10.24 283.80-7.60L283.80-7.60Q283.80-3.96 281.00-1.98Q278.20 0 272.84 0L272.84 0L258.92 0L258.92-28L272.04-28Q277.00-28 279.68-26.06Q282.36-24.12 282.36-20.72L282.36-20.72Q282.36-18.64 281.40-17.04Q280.44-15.44 278.76-14.56L278.76-14.56ZM271.48-23.92L264.12-23.92L264.12-16.20L271.48-16.20Q274.20-16.20 275.66-17.18Q277.12-18.16 277.12-20.04L277.12-20.04Q277.12-21.96 275.66-22.94Q274.20-23.92 271.48-23.92L271.48-23.92ZM272.52-4.08Q278.56-4.08 278.56-8.12L278.56-8.12Q278.56-12.16 272.52-12.16L272.52-12.16L264.12-12.16L264.12-4.08L272.52-4.08Z M288.88 0L288.88-21.36L293.88-21.36L293.88 0L288.88 0ZM291.40-24.88Q290.04-24.88 289.12-25.74Q288.20-26.60 288.20-27.88L288.20-27.88Q288.20-29.16 289.12-30.02Q290.04-30.88 291.40-30.88L291.40-30.88Q292.76-30.88 293.68-30.06Q294.60-29.24 294.60-28L294.60-28Q294.60-26.68 293.70-25.78Q292.80-24.88 291.40-24.88L291.40-24.88Z M305.20-18.24Q307.36-21.60 312.80-21.60L312.80-21.60L312.80-16.84Q312.16-16.96 311.64-16.96L311.64-16.96Q308.72-16.96 307.08-15.26Q305.44-13.56 305.44-10.36L305.44-10.36L305.44 0L300.44 0L300.44-21.36L305.20-21.36L305.20-18.24Z M317.04 0L317.04-21.36L322.04-21.36L322.04 0L317.04 0ZM319.56-24.88Q318.20-24.88 317.28-25.74Q316.36-26.60 316.36-27.88L316.36-27.88Q316.36-29.16 317.28-30.02Q318.20-30.88 319.56-30.88L319.56-30.88Q320.92-30.88 321.84-30.06Q322.76-29.24 322.76-28L322.76-28Q322.76-26.68 321.86-25.78Q320.96-24.88 319.56-24.88L319.56-24.88Z"/></g>
</svg>
</g><g opacity="1" transform="rotate(0 177.1826 -8.4039)">
<svg width="194.5125" height="264.6659" x="177.1826" y="-8.4039" version="1.1" preserveAspectRatio="none" viewBox="7.694642543792725 0 72.58538055419922 98.76416015625">
  <g transform="matrix(1 0 0 1 0 0)" class="icon1"><g><path d="M72.916,82.768L68.5,80.216c-1.127-0.648-2.877-0.659-3.904-0.026l-1.739,1.072l0.228,0.131l1.738-1.072   c0.889-0.548,2.426-0.524,3.426,0.054l4.416,2.549c0.998,0.578,0.903,1.606-0.213,2.295l-10.046,6.195l-0.603-0.348   c-1.125-0.65-3.061-0.549-4.317,0.225l-4.637,2.858c-0.81,0.5-1.135,1.157-0.968,1.736c-0.175,0.554,0.049,1.112,0.713,1.495   l1.658,0.957c1.125,0.649,3.062,0.547,4.318-0.228l4.637-2.856c0.81-0.5,1.133-1.157,0.966-1.736   c0.176-0.553-0.049-1.111-0.712-1.493l-0.829-0.479l10.048-6.196C73.933,84.576,74.039,83.416,72.916,82.768z"></path><path d="M53.386,91.648l11.4-7.029c0.544-0.336,0.771-0.778,0.67-1.17c0.074-0.352-0.086-0.699-0.508-0.941   L31.082,62.955l8.271-5.101c1.116-0.687,2.837-0.778,3.836-0.202l3.587,2.07l0.252-0.155l-3.586-2.071   c-1.125-0.649-3.061-0.545-4.315,0.227l-8.272,5.102l-8.108-4.682c-0.77-0.446-2.097-0.375-2.958,0.156l-11.4,7.029   c-0.545,0.336-0.772,0.777-0.671,1.169c-0.074,0.352,0.087,0.698,0.508,0.941l42.201,24.365   C51.199,92.248,52.525,92.18,53.386,91.648z"></path></g><path d="M56.862,60.696l-0.985-0.562l0.138,2.14c0.101,1.563-0.663,3.324-1.7,3.923l-3.346,1.934  c-0.066,0.037-0.133,0.072-0.199,0.099l-0.118,0.05l-8.419-4.888l0.118-0.05c0.065-0.026,0.133-0.062,0.199-0.098l3.345-1.934  c1.038-0.6,1.801-2.359,1.701-3.924l-0.13-2.035l-0.355-0.202l0.144,2.259c0.091,1.424-0.609,3.075-1.53,3.606l-3.345,1.933  c-0.057,0.032-0.111,0.061-0.16,0.079l-0.117,0.05l-0.208,0.086l-0.003,0.225c-0.004,0.281-0.011,0.598-0.015,0.688l-0.056,0.223  l0.223,0.129l8.427,4.888l0.143,0.082l0.154-0.062l0.27-0.105c0.101-0.039,0.203-0.09,0.315-0.154l3.349-1.933  c1.393-0.806,2.381-3.017,2.254-5.034L56.862,60.696z"></path><g><polygon points="29.39,42.463 76.06,69.326 76.06,30.625 29.39,3.762  "></polygon><path d="M77.151,25.9L32.864,0.427c-0.009-0.006-0.215-0.123-0.515-0.246C32.053,0.059,31.776,0,31.501,0   c-0.532,0-0.985,0.23-1.358,0.456l-0.029,0.017l-0.005,0.005l-1.941,1.137l0,0C27.487,2,27.112,2.785,27.112,3.828v36.339   c0,1.992,1.405,4.421,3.131,5.415l44.622,25.685c0.512,0.296,1.01,0.443,1.48,0.443c0.535,0,1.004-0.195,1.355-0.566l1.627-1.339   c0.32-0.214,0.567-0.524,0.731-0.925c0.101-0.228,0.167-0.491,0.194-0.78c0.006-0.062,0.012-0.132,0.017-0.204l0.001-0.012   l0.001-0.025l0.002-0.035c0.003-0.056,0.007-0.111,0.007-0.17V31.315C80.283,29.323,78.878,26.894,77.151,25.9z M31.501,0.341   c0.062,0,0.125,0.005,0.188,0.012c-0.069-0.008-0.138-0.011-0.206-0.01C31.49,0.343,31.495,0.341,31.501,0.341z M77.466,70.895   L77.466,70.895C77.466,70.896,77.466,70.896,77.466,70.895c-0.278,0.304-0.651,0.466-1.088,0.474c-0.012,0-0.021,0.002-0.032,0.002   c-0.019,0-0.039-0.002-0.06-0.004c-0.381-0.014-0.805-0.138-1.252-0.396L30.414,45.286c-1.628-0.937-2.96-3.241-2.96-5.119V3.828   c0-0.948,0.34-1.613,0.887-1.919l0,0c0.001,0,0.002,0,0.003-0.001l0,0c0.535-0.299,1.266-0.254,2.071,0.209l44.622,25.686   c1.629,0.937,2.961,3.24,2.961,5.118v36.338c0,0.146-0.011,0.283-0.026,0.416c0,0,0,0,0,0.002   c-0.005,0.033-0.011,0.068-0.015,0.104C77.882,70.251,77.712,70.628,77.466,70.895C77.466,70.896,77.466,70.895,77.466,70.895   L77.466,70.895l1.66-1.366L77.466,70.895z"></path></g><path d="M74.466,69.498c-0.03,0.396-0.285,0.385-0.422,0.349c0,0-0.07-0.019-0.145-0.065  c-0.428-0.277-0.479-0.685-0.484-0.814c0-0.016,0.002-0.029,0.002-0.029c0.022-0.421,0.285-0.409,0.422-0.372  c0,0,0.072,0.019,0.146,0.065c0.434,0.283,0.479,0.699,0.482,0.822C74.468,69.451,74.468,69.466,74.466,69.498z"></path><path d="M73.083,68.667c-0.031,0.396-0.287,0.386-0.422,0.35c0,0-0.072-0.02-0.146-0.066  c-0.427-0.277-0.479-0.684-0.483-0.813c0-0.017,0-0.032,0-0.032c0.023-0.418,0.286-0.406,0.424-0.37c0,0,0.07,0.021,0.145,0.067  c0.436,0.281,0.48,0.695,0.484,0.82C73.085,68.623,73.085,68.636,73.083,68.667z"></path><path d="M53.16,91.175l11.399-7.029c0.722-0.443,0.782-1.111,0.137-1.484L22.495,58.296  c-0.645-0.371-1.758-0.312-2.48,0.134l-11.4,7.028c-0.72,0.442-0.781,1.109-0.137,1.48l42.201,24.365  C51.326,91.678,52.44,91.621,53.16,91.175"></path><g><g><path d="M17.212,62.832c0.098,0.058,0.088,0.158-0.021,0.226l-1.514,0.935c-0.109,0.067-0.277,0.075-0.375,0.02    l-1.357-0.784c-0.098-0.056-0.089-0.157,0.021-0.226l1.514-0.933c0.11-0.067,0.278-0.077,0.375-0.021L17.212,62.832z     M15.505,63.826l1.405-0.867l-1.26-0.726l-1.404,0.864L15.505,63.826"></path></g><g><path d="M22.521,59.559c0.099,0.056,0.089,0.155-0.02,0.224l-1.517,0.936c-0.106,0.066-0.277,0.076-0.375,0.021    l-1.358-0.785c-0.098-0.057-0.086-0.158,0.021-0.224l1.517-0.937c0.109-0.067,0.278-0.076,0.375-0.02L22.521,59.559z     M20.815,60.552l1.405-0.866l-1.26-0.728l-1.405,0.865L20.815,60.552"></path></g><g><path d="M19.315,61.535c0.098,0.057,0.086,0.158-0.021,0.225l-1.516,0.937c-0.11,0.066-0.278,0.075-0.375,0.019    l-1.358-0.782c-0.098-0.058-0.089-0.158,0.021-0.226l1.516-0.936c0.107-0.066,0.277-0.076,0.375-0.02L19.315,61.535z     M17.606,62.53l1.405-0.866l-1.26-0.728l-1.405,0.866L17.606,62.53"></path></g><g><path d="M14.988,66.566c0.098,0.059,0.089,0.157-0.021,0.225l-1.514,0.935c-0.109,0.067-0.28,0.078-0.378,0.022    l-1.355-0.785c-0.098-0.055-0.089-0.157,0.021-0.226l1.514-0.935c0.109-0.067,0.28-0.076,0.378-0.02L14.988,66.566z     M13.282,67.561l1.405-0.866l-1.258-0.727l-1.405,0.865L13.282,67.561"></path></g><g><path d="M23.033,68.703c0.098,0.057,0.089,0.157-0.021,0.226l-1.514,0.933c-0.11,0.067-0.278,0.077-0.375,0.02    l-1.358-0.783c-0.098-0.057-0.089-0.156,0.021-0.225l1.514-0.934c0.109-0.066,0.278-0.076,0.375-0.02L23.033,68.703z     M21.327,69.696l1.405-0.866l-1.26-0.729l-1.405,0.867L21.327,69.696"></path></g><g enable-background="new    "><g><path d="M21.051,67.559c0.098,0.058,0.089,0.155-0.02,0.224l-1.515,0.936c-0.109,0.066-0.278,0.076-0.375,0.021     l-1.356-0.785c-0.098-0.056-0.088-0.156,0.021-0.225l1.514-0.934c0.109-0.068,0.277-0.076,0.375-0.021L21.051,67.559z      M19.345,68.553l1.405-0.867l-1.258-0.728l-1.405,0.867L19.345,68.553"></path></g><g><path d="M19.072,66.416c0.098,0.056,0.089,0.156-0.021,0.225l-1.514,0.934c-0.11,0.067-0.278,0.076-0.375,0.02     l-1.358-0.783c-0.098-0.057-0.088-0.157,0.021-0.225l1.515-0.934c0.109-0.066,0.277-0.076,0.375-0.02L19.072,66.416z      M17.365,67.41l1.405-0.867l-1.26-0.728l-1.405,0.866L17.365,67.41"></path></g></g><g><path d="M17.09,65.271c0.098,0.059,0.089,0.157-0.021,0.225l-1.514,0.936c-0.109,0.066-0.277,0.076-0.375,0.02    l-1.356-0.783c-0.098-0.056-0.091-0.158,0.019-0.226l1.514-0.935c0.11-0.066,0.28-0.074,0.377-0.018L17.09,65.271z M15.383,66.265    l1.405-0.866l-1.258-0.728l-1.405,0.867L15.383,66.265"></path></g><g><path d="M15.11,64.128c0.098,0.057,0.089,0.156-0.02,0.224l-1.515,0.935c-0.109,0.067-0.278,0.076-0.375,0.021    l-1.357-0.784c-0.098-0.058-0.089-0.157,0.02-0.226l1.515-0.934c0.109-0.066,0.277-0.076,0.375-0.021L15.11,64.128z     M13.404,65.123l1.405-0.867l-1.26-0.728l-1.405,0.865L13.404,65.123"></path></g><g><path d="M13.009,65.423c0.098,0.059,0.088,0.158-0.021,0.226l-1.514,0.935c-0.109,0.066-0.28,0.076-0.377,0.021    l-1.358-0.783c-0.098-0.057-0.086-0.159,0.023-0.228l1.515-0.934c0.109-0.066,0.278-0.074,0.375-0.02L13.009,65.423z     M11.302,66.417l1.405-0.865l-1.26-0.729l-1.405,0.866L11.302,66.417"></path></g><g><path d="M19.191,63.975c0.098,0.058,0.089,0.157-0.021,0.226l-1.514,0.934c-0.109,0.068-0.277,0.076-0.375,0.021    l-1.356-0.782c-0.098-0.057-0.09-0.158,0.019-0.227l1.514-0.934c0.109-0.067,0.28-0.075,0.378-0.02L19.191,63.975z M17.485,64.968    l1.405-0.866l-1.258-0.726l-1.405,0.867L17.485,64.968"></path></g><g><path d="M25.257,64.964c0.098,0.058,0.087,0.16-0.021,0.226l-1.517,0.937c-0.109,0.066-0.277,0.076-0.375,0.02    l-1.356-0.782c-0.098-0.058-0.088-0.157,0.021-0.225l1.517-0.937c0.107-0.065,0.277-0.076,0.375-0.02L25.257,64.964z     M23.548,65.96l1.405-0.867l-1.258-0.725l-1.405,0.865L23.548,65.96"></path></g><g><path d="M24.894,72.285c0.098,0.057,0.088,0.158-0.021,0.227l-1.515,0.933c-0.109,0.067-0.28,0.078-0.377,0.021    l-1.358-0.782c-0.098-0.058-0.086-0.159,0.022-0.228l1.515-0.935c0.109-0.067,0.278-0.075,0.375-0.021L24.894,72.285z     M23.187,73.279l1.405-0.865l-1.26-0.729l-1.405,0.867L23.187,73.279"></path></g><g><path d="M22.912,71.142c0.1,0.059,0.091,0.158-0.019,0.227l-1.514,0.934c-0.109,0.066-0.28,0.076-0.38,0.02    l-1.356-0.781c-0.098-0.058-0.086-0.158,0.023-0.227l1.514-0.936c0.109-0.066,0.278-0.074,0.376-0.02L22.912,71.142z     M21.205,72.136l1.405-0.867l-1.258-0.727l-1.405,0.867L21.205,72.136"></path></g><g><path d="M31.2,68.396c0.098,0.057,0.086,0.159-0.021,0.227l-1.516,0.935c-0.11,0.067-0.278,0.075-0.375,0.021    l-1.358-0.783c-0.098-0.059-0.089-0.158,0.021-0.227l1.517-0.936c0.106-0.065,0.277-0.075,0.375-0.02L31.2,68.396z M29.491,69.392    l1.405-0.866l-1.26-0.728l-1.405,0.865L29.491,69.392"></path></g><g><path d="M29.097,69.693c0.098,0.059,0.088,0.157-0.021,0.227l-1.514,0.933c-0.11,0.067-0.278,0.077-0.375,0.021    l-1.358-0.783c-0.098-0.059-0.088-0.157,0.021-0.225l1.514-0.935c0.109-0.067,0.277-0.076,0.375-0.021L29.097,69.693z     M27.39,70.688l1.405-0.866l-1.26-0.729L26.13,69.96L27.39,70.688"></path></g><g><path d="M26.995,70.99c0.098,0.057,0.088,0.157-0.021,0.225l-1.514,0.934c-0.109,0.066-0.277,0.076-0.375,0.02    l-1.357-0.783c-0.098-0.057-0.089-0.156,0.021-0.225l1.514-0.935c0.109-0.067,0.277-0.075,0.375-0.019L26.995,70.99z     M25.289,71.983l1.405-0.864l-1.26-0.729l-1.405,0.866L25.289,71.983"></path></g><g><path d="M25.013,69.846c0.1,0.058,0.091,0.157-0.019,0.226l-1.514,0.934c-0.109,0.068-0.278,0.076-0.377,0.02    l-1.356-0.781c-0.098-0.059-0.088-0.158,0.021-0.227l1.514-0.934c0.109-0.067,0.278-0.076,0.375-0.021L25.013,69.846z     M23.307,70.839l1.404-0.866l-1.258-0.726l-1.405,0.867L23.307,70.839"></path></g><g><path d="M27.115,68.55c0.1,0.059,0.09,0.158-0.019,0.225l-1.514,0.936c-0.109,0.066-0.277,0.074-0.378,0.018    l-1.355-0.781c-0.098-0.058-0.089-0.158,0.021-0.226l1.514-0.935c0.109-0.066,0.278-0.076,0.375-0.02L27.115,68.55z     M25.409,69.544l1.404-0.866l-1.258-0.728l-1.405,0.866L25.409,69.544"></path></g><g><path d="M25.135,67.406c0.098,0.057,0.089,0.158-0.021,0.227L23.6,68.564c-0.109,0.066-0.278,0.077-0.375,0.02    L21.868,67.8c-0.099-0.055-0.089-0.156,0.02-0.225l1.515-0.935c0.109-0.065,0.277-0.075,0.375-0.021L25.135,67.406z M23.428,68.4    l1.405-0.865l-1.26-0.729l-1.405,0.867L23.428,68.4"></path></g><g><path d="M23.153,66.263c0.098,0.056,0.089,0.156-0.021,0.225l-1.514,0.934c-0.11,0.068-0.278,0.076-0.375,0.021    l-1.356-0.782c-0.098-0.058-0.088-0.156,0.021-0.225l1.514-0.936c0.109-0.066,0.277-0.074,0.375-0.021L23.153,66.263z     M21.447,67.255l1.405-0.865l-1.258-0.727l-1.405,0.865L21.447,67.255"></path></g><g><path d="M21.173,65.121c0.098,0.055,0.088,0.155-0.021,0.223l-1.515,0.935c-0.109,0.067-0.277,0.076-0.375,0.021    l-1.357-0.784c-0.098-0.056-0.088-0.156,0.02-0.226l1.515-0.933c0.109-0.067,0.278-0.077,0.375-0.021L21.173,65.121z     M19.467,66.113l1.405-0.865l-1.261-0.729l-1.405,0.866L19.467,66.113"></path></g><g><path d="M26.483,61.845c0.098,0.057,0.089,0.158-0.021,0.226l-1.517,0.935c-0.106,0.065-0.277,0.076-0.375,0.021    l-1.357-0.782c-0.098-0.059-0.086-0.16,0.021-0.226l1.517-0.937c0.109-0.066,0.278-0.076,0.375-0.02L26.483,61.845z     M24.777,62.839l1.405-0.866l-1.26-0.728l-1.405,0.866L24.777,62.839"></path></g><g><path d="M23.277,63.822c0.098,0.057,0.086,0.159-0.021,0.225l-1.517,0.936c-0.109,0.066-0.277,0.077-0.375,0.021    l-1.357-0.785c-0.098-0.057-0.089-0.156,0.021-0.225l1.517-0.935c0.107-0.065,0.277-0.077,0.375-0.021L23.277,63.822z     M21.568,64.818l1.405-0.867l-1.26-0.729l-1.405,0.867L21.568,64.818"></path></g><g><path d="M21.295,62.678c0.098,0.058,0.087,0.157-0.02,0.224l-1.517,0.938c-0.109,0.066-0.278,0.074-0.375,0.02    l-1.355-0.783c-0.098-0.056-0.091-0.158,0.018-0.227l1.517-0.936c0.107-0.064,0.28-0.074,0.377-0.019L21.295,62.678z     M19.587,63.673l1.405-0.866l-1.258-0.728l-1.405,0.867L19.587,63.673"></path></g><g><path d="M18.95,68.854c0.098,0.058,0.088,0.157-0.021,0.226l-1.515,0.935c-0.109,0.067-0.28,0.077-0.377,0.021    l-1.356-0.781c-0.098-0.058-0.086-0.16,0.023-0.228l1.514-0.935c0.109-0.066,0.278-0.075,0.375-0.02L18.95,68.854z M17.244,69.848    l1.405-0.865l-1.258-0.728l-1.405,0.867L17.244,69.848"></path></g><g><path d="M16.97,67.71c0.098,0.058,0.089,0.158-0.021,0.226l-1.514,0.935c-0.109,0.067-0.28,0.078-0.378,0.021    L13.7,68.106c-0.098-0.056-0.086-0.159,0.023-0.226l1.514-0.935c0.109-0.067,0.277-0.077,0.375-0.021L16.97,67.71z M15.264,68.705    l1.405-0.865l-1.26-0.728l-1.405,0.864L15.264,68.705"></path></g><g><path d="M29.219,67.253c0.1,0.058,0.088,0.158-0.019,0.225l-1.516,0.936c-0.109,0.068-0.277,0.076-0.377,0.02    l-1.356-0.783c-0.098-0.057-0.089-0.156,0.021-0.225l1.517-0.936c0.107-0.064,0.277-0.076,0.375-0.021L29.219,67.253z     M27.51,68.248l1.405-0.865l-1.258-0.728l-1.405,0.866L27.51,68.248"></path></g><g><path d="M30.445,64.132c0.098,0.058,0.089,0.156-0.021,0.226l-1.516,0.937c-0.107,0.064-0.278,0.074-0.375,0.02    l-1.358-0.785c-0.098-0.057-0.086-0.156,0.021-0.224l1.517-0.937c0.109-0.066,0.277-0.074,0.375-0.021L30.445,64.132z     M28.738,65.126l1.405-0.867l-1.26-0.727l-1.405,0.865L28.738,65.126"></path></g><g><path d="M27.239,66.11c0.098,0.056,0.086,0.157-0.021,0.224l-1.517,0.936c-0.109,0.066-0.278,0.077-0.375,0.02    l-1.358-0.783c-0.098-0.057-0.088-0.156,0.021-0.225l1.517-0.936c0.107-0.066,0.278-0.076,0.375-0.02L27.239,66.11z M25.53,67.104    l1.405-0.864l-1.26-0.729l-1.405,0.865L25.53,67.104"></path></g><g><path d="M20.932,70c0.098,0.056,0.088,0.155-0.021,0.224l-1.514,0.935c-0.11,0.065-0.28,0.078-0.378,0.021    l-1.357-0.784c-0.098-0.057-0.087-0.158,0.023-0.227l1.514-0.934c0.109-0.066,0.278-0.076,0.375-0.021L20.932,70z M19.225,70.994    l1.405-0.867l-1.26-0.729l-1.405,0.867L19.225,70.994"></path></g><g><path d="M32.938,74.421c0.098,0.057,0.089,0.156-0.021,0.225l-1.514,0.934c-0.109,0.067-0.278,0.076-0.375,0.021    l-1.358-0.783c-0.098-0.058-0.089-0.157,0.021-0.226l1.514-0.934c0.109-0.066,0.278-0.076,0.375-0.02L32.938,74.421z     M31.232,75.416l1.405-0.867l-1.26-0.727l-1.405,0.865L31.232,75.416"></path></g><g><path d="M32.816,76.86c0.098,0.056,0.089,0.156-0.02,0.224l-1.515,0.936c-0.109,0.066-0.28,0.077-0.377,0.021    l-1.356-0.783c-0.098-0.057-0.086-0.158,0.023-0.227l1.514-0.934c0.109-0.067,0.278-0.076,0.376-0.02L32.816,76.86z M31.11,77.854    l1.405-0.864l-1.258-0.729l-1.405,0.867L31.11,77.854"></path></g><g><path d="M30.837,75.716c0.098,0.058,0.088,0.158-0.021,0.226l-1.515,0.935c-0.109,0.067-0.28,0.078-0.377,0.021    l-1.358-0.782c-0.098-0.057-0.086-0.16,0.023-0.227l1.514-0.934c0.109-0.067,0.278-0.076,0.375-0.021L30.837,75.716z M29.13,76.71    l1.405-0.867l-1.26-0.725l-1.405,0.864L29.13,76.71"></path></g><g><path d="M28.855,74.572c0.098,0.059,0.089,0.157-0.021,0.227L27.32,75.73c-0.11,0.068-0.28,0.078-0.378,0.021    l-1.355-0.783c-0.098-0.057-0.088-0.158,0.021-0.227l1.515-0.935c0.109-0.067,0.279-0.075,0.377-0.019L28.855,74.572z     M27.149,75.566l1.404-0.865l-1.258-0.727l-1.405,0.865L27.149,75.566"></path></g><g><path d="M30.957,73.276c0.098,0.058,0.089,0.157-0.021,0.226l-1.514,0.935c-0.109,0.067-0.278,0.075-0.375,0.021    l-1.356-0.783c-0.098-0.057-0.09-0.158,0.019-0.227l1.514-0.934c0.109-0.067,0.28-0.075,0.377-0.018L30.957,73.276z M29.25,74.271    l1.405-0.866l-1.259-0.726l-1.405,0.865L29.25,74.271"></path></g><g><path d="M34.918,75.564c0.097,0.057,0.088,0.156-0.021,0.225l-1.514,0.934c-0.11,0.066-0.278,0.076-0.376,0.021    l-1.356-0.785c-0.098-0.056-0.088-0.155,0.021-0.224l1.515-0.935c0.109-0.067,0.277-0.076,0.375-0.021L34.918,75.564z     M33.212,76.559l1.404-0.867l-1.258-0.728l-1.405,0.867L33.212,76.559"></path></g><g><path d="M39.002,75.412c0.097,0.057,0.088,0.158-0.021,0.227l-1.514,0.933c-0.109,0.067-0.278,0.076-0.376,0.021    l-1.357-0.783c-0.098-0.057-0.089-0.157,0.02-0.225l1.515-0.936c0.109-0.066,0.277-0.074,0.375-0.02L39.002,75.412z     M37.295,76.406l1.405-0.865l-1.26-0.729l-1.405,0.867L37.295,76.406"></path></g><g><path d="M37.02,74.269c0.098,0.057,0.088,0.156-0.021,0.225l-1.514,0.934c-0.109,0.068-0.278,0.076-0.375,0.021    l-1.356-0.783c-0.098-0.057-0.088-0.156,0.021-0.225l1.514-0.936c0.109-0.065,0.278-0.074,0.375-0.02L37.02,74.269z     M35.313,75.263l1.405-0.867l-1.258-0.727l-1.405,0.867L35.313,75.263"></path></g><g><path d="M41.105,74.115c0.098,0.057,0.087,0.158-0.02,0.225l-1.517,0.936c-0.109,0.066-0.278,0.076-0.375,0.021    l-1.358-0.784c-0.098-0.058-0.088-0.157,0.021-0.226l1.516-0.937c0.107-0.065,0.277-0.075,0.376-0.019L41.105,74.115z     M39.396,75.11l1.405-0.864l-1.26-0.729l-1.405,0.866L39.396,75.11"></path></g><g><path d="M42.329,70.996c0.098,0.055,0.089,0.155-0.021,0.223l-1.516,0.936c-0.107,0.064-0.278,0.076-0.375,0.021    l-1.356-0.783c-0.098-0.057-0.086-0.157,0.021-0.225l1.516-0.936c0.109-0.068,0.278-0.077,0.376-0.021L42.329,70.996z     M40.623,71.988l1.405-0.865l-1.258-0.728l-1.405,0.866L40.623,71.988"></path></g><g><path d="M39.124,72.971c0.097,0.057,0.086,0.159-0.021,0.225l-1.517,0.935c-0.109,0.068-0.276,0.078-0.375,0.021    l-1.356-0.781c-0.097-0.058-0.088-0.158,0.021-0.226l1.517-0.937c0.106-0.065,0.277-0.076,0.375-0.02L39.124,72.971z     M37.415,73.966L38.82,73.1l-1.257-0.726l-1.406,0.865L37.415,73.966"></path></g><g><path d="M40.35,69.851c0.098,0.057,0.088,0.158-0.021,0.227l-1.517,0.935c-0.106,0.065-0.277,0.075-0.375,0.021    l-1.358-0.783c-0.098-0.059-0.086-0.16,0.021-0.227l1.516-0.936c0.11-0.066,0.278-0.075,0.376-0.02L40.35,69.851z M38.644,70.845    l1.405-0.866l-1.26-0.728l-1.406,0.867L38.644,70.845"></path></g><g><path d="M37.144,71.828c0.098,0.057,0.086,0.159-0.021,0.226l-1.516,0.937c-0.109,0.066-0.278,0.075-0.376,0.018    l-1.357-0.783c-0.098-0.057-0.089-0.156,0.02-0.225l1.517-0.935c0.107-0.065,0.278-0.077,0.375-0.021L37.144,71.828z     M35.436,72.824l1.405-0.867l-1.26-0.727l-1.405,0.865L35.436,72.824"></path></g><g><path d="M35.041,73.126c0.097,0.056,0.088,0.156-0.021,0.224l-1.515,0.935c-0.109,0.066-0.277,0.076-0.375,0.02    l-1.358-0.783c-0.097-0.057-0.088-0.156,0.021-0.225l1.514-0.935c0.109-0.067,0.277-0.077,0.376-0.021L35.041,73.126z     M33.333,74.119l1.405-0.865l-1.26-0.729l-1.405,0.866L33.333,74.119"></path></g><g><path d="M33.059,71.981c0.097,0.056,0.088,0.156-0.021,0.224l-1.514,0.936c-0.109,0.066-0.277,0.074-0.376,0.02    l-1.355-0.783c-0.098-0.056-0.091-0.158,0.019-0.226l1.514-0.935c0.109-0.066,0.28-0.074,0.377-0.018L33.059,71.981z     M31.352,72.975l1.405-0.865l-1.258-0.728l-1.405,0.867L31.352,72.975"></path></g><g><path d="M35.162,70.684c0.098,0.058,0.087,0.157-0.02,0.224l-1.517,0.938c-0.109,0.066-0.278,0.076-0.375,0.021    l-1.356-0.785c-0.098-0.057-0.09-0.158,0.019-0.227l1.516-0.934c0.107-0.066,0.28-0.076,0.378-0.02L35.162,70.684z M33.453,71.68    l1.405-0.867L33.6,70.085l-1.405,0.867L33.453,71.68"></path></g><g><path d="M38.368,68.707c0.099,0.057,0.088,0.158-0.021,0.226l-1.516,0.935c-0.107,0.066-0.278,0.077-0.376,0.021    L35.1,69.104c-0.098-0.058-0.089-0.16,0.018-0.226l1.517-0.936c0.109-0.066,0.28-0.074,0.377-0.02L38.368,68.707z M36.662,69.701    l1.405-0.867l-1.258-0.726l-1.405,0.866L36.662,69.701"></path></g><g><path d="M36.388,67.564c0.098,0.057,0.089,0.156-0.021,0.225l-1.516,0.935c-0.107,0.065-0.278,0.077-0.375,0.021    l-1.358-0.783c-0.098-0.057-0.086-0.158,0.02-0.225l1.517-0.936c0.109-0.066,0.278-0.077,0.376-0.021L36.388,67.564z     M34.682,68.559l1.404-0.867l-1.26-0.729l-1.405,0.867L34.682,68.559"></path></g><g><path d="M33.183,69.541c0.097,0.057,0.086,0.158-0.021,0.225l-1.516,0.936c-0.11,0.066-0.279,0.075-0.376,0.02    l-1.358-0.783c-0.098-0.057-0.088-0.158,0.021-0.227l1.517-0.935c0.106-0.065,0.277-0.075,0.375-0.021L33.183,69.541z     M31.473,70.537l1.405-0.867l-1.26-0.728l-1.405,0.866L31.473,70.537"></path></g><g><path d="M26.875,73.43c0.098,0.057,0.088,0.155-0.021,0.224l-1.514,0.936c-0.109,0.066-0.28,0.076-0.377,0.021    l-1.358-0.785c-0.098-0.057-0.086-0.158,0.023-0.227l1.514-0.934c0.11-0.067,0.278-0.076,0.375-0.021L26.875,73.43z     M25.168,74.423l1.405-0.865l-1.26-0.729l-1.405,0.866L25.168,74.423"></path></g><g><path d="M28.977,72.134c0.098,0.057,0.088,0.156-0.021,0.225l-1.514,0.934c-0.109,0.068-0.277,0.076-0.375,0.021    l-1.358-0.785c-0.098-0.057-0.088-0.156,0.021-0.224l1.514-0.935c0.109-0.066,0.277-0.076,0.375-0.021L28.977,72.134z     M27.27,73.128l1.405-0.866l-1.26-0.728l-1.405,0.864L27.27,73.128"></path></g><g><path d="M31.078,70.837c0.098,0.057,0.088,0.158-0.021,0.226l-1.514,0.935c-0.109,0.066-0.278,0.076-0.375,0.021    l-1.357-0.784c-0.098-0.057-0.089-0.156,0.02-0.225l1.515-0.934c0.109-0.068,0.278-0.078,0.375-0.021L31.078,70.837z     M29.372,71.832l1.405-0.867l-1.26-0.727l-1.405,0.865L29.372,71.832"></path></g><g><path d="M34.798,78.005c0.098,0.056,0.088,0.156-0.021,0.224l-1.514,0.935c-0.109,0.066-0.28,0.078-0.378,0.021    L31.528,78.4c-0.098-0.057-0.087-0.158,0.022-0.227l1.514-0.934c0.109-0.066,0.278-0.076,0.375-0.02L34.798,78.005z M33.092,79    l1.405-0.867l-1.26-0.729l-1.405,0.866L33.092,79"></path></g><g><path d="M36.899,76.708c0.099,0.057,0.089,0.158-0.02,0.226l-1.515,0.935c-0.109,0.066-0.276,0.075-0.375,0.019    l-1.358-0.784c-0.098-0.055-0.088-0.156,0.021-0.225l1.514-0.935c0.109-0.067,0.278-0.075,0.376-0.019L36.899,76.708z     M35.193,77.703l1.405-0.867l-1.26-0.728l-1.405,0.866L35.193,77.703"></path></g><g><path d="M49.029,78.689c0.098,0.059,0.086,0.158-0.02,0.225l-1.517,0.937c-0.109,0.067-0.278,0.075-0.376,0.021    l-1.356-0.783c-0.097-0.057-0.09-0.158,0.019-0.227l1.517-0.936c0.107-0.064,0.28-0.075,0.378-0.02L49.029,78.689z M47.32,79.686    l1.405-0.867l-1.258-0.728l-1.406,0.867L47.32,79.686"></path></g><g><path d="M52.235,76.712c0.097,0.058,0.089,0.158-0.021,0.226l-1.516,0.937c-0.109,0.065-0.279,0.076-0.377,0.019    l-1.356-0.781c-0.099-0.058-0.088-0.161,0.019-0.228l1.517-0.934c0.108-0.068,0.281-0.076,0.377-0.021L52.235,76.712z     M50.529,77.707l1.405-0.867l-1.259-0.725L49.27,76.98L50.529,77.707"></path></g><g><path d="M50.255,75.57c0.098,0.057,0.088,0.156-0.021,0.225l-1.517,0.935c-0.106,0.067-0.277,0.077-0.375,0.021    l-1.358-0.783c-0.097-0.057-0.086-0.158,0.021-0.225l1.517-0.936c0.109-0.066,0.277-0.077,0.375-0.02L50.255,75.57z     M48.548,76.563l1.405-0.866l-1.26-0.729l-1.405,0.867L48.548,76.563"></path></g><g><path d="M48.272,74.425c0.099,0.059,0.088,0.156-0.02,0.225l-1.517,0.936c-0.107,0.066-0.278,0.076-0.375,0.021    l-1.358-0.782c-0.098-0.058-0.086-0.16,0.021-0.227l1.516-0.936c0.109-0.066,0.278-0.076,0.376-0.02L48.272,74.425z     M46.566,75.419l1.405-0.865l-1.26-0.729l-1.405,0.865L46.566,75.419"></path></g><g><path d="M45.067,76.402c0.098,0.057,0.086,0.158-0.021,0.225l-1.517,0.937c-0.109,0.067-0.277,0.076-0.375,0.021    L41.796,76.8c-0.098-0.059-0.088-0.158,0.021-0.225l1.517-0.938c0.107-0.064,0.277-0.075,0.375-0.02L45.067,76.402z     M43.358,77.397l1.405-0.866l-1.26-0.727l-1.405,0.865L43.358,77.397"></path></g><g><path d="M43.085,75.259c0.101,0.058,0.088,0.158-0.019,0.226l-1.516,0.935c-0.109,0.067-0.278,0.076-0.378,0.019    l-1.355-0.782c-0.098-0.058-0.089-0.156,0.02-0.225l1.517-0.936c0.107-0.065,0.278-0.076,0.375-0.021L43.085,75.259z     M41.377,76.253l1.405-0.865l-1.258-0.727l-1.406,0.864L41.377,76.253"></path></g><g><path d="M38.76,80.291c0.098,0.058,0.089,0.158-0.021,0.226l-1.514,0.935c-0.109,0.066-0.28,0.077-0.378,0.021    l-1.357-0.783c-0.098-0.058-0.086-0.159,0.023-0.228l1.514-0.934c0.109-0.066,0.277-0.076,0.376-0.021L38.76,80.291z     M37.053,81.285l1.405-0.865l-1.26-0.729l-1.405,0.867L37.053,81.285"></path></g><g><path d="M36.779,79.147c0.099,0.058,0.09,0.159-0.019,0.228l-1.514,0.933c-0.109,0.067-0.28,0.077-0.38,0.021    l-1.356-0.781c-0.098-0.059-0.086-0.159,0.023-0.228l1.514-0.935c0.11-0.067,0.278-0.075,0.376-0.02L36.779,79.147z     M35.072,80.142l1.405-0.867l-1.258-0.727l-1.406,0.867L35.072,80.142"></path></g><g><path d="M42.963,77.701c0.099,0.057,0.088,0.156-0.021,0.223l-1.514,0.936c-0.109,0.066-0.278,0.076-0.375,0.02    l-1.358-0.783c-0.098-0.059-0.088-0.156,0.021-0.225l1.514-0.935c0.109-0.067,0.278-0.075,0.375-0.021L42.963,77.701z     M41.257,78.693l1.405-0.865l-1.26-0.729l-1.405,0.865L41.257,78.693"></path></g><g><path d="M40.862,78.996c0.098,0.058,0.088,0.156-0.021,0.225l-1.514,0.934c-0.109,0.067-0.278,0.076-0.376,0.021    l-1.358-0.784c-0.097-0.058-0.088-0.156,0.021-0.226l1.515-0.935c0.109-0.067,0.277-0.075,0.375-0.021L40.862,78.996z     M39.156,79.99l1.405-0.865l-1.26-0.729l-1.406,0.867L39.156,79.99"></path></g><g><path d="M38.88,77.852c0.1,0.058,0.091,0.157-0.019,0.226l-1.514,0.935c-0.109,0.067-0.278,0.075-0.377,0.018    l-1.356-0.78c-0.098-0.058-0.089-0.158,0.021-0.226l1.514-0.935c0.109-0.067,0.278-0.075,0.375-0.021L38.88,77.852z     M37.173,78.845l1.405-0.866l-1.258-0.726l-1.405,0.865L37.173,78.845"></path></g><g><path d="M40.981,76.556c0.1,0.059,0.091,0.158-0.018,0.225l-1.515,0.936c-0.109,0.066-0.277,0.076-0.377,0.019    l-1.356-0.782c-0.098-0.058-0.088-0.158,0.021-0.226l1.514-0.935c0.109-0.066,0.278-0.074,0.376-0.02L40.981,76.556z     M39.274,77.55l1.406-0.866l-1.259-0.728l-1.405,0.865L39.274,77.55"></path></g><g><path d="M46.924,79.987c0.098,0.058,0.089,0.157-0.02,0.224l-1.515,0.936c-0.109,0.066-0.277,0.075-0.375,0.02    l-1.356-0.783c-0.097-0.055-0.09-0.157,0.019-0.225l1.514-0.935c0.109-0.067,0.28-0.075,0.378-0.019L46.924,79.987z M45.219,80.98    l1.404-0.865l-1.258-0.728l-1.405,0.866L45.219,80.98"></path></g><g><path d="M42.722,82.578c0.097,0.059,0.088,0.158-0.021,0.227l-1.515,0.934c-0.108,0.067-0.28,0.077-0.377,0.021    l-1.356-0.784c-0.098-0.056-0.088-0.158,0.021-0.226l1.514-0.936c0.11-0.066,0.28-0.074,0.378-0.018L42.722,82.578z     M41.016,83.572l1.405-0.865l-1.258-0.728l-1.406,0.866L41.016,83.572"></path></g><g enable-background="new    "><g><path d="M46.684,84.867c0.098,0.057,0.088,0.155-0.021,0.223l-1.514,0.936c-0.109,0.066-0.28,0.077-0.378,0.021     l-1.355-0.783c-0.098-0.057-0.087-0.159,0.022-0.227l1.515-0.935c0.109-0.067,0.278-0.076,0.375-0.021L46.684,84.867z      M44.977,85.86l1.405-0.866l-1.258-0.728l-1.405,0.866L44.977,85.86"></path></g><g><path d="M44.704,83.723c0.097,0.057,0.088,0.157-0.021,0.226l-1.514,0.934c-0.11,0.068-0.281,0.078-0.379,0.021     l-1.357-0.783c-0.099-0.057-0.086-0.16,0.022-0.227l1.514-0.934c0.109-0.067,0.278-0.078,0.376-0.021L44.704,83.723z      M42.997,84.716l1.405-0.865l-1.26-0.727l-1.405,0.865L42.997,84.716"></path></g></g><g><path d="M46.805,82.428c0.098,0.056,0.088,0.155-0.021,0.224l-1.514,0.934c-0.109,0.067-0.278,0.076-0.376,0.021    l-1.358-0.785c-0.097-0.056-0.088-0.156,0.022-0.225l1.514-0.934c0.109-0.066,0.277-0.076,0.375-0.02L46.805,82.428z     M45.099,83.421l1.405-0.866l-1.261-0.728l-1.403,0.865L45.099,83.421"></path></g><g><path d="M50.887,82.274c0.098,0.056,0.088,0.157-0.021,0.226l-1.515,0.934c-0.109,0.066-0.278,0.076-0.376,0.02    l-1.355-0.781c-0.099-0.057-0.089-0.157,0.02-0.226l1.514-0.935c0.11-0.067,0.277-0.075,0.376-0.02L50.887,82.274z M49.18,83.268    l1.405-0.866l-1.258-0.727l-1.405,0.867L49.18,83.268"></path></g><g><path d="M48.907,81.132c0.098,0.056,0.088,0.156-0.02,0.224l-1.515,0.935c-0.109,0.067-0.278,0.076-0.375,0.021    l-1.358-0.785c-0.098-0.056-0.088-0.155,0.021-0.224l1.514-0.934c0.109-0.066,0.278-0.078,0.376-0.021L48.907,81.132z     M47.2,82.126l1.405-0.867l-1.26-0.729l-1.405,0.867L47.2,82.126"></path></g><g><path d="M52.992,80.977c0.096,0.058,0.086,0.159-0.021,0.226l-1.518,0.936c-0.109,0.066-0.277,0.076-0.375,0.02    l-1.355-0.781c-0.098-0.059-0.088-0.158,0.021-0.226l1.516-0.937c0.107-0.065,0.277-0.075,0.375-0.02L52.992,80.977z     M51.281,81.972l1.405-0.866l-1.258-0.726l-1.405,0.865L51.281,81.972"></path></g><g><path d="M51.011,79.833c0.099,0.057,0.086,0.16-0.021,0.226l-1.516,0.935c-0.11,0.067-0.279,0.077-0.376,0.021    L47.74,80.23c-0.097-0.055-0.088-0.156,0.021-0.225l1.517-0.935c0.106-0.065,0.277-0.077,0.375-0.021L51.011,79.833z     M49.301,80.83l1.406-0.867l-1.261-0.728l-1.405,0.866L49.301,80.83"></path></g><g><path d="M56.196,79c0.099,0.058,0.089,0.158-0.021,0.226l-1.518,0.935c-0.105,0.066-0.277,0.077-0.375,0.021    l-1.355-0.783c-0.098-0.057-0.088-0.158,0.021-0.225l1.516-0.936c0.109-0.066,0.279-0.076,0.375-0.021L56.196,79z M54.49,79.994    l1.404-0.865l-1.258-0.728l-1.404,0.866L54.49,79.994"></path></g><g><path d="M58.179,80.145c0.097,0.058,0.088,0.157-0.021,0.226l-1.517,0.936c-0.106,0.064-0.276,0.074-0.375,0.02    l-1.358-0.783c-0.098-0.058-0.086-0.158,0.021-0.226l1.516-0.937c0.11-0.066,0.277-0.074,0.376-0.02L58.179,80.145z     M56.472,81.138l1.404-0.866l-1.26-0.728L55.21,80.41L56.472,81.138"></path></g><g><path d="M60.158,81.287c0.1,0.059,0.092,0.158-0.019,0.227l-1.517,0.936c-0.107,0.066-0.279,0.076-0.379,0.02    l-1.354-0.783c-0.099-0.057-0.086-0.158,0.021-0.225l1.518-0.936c0.107-0.066,0.277-0.076,0.376-0.02L60.158,81.287z     M58.451,82.281l1.406-0.865l-1.26-0.727l-1.404,0.865L58.451,82.281"></path></g><g><path d="M56.953,83.265c0.101,0.059,0.088,0.158-0.02,0.227l-1.518,0.936c-0.108,0.066-0.277,0.074-0.377,0.018    l-1.355-0.783c-0.098-0.057-0.09-0.156,0.021-0.224l1.517-0.937c0.106-0.064,0.276-0.074,0.375-0.021L56.953,83.265z     M55.244,84.259l1.403-0.865l-1.258-0.727l-1.404,0.865L55.244,84.259"></path></g><g><path d="M52.626,88.298c0.099,0.056,0.088,0.156-0.021,0.225l-1.515,0.934c-0.109,0.066-0.279,0.076-0.379,0.021    l-1.356-0.783c-0.098-0.058-0.087-0.159,0.023-0.228l1.514-0.934c0.108-0.068,0.278-0.076,0.375-0.021L52.626,88.298z     M50.919,89.291l1.406-0.865l-1.261-0.729l-1.405,0.867L50.919,89.291"></path></g><g><path d="M50.645,87.153c0.101,0.058,0.091,0.159-0.019,0.226l-1.515,0.935c-0.109,0.067-0.28,0.077-0.379,0.021    l-1.356-0.781c-0.098-0.059-0.086-0.159,0.022-0.227l1.514-0.936c0.109-0.066,0.278-0.075,0.376-0.02L50.645,87.153z     M48.938,88.147l1.405-0.867l-1.258-0.726l-1.405,0.867L48.938,88.147"></path></g><g><path d="M52.748,85.858c0.099,0.058,0.09,0.157-0.021,0.226l-1.515,0.934c-0.108,0.066-0.276,0.076-0.377,0.02    l-1.355-0.783c-0.098-0.058-0.089-0.156,0.02-0.226l1.515-0.935c0.109-0.066,0.275-0.074,0.375-0.02L52.748,85.858z     M51.041,86.852l1.404-0.866l-1.259-0.727l-1.405,0.867L51.041,86.852"></path></g><g><path d="M58.934,84.408c0.099,0.057,0.087,0.159-0.021,0.227l-1.518,0.935c-0.109,0.067-0.277,0.075-0.375,0.021    l-1.357-0.783c-0.099-0.059-0.09-0.158,0.021-0.227l1.517-0.936c0.106-0.064,0.276-0.075,0.375-0.02L58.934,84.408z     M57.225,85.403l1.405-0.866l-1.26-0.727l-1.406,0.865L57.225,85.403"></path></g><g><path d="M54.728,87.001c0.1,0.058,0.09,0.158-0.021,0.226l-1.514,0.933c-0.109,0.067-0.277,0.077-0.375,0.021    l-1.357-0.784c-0.099-0.058-0.088-0.155,0.021-0.224l1.515-0.936c0.108-0.068,0.276-0.076,0.375-0.02L54.728,87.001z     M53.021,87.996l1.404-0.865l-1.26-0.729l-1.404,0.867L53.021,87.996"></path></g><g><path d="M56.83,85.705c0.1,0.059,0.088,0.158-0.021,0.227l-1.515,0.934c-0.109,0.067-0.277,0.076-0.375,0.02    L53.562,86.1c-0.098-0.058-0.089-0.157,0.021-0.226l1.515-0.934c0.108-0.066,0.276-0.074,0.375-0.02L56.83,85.705z M55.125,86.699    l1.403-0.865l-1.261-0.729l-1.402,0.866L55.125,86.699"></path></g><g><path d="M54.848,84.562c0.101,0.059,0.092,0.156-0.019,0.225l-1.515,0.935c-0.108,0.067-0.278,0.075-0.377,0.019    l-1.356-0.781c-0.098-0.059-0.088-0.158,0.021-0.227l1.516-0.934c0.107-0.067,0.276-0.076,0.375-0.021L54.848,84.562z     M53.142,85.556l1.404-0.866l-1.258-0.728l-1.404,0.867L53.142,85.556"></path></g><g><path d="M56.71,88.146c0.098,0.057,0.088,0.157-0.021,0.225l-1.514,0.936c-0.109,0.066-0.278,0.074-0.375,0.02    l-1.358-0.783c-0.099-0.059-0.089-0.158,0.021-0.226l1.515-0.935c0.108-0.066,0.278-0.075,0.376-0.02L56.71,88.146z M55.003,89.14    l1.404-0.866l-1.26-0.728l-1.404,0.865L55.003,89.14"></path></g><g><path d="M58.812,86.85c0.098,0.058,0.088,0.157-0.021,0.226l-1.515,0.934c-0.108,0.066-0.276,0.076-0.375,0.021    l-1.358-0.784c-0.097-0.057-0.088-0.156,0.021-0.225l1.514-0.934c0.109-0.067,0.277-0.078,0.377-0.021L58.812,86.85z     M57.104,87.843l1.405-0.866l-1.26-0.728l-1.406,0.867L57.104,87.843"></path></g><g><path d="M60.916,85.553c0.099,0.058,0.086,0.157-0.021,0.224l-1.516,0.936c-0.109,0.067-0.278,0.076-0.377,0.021    l-1.356-0.782c-0.099-0.058-0.089-0.158,0.021-0.227l1.518-0.936c0.105-0.064,0.277-0.076,0.375-0.02L60.916,85.553z     M59.207,86.548l1.405-0.866l-1.261-0.729l-1.405,0.867L59.207,86.548"></path></g><g><path d="M28.463,62.988c0.098,0.057,0.088,0.157-0.021,0.225l-1.517,0.936c-0.107,0.066-0.277,0.076-0.375,0.021    l-1.356-0.783c-0.098-0.057-0.086-0.159,0.021-0.227l1.516-0.935c0.109-0.067,0.278-0.075,0.375-0.021L28.463,62.988z     M26.756,63.982l1.405-0.865l-1.258-0.728l-1.405,0.866L26.756,63.982"></path></g><g><path d="M32.424,65.275c0.101,0.059,0.09,0.158-0.019,0.227l-1.517,0.936c-0.106,0.066-0.277,0.076-0.377,0.02    l-1.354-0.783c-0.098-0.057-0.086-0.159,0.021-0.225l1.517-0.936c0.109-0.067,0.277-0.077,0.375-0.02L32.424,65.275z     M30.718,66.27l1.405-0.866l-1.258-0.726l-1.405,0.864L30.718,66.27"></path></g><g><path d="M46.292,73.281c0.099,0.059,0.09,0.158-0.019,0.227l-1.517,0.936c-0.107,0.066-0.277,0.076-0.377,0.02    l-1.356-0.782c-0.098-0.058-0.086-0.159,0.021-0.226l1.516-0.936c0.11-0.066,0.277-0.076,0.376-0.02L46.292,73.281z     M44.585,74.274l1.405-0.864l-1.258-0.727l-1.406,0.865L44.585,74.274"></path></g><g><path d="M54.609,89.441c0.098,0.059,0.088,0.156-0.021,0.225L53.074,90.6c-0.109,0.067-0.279,0.078-0.378,0.022    l-1.358-0.785c-0.098-0.058-0.086-0.157,0.023-0.226l1.516-0.935c0.108-0.067,0.275-0.076,0.375-0.021L54.609,89.441z     M52.901,90.436l1.406-0.865l-1.261-0.729l-1.405,0.865L52.901,90.436"></path></g></g><g><path d="M58.361,97.332l4.131-2.545l-2.014-1.162c-0.363,0.162-0.846,0.166-1.143-0.004   c-0.293-0.17-0.301-0.457-0.041-0.682l-2.088-1.204l-4.131,2.545c-1.119,0.69-1.216,1.72-0.215,2.298l1.659,0.959   C55.521,98.112,57.244,98.022,58.361,97.332"></path><path d="M57.712,91.423l-0.254,0.154l2.09,1.207c0.314-0.142,0.721-0.162,1.014-0.055l1.742-1.072l-0.756-0.438   C60.548,90.644,58.828,90.735,57.712,91.423"></path><path d="M62.744,94.63l0.254-0.155c1.115-0.688,1.209-1.718,0.211-2.295l-0.68-0.392l-1.742,1.073   c0.192,0.171,0.17,0.412-0.055,0.606L62.744,94.63"></path></g></g>
</svg>
</g></svg></svg>