<svg version="1.1" preserveAspectRatio="none" xmlns="http://www.w3.org/2000/svg" width="500" height="500" viewBox="0 0 500 500"><rect width="100%" height="100%" fill="#FFFFFF" fill-opacity="1"/><svg viewBox="-11.319 154.3363 574.877 120.6861" width="333" height="69.90794778709184" x="83.5px" y="215.046px" xmlns="http://www.w3.org/2000/svg" xmlns:xlink="http://www.w3.org/1999/xlink" preserveAspectRatio="none"><defs></defs><style>.icon1 {fill:#0C0C0C;fill-opacity:1;}.icon2 {fill:#DFDFDF;fill-opacity:1;}.icon3 {fill:#929292;fill-opacity:1;}.icon3-str {stroke:#929292;stroke-opacity:1;}</style><g opacity="1" transform="rotate(0 212.2644 259.0223)">
<svg width="127.7102" height="16.0001" x="212.2644" y="259.0223" version="1.1" preserveAspectRatio="none" viewBox="3.8672 -38.3203 377.8906 47.3438">
  <g transform="matrix(1 0 0 1 0 0)" class="icon3"><path id="id-6izo4zJp12" d="M16.41 0L3.87 0L3.87-29.80L14.96-29.80Q19.41-29.80 21.72-27.71Q24.02-25.63 24.02-22.07L24.02-22.07Q24.02-19.77 22.87-18.13Q21.72-16.48 19.92-15.66L19.92-15.66Q22.07-15 23.59-13.07Q25.12-11.13 25.12-8.44L25.12-8.44Q25.12-4.92 22.81-2.46Q20.51 0 16.41 0L16.41 0ZM7.66-13.75L7.66-3.24L15.59-3.24Q17.97-3.24 19.59-4.61Q21.21-5.98 21.21-8.40L21.21-8.40Q21.21-10.70 19.65-12.23Q18.09-13.75 15.43-13.75L15.43-13.75L7.66-13.75ZM7.66-26.56L7.66-16.91L14.41-16.91Q16.88-16.91 18.50-18.14Q20.12-19.38 20.12-21.80L20.12-21.80Q20.12-23.95 18.79-25.25Q17.46-26.56 14.57-26.56L14.57-26.56L7.66-26.56Z M44.65 0L40.86 0L40.86-29.80L44.65-29.80L44.65 0Z M80.08 0L62.34 0L62.34-29.80L66.13-29.80L66.13-3.24L80.08-3.24L80.08 0Z M91.52-14.88L91.52-14.88Q91.52-21.76 95.06-26.13Q98.59-30.51 104.65-30.51L104.65-30.51Q106.76-30.51 108.57-29.84Q110.39-29.18 111.62-28.11Q112.85-27.03 113.61-26.00Q114.38-24.96 114.88-23.91L114.88-23.91L111.64-22.81Q108.87-27.27 104.65-27.27L104.65-27.27Q100.27-27.27 97.85-23.87Q95.43-20.47 95.43-14.88L95.43-14.88Q95.43-9.14 97.93-5.86Q100.43-2.58 104.49-2.58L104.49-2.58Q108.13-2.58 110.12-4.86Q112.11-7.15 112.19-10.39L112.19-10.39Q112.19-10.74 112.21-11.70Q112.23-12.66 112.23-13.05L112.23-13.05L104.18-13.05L104.18-16.29L115.90-16.29L115.90 0L113.20 0L112.89-3.91Q110.47 0.70 104.38 0.70L104.38 0.70Q98.71 0.70 95.12-3.50Q91.52-7.70 91.52-14.88Z M136.09 0L132.30 0L132.30-29.80L136.09-29.80L136.09 0Z M171.60-14.88L171.60-14.88Q171.60-21.76 175.14-26.13Q178.67-30.51 184.73-30.51L184.73-30.51Q186.84-30.51 188.65-29.84Q190.47-29.18 191.70-28.11Q192.93-27.03 193.69-26.00Q194.45-24.96 194.96-23.91L194.96-23.91L191.72-22.81Q188.95-27.27 184.73-27.27L184.73-27.27Q180.35-27.27 177.93-23.87Q175.51-20.47 175.51-14.88L175.51-14.88Q175.51-9.14 178.01-5.86Q180.51-2.58 184.57-2.58L184.57-2.58Q188.20-2.58 190.20-4.86Q192.19-7.15 192.27-10.39L192.27-10.39Q192.27-10.74 192.29-11.70Q192.30-12.66 192.30-13.05L192.30-13.05L184.26-13.05L184.26-16.29L195.98-16.29L195.98 0L193.28 0L192.97-3.91Q190.55 0.70 184.45 0.70L184.45 0.70Q178.79 0.70 175.20-3.50Q171.60-7.70 171.60-14.88Z M212.27-10.90L212.27-10.90L212.27-29.80L216.09-29.80L216.09-10.98Q216.09-6.72 217.99-4.65Q219.88-2.58 222.97-2.58L222.97-2.58Q226.13-2.58 228.01-4.73Q229.88-6.88 229.88-10.98L229.88-10.98L229.88-29.80L233.71-29.80L233.71-10.90Q233.71-5.39 230.96-2.34Q228.20 0.70 222.97 0.70L222.97 0.70Q217.89 0.70 215.08-2.29Q212.27-5.27 212.27-10.90ZM221.02-34.14L216.60-34.14L216.60-38.32L221.02-38.32L221.02-34.14ZM229.53-34.14L225.16-34.14L225.16-38.32L229.53-38.32L229.53-34.14Z M249.34-14.88L249.34-14.88Q249.34-22.11 252.91-26.31Q256.48-30.51 262.23-30.51L262.23-30.51Q265.82-30.51 268.36-28.54Q270.90-26.56 272.15-23.75L272.15-23.75L268.91-22.66Q266.29-27.27 262.15-27.27L262.15-27.27Q258.05-27.27 255.64-23.89Q253.24-20.51 253.24-14.88L253.24-14.88Q253.24-9.18 255.68-5.88Q258.13-2.58 262.15-2.58L262.15-2.58Q264.73-2.58 266.66-4.04Q268.59-5.51 269.53-7.66L269.53-7.66L272.93-6.56Q272.34-5.23 271.46-4.06Q270.59-2.89 269.30-1.76Q268.01-0.63 266.19 0.04Q264.38 0.70 262.23 0.70L262.23 0.70Q256.56 0.70 252.95-3.44Q249.34-7.58 249.34-14.88ZM257.73 8.48L257.73 6.13Q259.84 6.68 261.41 6.68L261.41 6.68Q262.50 6.68 263.46 6.21Q264.41 5.74 264.41 4.88L264.41 4.88Q264.41 3.95 263.11 3.54Q261.80 3.13 259.92 3.16L259.92 3.16L260.82-0.43L264.14-0.43L263.52 1.76Q265.35 1.95 266.37 2.81Q267.38 3.67 267.38 5.08L267.38 5.08Q267.38 6.72 265.90 7.87Q264.41 9.02 261.52 9.02L261.52 9.02Q259.53 9.02 257.73 8.48L257.73 8.48Z M293.32-26.56L284.41-26.56L284.41-29.80L306.02-29.80L306.02-26.56L297.11-26.56L297.11 0L293.32 0L293.32-26.56Z M320.12-10.90L320.12-10.90L320.12-29.80L323.95-29.80L323.95-10.98Q323.95-6.72 325.84-4.65Q327.73-2.58 330.82-2.58L330.82-2.58Q333.98-2.58 335.86-4.73Q337.73-6.88 337.73-10.98L337.73-10.98L337.73-29.80L341.56-29.80L341.56-10.90Q341.56-5.39 338.81-2.34Q336.05 0.70 330.82 0.70L330.82 0.70Q325.74 0.70 322.93-2.29Q320.12-5.27 320.12-10.90ZM328.87-34.14L324.45-34.14L324.45-38.32L328.87-38.32L328.87-34.14ZM337.38-34.14L333.01-34.14L333.01-38.32L337.38-38.32L337.38-34.14Z M362.93-26.56L362.93-15.78L370.35-15.78Q373.20-15.78 374.73-17.25Q376.25-18.71 376.25-21.25L376.25-21.25Q376.25-23.63 374.65-25.10Q373.05-26.56 370.12-26.56L370.12-26.56L362.93-26.56ZM362.93 0L359.14 0L359.14-29.80L370.90-29.80Q375.35-29.80 377.75-27.42Q380.16-25.04 380.16-21.52L380.16-21.52Q380.16-18.40 378.65-16.45Q377.15-14.49 375.27-13.95L375.27-13.95Q376.84-13.05 377.54-11.84Q378.24-10.63 378.71-8.36L378.71-8.36Q379.14-6.52 379.39-5.53Q379.65-4.53 380.25-3.03Q380.86-1.52 381.76 0L381.76 0L377.50 0Q375.90-2.85 374.73-8.09L374.73-8.09Q374.22-10.23 373.26-11.39Q372.30-12.54 370.20-12.54L370.20-12.54L362.93-12.54L362.93 0Z"/></g>
</svg>
</g><g opacity="1" transform="rotate(0 364.8282 154.3363)">
<svg width="54" height="79.3719" x="364.8282" y="154.3363" version="1.1" preserveAspectRatio="none" viewBox="13259.69140625 5395.4404296875 33478.9921875 49208.9921875">
  <g transform="matrix(-1 0 0 1 59998.375 0)" class="icon1"><defs></defs><g><path class="fil0" d="M44750 54476c-2643,-2420 -4749,-5013 -6470,-7713 -3760,4204 -7837,5291 -11739,4882 -3918,-410 -7630,-2332 -10663,-4100 -191,-110 -256,-355 -145,-545 28,-49 66,-90 108,-121 1838,-1488 3840,-2620 5866,-3428 3251,-1297 6567,-1760 9375,-1525 2195,184 4092,798 5427,1779 -165,-314 -326,-630 -483,-946 -493,-994 -946,-1998 -1367,-3007 -38,17 -80,29 -124,33 -7102,753 -11792,-1700 -15029,-5397 -3208,-3663 -4962,-8533 -6229,-12692 -64,-211 55,-433 266,-497 47,-14 94,-19 141,-16l0 -1c1917,127 3771,453 5533,936 1427,392 2792,886 4079,1462 -365,-725 -658,-1477 -891,-2247 -1138,-3768 -803,-7936 -346,-11419 28,-218 229,-372 447,-344 55,7 106,25 151,52 2086,1120 3905,2527 5433,4081 909,924 1715,1900 2415,2900 491,-2239 1560,-4204 2885,-5961 1459,-1934 3232,-3617 4878,-5141 161,-149 413,-139 563,22 34,36 59,77 77,121l1 -1c891,2199 1392,4450 1573,6628 291,3484 -235,6791 -1282,9411 -1065,2666 -2679,4635 -4537,5388 -345,140 -697,238 -1056,292 -118,521 -292,1003 -525,1438 -222,415 -496,786 -823,1108 -10,10 -21,20 -32,29 1234,3472 2605,6970 4395,10338 33,-635 128,-1284 275,-1943 -49,-45 -87,-102 -109,-169 -7,-22 -13,-45 -16,-68 -213,-211 -391,-455 -537,-726 -618,-1154 -610,-2804 -38,-4567 557,-1716 1651,-3556 3219,-5151 975,-991 2135,-1889 3465,-2604 45,-27 96,-45 151,-52 218,-28 418,125 447,344 291,2217 504,4873 -224,7281 -733,2427 -2403,4581 -5858,5760 -219,967 -325,1907 -278,2807 123,220 248,439 375,658 2244,3866 5121,7530 9082,10754 121,99 173,233 161,394 -8,117 -63,279 -153,449 -74,140 -181,303 -309,461 -314,386 -766,734 -1260,699 -105,-7 -198,-55 -265,-127zm-27393 -7749c3479,-580 6709,-976 9902,-1131 3356,-163 6666,-60 10173,375 -129,-273 -294,-531 -491,-774 -1123,-1385 -3277,-2251 -5924,-2474 -2698,-227 -5886,220 -9016,1468 -1587,633 -3159,1473 -4644,2536zm20105 -250c-3512,-441 -6823,-546 -10180,-383 -3290,160 -6629,579 -10250,1195 2812,1595 6139,3202 9590,3563 3592,376 7346,-603 10840,-4375zm5353 -19969c-466,926 -973,1878 -1487,2842 -1435,2691 -2918,5473 -3686,8094 2823,-1109 4219,-2972 4848,-5053 574,-1901 522,-3998 325,-5882zm-5659 10821c780,-2678 2281,-5492 3733,-8214 514,-963 1021,-1915 1489,-2847 -893,572 -1693,1232 -2393,1944 -1478,1502 -2507,3231 -3028,4838 -506,1560 -532,2987 -18,3945 64,119 136,231 218,335zm-22766 -15290c2906,3292 5797,5907 8940,8306 3125,2385 6497,4557 10378,6968 -856,-2337 -1568,-4694 -2221,-7035 -3637,-1248 -5997,-3191 -7494,-5487 -1546,-769 -3218,-1419 -4984,-1904 -1476,-405 -3021,-696 -4618,-847zm19602 16037c-4127,-2557 -7683,-4829 -10965,-7334 -2996,-2287 -5766,-4769 -8537,-7841 1206,3727 2866,7822 5616,10962 3064,3499 7509,5825 14247,5138 -123,-308 -243,-616 -361,-925zm4523 -31220c-570,1988 -1337,3807 -2111,5642 -1291,3061 -2600,6167 -3017,10157 358,1384 481,2701 358,3870 209,-47 416,-112 619,-194 1654,-670 3112,-2477 4096,-4941 1003,-2511 1506,-5690 1226,-9052 -150,-1802 -526,-3654 -1171,-5480zm-5482 14625c530,-3527 1729,-6370 2913,-9176 752,-1783 1497,-3551 2056,-5466 -1372,1292 -2781,2704 -3973,4284 -1407,1866 -2509,3968 -2879,6389 -2,16 -6,32 -10,48 815,1305 1450,2633 1894,3921zm-9713 -10560c1763,2940 3450,5838 4867,8768 1545,3196 2766,6426 3407,9782l15 5c20,-50 50,-97 91,-137 270,-266 496,-572 679,-914 842,-1572 807,-3894 -13,-6420 -835,-2574 -2481,-5340 -4845,-7743 -1216,-1237 -2621,-2376 -4202,-3342zm7726 18348c-646,-3201 -1825,-6296 -3308,-9363 -1447,-2993 -3186,-5965 -5001,-8986 -379,3199 -566,6871 434,10182 325,1077 778,2117 1393,3093 68,55 115,129 136,211 1315,1989 3328,3694 6346,4864zm4865 11369c264,592 541,1182 832,1768 1997,4026 4652,7891 8439,11385 157,-50 331,-214 475,-390 90,-111 166,-228 222,-333l3 -6c-3947,-3254 -6826,-6937 -9078,-10816 -309,-533 -606,-1069 -893,-1608z"></path></g></g>
</svg>
</g><g opacity="1" transform="rotate(0 -11.319 169.0222)">
<svg width="356.1472" height="50.0001" x="-11.319" y="169.0222" version="1.1" preserveAspectRatio="none" viewBox="4.5703 -36.2891 263.5656 36.9923">
  <g transform="matrix(1 0 0 1 0 0)" class="icon1"><path id="id-D6z1nYkh10" d="M6.37 0L4.57 0L4.57-28.16L6.95-28.16L14.41-11.13Q14.92-9.92 15.78-7.77Q16.64-5.63 17.07-4.65L17.07-4.65L17.19-4.65Q17.54-5.51 18.44-7.70Q19.34-9.88 19.84-11.13L19.84-11.13L27.27-28.16L29.73-28.16L29.73 0L27.89 0L27.89-18.32Q27.89-20.82 28.13-25.82L28.13-25.82L28.01-25.82L26.41-22.11L17.97-2.42L16.29-2.42L7.85-22.07L6.21-25.86L6.13-25.86Q6.37-21.64 6.37-18.32L6.37-18.32L6.37 0Z M41.95-9.80L41.95-9.80L41.95-28.16L43.75-28.16L43.75-9.96Q43.75-5.51 45.86-3.18Q47.97-0.86 51.60-0.86L51.60-0.86Q55.31-0.86 57.42-3.22Q59.53-5.59 59.53-9.96L59.53-9.96L59.53-28.16L61.36-28.16L61.36-9.80Q61.36-4.80 58.86-2.05Q56.36 0.70 51.60 0.70L51.60 0.70Q46.99 0.70 44.47-2.01Q41.95-4.73 41.95-9.80ZM49.53-33.20L46.33-33.20L46.33-36.29L49.53-36.29L49.53-33.20ZM57.18-33.20L54.02-33.20L54.02-36.29L57.18-36.29L57.18-33.20Z M75.38 0L73.59 0L73.59-28.16L75.38-28.16L75.38-15.31L91.09-15.31L91.09-28.16L92.92-28.16L92.92 0L91.09 0L91.09-13.79L75.38-13.79L75.38 0Z M122.73 0L105.23 0L105.23-28.16L122.26-28.16L122.26-26.60L107.02-26.60L107.02-15.39L120.81-15.39L120.81-13.87L107.02-13.87L107.02-1.56L122.73-1.56L122.73 0Z M133.85 0L132.06 0L132.06-28.16L134.21-28.16L146.63-8.01L149.99-2.54L150.14-2.54Q149.87-5.74 149.87-9.69L149.87-9.69L149.87-28.16L151.71-28.16L151.71 0L149.52 0L136.78-20.63L133.74-25.63L133.62-25.63Q133.85-21.99 133.85-18.01L133.85-18.01L133.85 0Z M171.12 0L163.97 0L163.97-28.16L171.12-28.16Q177.05-28.16 180.47-24.65Q183.89-21.13 183.89-14.10L183.89-14.10Q183.89-7.27 180.51-3.63Q177.13 0 171.12 0L171.12 0ZM165.77-26.60L165.77-1.56L170.61-1.56Q175.92-1.56 178.97-4.55Q182.02-7.54 182.02-14.10L182.02-14.10Q182.02-26.60 170.69-26.60L170.69-26.60L165.77-26.60Z M195.37 0L193.57 0L193.57-28.16L195.37-28.16L195.37 0Z M205.13-4.69L205.13-4.69L206.85-5.35Q208.10-3.32 210.25-2.09Q212.40-0.86 215.13-0.86L215.13-0.86Q218.49-0.86 220.62-2.52Q222.75-4.18 222.75-7.11L222.75-7.11Q222.75-8.52 222.17-9.59Q221.58-10.66 220.27-11.46Q218.96-12.27 217.93-12.68Q216.89-13.09 214.98-13.75L214.98-13.75Q213.22-14.34 212.28-14.67Q211.35-15 209.92-15.74Q208.49-16.48 207.75-17.23Q207.01-17.97 206.44-19.16Q205.88-20.35 205.88-21.80L205.88-21.80Q205.88-25.08 208.32-26.99Q210.76-28.91 214.98-28.91L214.98-28.91Q217.99-28.91 220.29-27.52Q222.60-26.13 223.69-24.14L223.69-24.14L222.13-23.52Q219.67-27.30 214.86-27.30L214.86-27.30Q211.50-27.30 209.61-25.80Q207.71-24.30 207.71-21.80L207.71-21.80Q207.71-20.66 208.22-19.71Q208.73-18.75 209.39-18.13Q210.06-17.50 211.33-16.89Q212.60-16.29 213.47-15.96Q214.35-15.63 215.95-15.12L215.95-15.12Q217.60-14.57 218.57-14.20Q219.55-13.83 220.84-13.13Q222.13-12.42 222.85-11.66Q223.57-10.90 224.10-9.75Q224.63-8.59 224.63-7.19L224.63-7.19Q224.63-3.48 222.09-1.39Q219.55 0.70 215.06 0.70L215.06 0.70Q208.38 0.70 205.13-4.69Z M236.19 0L234.39 0L234.39-28.16L236.19-28.16L236.19 0Z M250.28 0L248.49 0L248.49-28.16L250.64-28.16L263.06-8.01L266.42-2.54L266.57-2.54Q266.30-5.74 266.30-9.69L266.30-9.69L266.30-28.16L268.14-28.16L268.14 0L265.95 0L253.21-20.63L250.17-25.63L250.05-25.63Q250.28-21.99 250.28-18.01L250.28-18.01L250.28 0Z"/></g>
</svg>
</g><g opacity="1" transform="rotate(0 438.8282 169.0222)">
<svg width="124.7298" height="50.0001" x="438.8282" y="169.0222" version="1.1" preserveAspectRatio="none" viewBox="4.5703 -28.1641 70.25789999999999 28.1641">
  <g transform="matrix(1 0 0 1 0 0)" class="icon1"><path id="id-a8WAvAAzme4" d="M15.82 0L4.57 0L4.57-28.16L14.61-28.16Q18.52-28.16 20.61-26.21Q22.70-24.26 22.70-21.09L22.70-21.09Q22.70-18.59 21.37-16.99Q20.04-15.39 18.05-14.73L18.05-14.73Q20.47-14.14 22.13-12.21Q23.79-10.27 23.79-7.66L23.79-7.66Q23.79-4.34 21.60-2.17Q19.41 0 15.82 0L15.82 0ZM6.37-13.79L6.37-1.56L15.35-1.56Q18.24-1.56 20.10-3.28Q21.95-5 21.95-7.62L21.95-7.62Q21.95-10.23 20.04-12.01Q18.13-13.79 15.16-13.79L15.16-13.79L6.37-13.79ZM6.37-26.60L6.37-15.31L14.18-15.31Q17.03-15.31 18.95-16.76Q20.86-18.20 20.86-21.02L20.86-21.02Q20.86-23.44 19.26-25.02Q17.66-26.60 14.38-26.60L14.38-26.60L6.37-26.60Z M34.34 0L32.55 0L32.55-28.16L34.34-28.16L34.34 0Z M47.24-26.60L47.24-14.30L55.91-14.30Q59.08-14.30 60.84-16.00Q62.59-17.70 62.59-20.51L62.59-20.51Q62.59-23.16 60.82-24.88Q59.04-26.60 55.56-26.60L55.56-26.60L47.24-26.60ZM47.24 0L45.45 0L45.45-28.16L56.07-28.16Q60.09-28.16 62.26-26.00Q64.43-23.83 64.43-20.59L64.43-20.59Q64.43-17.38 62.73-15.59Q61.03-13.79 59.04-13.36L59.04-13.36Q60.72-12.62 61.64-11.25Q62.55-9.88 63.06-7.70L63.06-7.70Q63.14-7.34 63.36-6.45Q63.57-5.55 63.65-5.29Q63.73-5.04 63.90-4.36Q64.08-3.67 64.18-3.42Q64.27-3.16 64.45-2.62Q64.63-2.07 64.78-1.74Q64.94-1.41 65.17-0.94Q65.41-0.47 65.68 0L65.68 0L63.61 0Q63.02-1.09 62.57-2.38Q62.13-3.67 61.91-4.49Q61.70-5.31 61.15-7.58L61.15-7.58Q60.88-8.59 60.54-9.39Q60.21-10.20 59.61-11.02Q59-11.84 58.00-12.29Q57.01-12.73 55.68-12.73L55.68-12.73L47.24-12.73L47.24 0Z M74.83 0L73.03 0L73.03-28.16L74.83-28.16L74.83 0Z"/></g>
</svg>
</g></svg></svg>