<svg version="1.1" preserveAspectRatio="none" xmlns="http://www.w3.org/2000/svg" width="500" height="500" viewBox="0 0 500 500"><rect width="100%" height="100%" fill="#BE8A62" fill-opacity="1"/><svg viewBox="62.5333 75.4046 392.2208 256.8667" width="333" height="218.08280208494807" x="83.5px" y="140.9586px" xmlns="http://www.w3.org/2000/svg" xmlns:xlink="http://www.w3.org/1999/xlink" preserveAspectRatio="none"><defs></defs><style>.companyName {fill:#F3F0ED;fill-opacity:1;}.icon1 {fill:#F3F0ED;fill-opacity:1;}.icon2 {fill:#F3B340;fill-opacity:1;}.icon3 {fill:#FDCEAC;fill-opacity:1;}.icon3-str {stroke:#FDCEAC;stroke-opacity:1;}.text {fill:#F3F0ED;fill-opacity:1;}</style><g opacity="1" transform="rotate(0 180.1995 75.4046)">
<svg width="156.8884" height="135.3667" x="180.1995" y="75.4046" version="1.1" preserveAspectRatio="none" viewBox="0.47499990463256836 9.200000762939453 127.0250015258789 109.60000610351562">
  <g transform="matrix(1 0 0 1 0 0)" class="icon1"><g><path d="M1.8,110.1c-0.3-0.3-0.8-0.3-1,0c-0.3,0.3-0.3,0.8,0,1l1.6,1.6c0.1,0.1,0.3,0.2,0.5,0.2c0.2,0,0.4-0.1,0.5-0.2   c0.3-0.3,0.3-0.8,0-1L1.8,110.1z"></path><path d="M7,115.3c-0.3-0.3-0.8-0.3-1,0c-0.3,0.3-0.3,0.8,0,1l1.6,1.6c0.1,0.1,0.3,0.2,0.5,0.2c0.2,0,0.4-0.1,0.5-0.2   c0.3-0.3,0.3-0.8,0-1L7,115.3z"></path><path d="M2.3,115.3l-1.6,1.6c-0.3,0.3-0.3,0.8,0,1c0.1,0.1,0.3,0.2,0.5,0.2c0.2,0,0.4-0.1,0.5-0.2l1.6-1.6c0.3-0.3,0.3-0.8,0-1   S2.6,115,2.3,115.3z"></path><path d="M7.5,110.1l-1.6,1.6c-0.3,0.3-0.3,0.8,0,1c0.1,0.1,0.3,0.2,0.5,0.2c0.2,0,0.4-0.1,0.5-0.2l1.6-1.6c0.3-0.3,0.3-0.8,0-1   S7.8,109.8,7.5,110.1z"></path><path d="M119.5,64.7c0.1,0.1,0.3,0.2,0.5,0.2c0.2,0,0.4-0.1,0.5-0.2c0.3-0.3,0.3-0.8,0-1l-1.6-1.6c-0.3-0.3-0.8-0.3-1,0   c-0.3,0.3-0.3,0.8,0,1L119.5,64.7z"></path><path d="M124.7,69.9c0.1,0.1,0.3,0.2,0.5,0.2c0.2,0,0.4-0.1,0.5-0.2c0.3-0.3,0.3-0.8,0-1l-1.6-1.6c-0.3-0.3-0.8-0.3-1,0   c-0.3,0.3-0.3,0.8,0,1L124.7,69.9z"></path><path d="M118.4,70.1c0.2,0,0.4-0.1,0.5-0.2l1.6-1.6c0.3-0.3,0.3-0.8,0-1c-0.3-0.3-0.8-0.3-1,0l-1.6,1.6c-0.3,0.3-0.3,0.8,0,1   C118,70,118.2,70.1,118.4,70.1z"></path><path d="M123.6,64.9c0.2,0,0.4-0.1,0.5-0.2l1.6-1.6c0.3-0.3,0.3-0.8,0-1c-0.3-0.3-0.8-0.3-1,0l-1.6,1.6c-0.3,0.3-0.3,0.8,0,1   C123.2,64.8,123.4,64.9,123.6,64.9z"></path><path d="M6.4,45c0.4,0,0.7-0.3,0.7-0.7V32.4c0-0.4-0.3-0.7-0.7-0.7c-0.4,0-0.7,0.3-0.7,0.7v11.8C5.7,44.6,6,45,6.4,45z"></path><path d="M6.4,54.7c0.4,0,0.7-0.3,0.7-0.7v-4.2c0-0.4-0.3-0.7-0.7-0.7c-0.4,0-0.7,0.3-0.7,0.7V54C5.7,54.4,6,54.7,6.4,54.7z"></path><path d="M120,22.5c0.4,0,0.7-0.3,0.7-0.7V10c0-0.4-0.3-0.7-0.7-0.7c-0.4,0-0.7,0.3-0.7,0.7v11.8C119.2,22.2,119.6,22.5,120,22.5z"></path><path d="M120,32.3c0.4,0,0.7-0.3,0.7-0.7v-4.2c0-0.4-0.3-0.7-0.7-0.7c-0.4,0-0.7,0.3-0.7,0.7v4.2C119.2,32,119.6,32.3,120,32.3z"></path><path d="M56.8,18.8c1.9,0,3.5-1.6,3.5-3.5s-1.6-3.5-3.5-3.5s-3.5,1.6-3.5,3.5S54.9,18.8,56.8,18.8z M56.8,13.3c1.1,0,2,0.9,2,2   s-0.9,2-2,2s-2-0.9-2-2S55.7,13.3,56.8,13.3z"></path><path d="M48.7,109.3c-1.9,0-3.5,1.6-3.5,3.5c0,1.9,1.6,3.5,3.5,3.5s3.5-1.6,3.5-3.5C52.2,110.9,50.6,109.3,48.7,109.3z M48.7,114.8   c-1.1,0-2-0.9-2-2s0.9-2,2-2s2,0.9,2,2S49.8,114.8,48.7,114.8z"></path><path d="M8.1,79c0-1.9-1.6-3.5-3.5-3.5c-1.9,0-3.5,1.6-3.5,3.5c0,1.9,1.6,3.5,3.5,3.5C6.6,82.5,8.1,80.9,8.1,79z M4.6,81   c-1.1,0-2-0.9-2-2s0.9-2,2-2s2,0.9,2,2S5.8,81,4.6,81z"></path><path d="M16.1,15.2c0,0.4,0.3,0.7,0.7,0.7h15.4c0.4,0,0.7-0.3,0.7-0.7c0-0.4-0.3-0.7-0.7-0.7H16.9C16.4,14.5,16.1,14.8,16.1,15.2z"></path><path d="M6.8,15.9h5c0.4,0,0.7-0.3,0.7-0.7c0-0.4-0.3-0.7-0.7-0.7h-5c-0.4,0-0.7,0.3-0.7,0.7C6.1,15.6,6.4,15.9,6.8,15.9z"></path><path d="M6.8,10.6h10.8c0.4,0,0.7-0.3,0.7-0.7c0-0.4-0.3-0.7-0.7-0.7H6.8c-0.4,0-0.7,0.3-0.7,0.7C6.1,10.3,6.4,10.6,6.8,10.6z"></path><path d="M22.2,10.6h3.5c0.4,0,0.7-0.3,0.7-0.7c0-0.4-0.3-0.7-0.7-0.7h-3.5c-0.4,0-0.7,0.3-0.7,0.7C21.4,10.3,21.8,10.6,22.2,10.6z"></path><path d="M117.4,112.8c0-0.4-0.3-0.7-0.7-0.7h-15.4c-0.4,0-0.7,0.3-0.7,0.7c0,0.4,0.3,0.7,0.7,0.7h15.4   C117.1,113.5,117.4,113.2,117.4,112.8z"></path><path d="M121,112.8c0,0.4,0.3,0.7,0.7,0.7h5c0.4,0,0.7-0.3,0.7-0.7c0-0.4-0.3-0.7-0.7-0.7h-5C121.4,112.1,121,112.4,121,112.8z"></path><path d="M126.8,117.4H116c-0.4,0-0.7,0.3-0.7,0.7c0,0.4,0.3,0.7,0.7,0.7h10.8c0.4,0,0.7-0.3,0.7-0.7   C127.5,117.7,127.2,117.4,126.8,117.4z"></path><path d="M111.4,117.4h-3.5c-0.4,0-0.7,0.3-0.7,0.7c0,0.4,0.3,0.7,0.7,0.7h3.5c0.4,0,0.7-0.3,0.7-0.7   C112.1,117.7,111.8,117.4,111.4,117.4z"></path><path d="M121.8,100.2l1.1-1.9c0.2-0.4,0.2-0.9,0-1.3c-0.2-0.4-0.7-0.7-1.1-0.7H7.3c-0.5,0-0.9,0.3-1.1,0.7c-0.2,0.4-0.2,0.9,0,1.3   l1.1,1.9c1.9,3.2,5.5,5.2,9.2,5.2h96C116.3,105.4,119.8,103.4,121.8,100.2z M8.6,99.4l-1-1.6h113.8l-1,1.6c-1.7,2.8-4.7,4.5-8,4.5   h-96C13.3,103.9,10.3,102.2,8.6,99.4z"></path><path d="M86.1,30.9c0.8,0,1.5-0.2,2.3-0.5c2.7-1.3,3.9-4.5,2.7-7.2c-0.6-1.3-1.7-2.3-3.1-2.8c-1.4-0.5-2.8-0.4-4.2,0.2   c-1.3,0.6-2.3,1.7-2.8,3.1c-0.5,1.4-0.4,2.8,0.2,4.2C82,29.8,84,30.9,86.1,30.9z M82.3,24.1c0.4-1,1.1-1.8,2.1-2.2   c0.5-0.2,1.1-0.4,1.7-0.4c0.5,0,0.9,0.1,1.4,0.2c1,0.4,1.8,1.1,2.2,2.1c0.4,1,0.5,2,0.1,3c-0.4,1-1.1,1.8-2.1,2.2   c-1,0.4-2,0.5-3,0.1c-1-0.4-1.8-1.1-2.2-2.1C82,26.2,82,25.1,82.3,24.1z"></path><path d="M72.3,29.4c0.2,0.1,0.4,0.1,0.6,0l0.9-0.3c0.6-0.2,1.2,0.1,1.4,0.6c0.2,0.6-0.1,1.2-0.6,1.4l-0.9,0.3   c-0.2,0.1-0.4,0.2-0.4,0.4c-0.1,0.2-0.1,0.4,0,0.6c0.7,1.3,1.7,2.5,2.7,3.5H21.5c-2.9,0-5.3,2.4-5.3,5.3v51.2   c0,0.4,0.3,0.7,0.7,0.7h95.3c0.4,0,0.7-0.3,0.7-0.7V41.3c0-2.9-2.4-5.3-5.3-5.3H96c0.9-0.9,1.7-1.9,2.4-3c0.1-0.2,0.1-0.4,0.1-0.6   c-0.1-0.2-0.2-0.4-0.4-0.5l-0.9-0.4c-0.5-0.2-0.8-0.9-0.6-1.4c0.2-0.5,0.9-0.8,1.4-0.6L99,30c0.2,0.1,0.4,0.1,0.6,0   c0.2-0.1,0.3-0.3,0.4-0.5c0.7-2.4,0.7-5,0.2-7.4c0-0.2-0.2-0.4-0.4-0.5c-0.2-0.1-0.4-0.1-0.6,0l-0.9,0.3c-0.3,0.1-0.6,0.1-0.8,0   c-0.3-0.1-0.5-0.3-0.6-0.6c-0.1-0.3-0.1-0.6,0-0.8c0.1-0.3,0.3-0.5,0.6-0.6l0.9-0.3c0.2-0.1,0.4-0.2,0.4-0.4c0.1-0.2,0.1-0.4,0-0.6   c-1.2-2.2-3-4.1-5.1-5.4C93.4,13,93.2,13,93,13c-0.2,0.1-0.4,0.2-0.5,0.4l-0.4,0.9c-0.2,0.5-0.9,0.8-1.4,0.6   c-0.5-0.2-0.8-0.9-0.6-1.4l0.4-0.9c0.1-0.2,0.1-0.4,0-0.6c-0.1-0.2-0.3-0.3-0.5-0.4c-2.4-0.7-5-0.8-7.4-0.2c-0.2,0-0.4,0.2-0.5,0.4   c-0.1,0.2-0.1,0.4,0,0.6l0.3,0.9c0.1,0.3,0.1,0.6,0,0.8c-0.1,0.3-0.3,0.5-0.6,0.6c-0.6,0.2-1.2-0.1-1.4-0.6l-0.3-0.9   c-0.1-0.2-0.2-0.4-0.4-0.4c-0.2-0.1-0.4-0.1-0.6,0c-2.2,1.2-4.1,3-5.4,5.1c-0.1,0.2-0.1,0.4-0.1,0.6c0.1,0.2,0.2,0.4,0.4,0.5   l0.9,0.4c0.5,0.2,0.8,0.9,0.6,1.4c-0.2,0.5-0.9,0.8-1.4,0.6L73.1,21c-0.2-0.1-0.4-0.1-0.6,0c-0.2,0.1-0.3,0.3-0.4,0.5   c-0.7,2.4-0.8,5-0.2,7.4C72,29.1,72.1,29.3,72.3,29.4z M94.4,37.5h13.2c2.1,0,3.8,1.7,3.8,3.8v50.5H17.6V41.3   c0-2.1,1.7-3.8,3.8-3.8h56.1c0.1,0,0.2,0,0.2,0c0.2,0.1,0.4,0.3,0.6,0.5c0.2,0.1,0.4,0.1,0.6,0.1c0.2-0.1,0.4-0.2,0.5-0.4l0.4-0.9   c0.2-0.5,0.9-0.8,1.4-0.6c0.5,0.2,0.8,0.9,0.6,1.4l-0.4,0.9c-0.1,0.2-0.1,0.4,0,0.6c0.1,0.2,0.3,0.3,0.5,0.4c1.3,0.4,2.7,0.6,4,0.6   c1.2,0,2.3-0.1,3.4-0.4c0.2,0,0.4-0.2,0.5-0.4c0.1-0.2,0.1-0.4,0-0.6l-0.3-0.9c-0.2-0.6,0.1-1.2,0.6-1.4c0.3-0.1,0.6-0.1,0.8,0   c0.3,0.1,0.5,0.3,0.6,0.6l0.3,0.9c0.1,0.2,0.2,0.4,0.4,0.4c0.2,0.1,0.4,0.1,0.6,0c0.4-0.2,0.8-0.5,1.2-0.8   C94.3,37.4,94.4,37.5,94.4,37.5z M73.3,22.7L73.3,22.7c1.4,0.6,2.9,0,3.5-1.3c0.6-1.3,0-2.8-1.3-3.4l-0.1,0c1-1.4,2.2-2.6,3.6-3.5   l0,0.1c0.5,1.3,2,2,3.3,1.5c0.6-0.2,1.1-0.7,1.4-1.4c0.3-0.6,0.3-1.3,0-2l0-0.1c1.7-0.3,3.4-0.3,5,0.1l0,0.1   c-0.6,1.3,0,2.8,1.3,3.4c1.3,0.6,2.8,0,3.4-1.3l0-0.1c1.4,1,2.6,2.2,3.5,3.6l-0.1,0c-0.6,0.2-1.1,0.7-1.4,1.4c-0.3,0.6-0.3,1.3,0,2   c0.2,0.6,0.7,1.1,1.4,1.4c0.6,0.3,1.3,0.3,2,0l0.1,0c0.3,1.7,0.3,3.4-0.1,5l-0.1,0c-1.3-0.6-2.8,0-3.4,1.3c-0.6,1.3,0,2.8,1.3,3.4   l0.1,0c-1,1.4-2.2,2.6-3.6,3.5l0-0.1c-0.2-0.6-0.7-1.1-1.4-1.4c-0.6-0.3-1.3-0.3-2,0c-1.3,0.5-2,2-1.5,3.3l0,0.1   c-1.7,0.3-3.4,0.3-5-0.1l0-0.1c0.6-1.3,0-2.8-1.3-3.4c-1.3-0.6-2.8,0-3.4,1.3l0,0.1c-1.4-1-2.6-2.2-3.5-3.6l0.1,0   c1.3-0.5,2-2,1.5-3.3c-0.2-0.6-0.7-1.1-1.4-1.4c-0.6-0.3-1.3-0.3-2,0l-0.1,0C72.9,26.1,73,24.4,73.3,22.7z"></path><path d="M77.3,68.3c-0.3-0.2-0.8-0.1-1,0.2c-0.2,0.3-0.1,0.8,0.2,1l11,6.8l-11,6.8c-0.3,0.2-0.5,0.7-0.2,1c0.1,0.2,0.4,0.3,0.6,0.3   c0.1,0,0.3,0,0.4-0.1l12-7.5c0.2-0.1,0.3-0.4,0.3-0.6s-0.1-0.5-0.3-0.6L77.3,68.3z"></path><path d="M52.8,68.6c-0.2-0.3-0.7-0.5-1-0.2l-12,7.5c-0.2,0.1-0.3,0.4-0.3,0.6s0.1,0.5,0.3,0.6l12,7.5c0.1,0.1,0.3,0.1,0.4,0.1   c0.2,0,0.5-0.1,0.6-0.3c0.2-0.3,0.1-0.8-0.2-1l-11-6.8l11-6.8C52.9,69.4,53,68.9,52.8,68.6z"></path><path d="M69.1,64.3c-0.4-0.1-0.8,0-0.9,0.4l-8.5,22.5c-0.1,0.4,0,0.8,0.4,0.9c0.1,0,0.2,0,0.3,0c0.3,0,0.6-0.2,0.7-0.5l8.5-22.5   C69.7,64.8,69.5,64.4,69.1,64.3z"></path><path d="M23.4,43.3c0,0.4,0.3,0.7,0.7,0.7h81.5c0.4,0,0.7-0.3,0.7-0.7c0-0.4-0.3-0.7-0.7-0.7H24.2C23.8,42.5,23.4,42.9,23.4,43.3z"></path><path d="M30,49.8h-5.9c-0.4,0-0.7,0.3-0.7,0.7c0,0.4,0.3,0.7,0.7,0.7H30c0.4,0,0.7-0.3,0.7-0.7C30.8,50.1,30.4,49.8,30,49.8z"></path><path d="M34.9,51.3h5.9c0.4,0,0.7-0.3,0.7-0.7c0-0.4-0.3-0.7-0.7-0.7h-5.9c-0.4,0-0.7,0.3-0.7,0.7C34.2,51,34.5,51.3,34.9,51.3z"></path><path d="M99.7,51.3h5.9c0.4,0,0.7-0.3,0.7-0.7c0-0.4-0.3-0.7-0.7-0.7h-5.9c-0.4,0-0.7,0.3-0.7,0.7C98.9,51,99.3,51.3,99.7,51.3z"></path><path d="M52.4,50.5c0-0.4-0.3-0.7-0.7-0.7h-5.9c-0.4,0-0.7,0.3-0.7,0.7c0,0.4,0.3,0.7,0.7,0.7h5.9C52,51.3,52.4,51,52.4,50.5z"></path><path d="M94.8,49.8h-5.9c-0.4,0-0.7,0.3-0.7,0.7c0,0.4,0.3,0.7,0.7,0.7h5.9c0.4,0,0.7-0.3,0.7-0.7C95.5,50.1,95.2,49.8,94.8,49.8z"></path><path d="M67.3,51.3h5.9c0.4,0,0.7-0.3,0.7-0.7c0-0.4-0.3-0.7-0.7-0.7h-5.9c-0.4,0-0.7,0.3-0.7,0.7C66.6,51,66.9,51.3,67.3,51.3z"></path><path d="M84.7,50.5c0-0.4-0.3-0.7-0.7-0.7h-5.9c-0.4,0-0.7,0.3-0.7,0.7c0,0.4,0.3,0.7,0.7,0.7H84C84.4,51.3,84.7,51,84.7,50.5z"></path><path d="M62.4,51.3c0.4,0,0.7-0.3,0.7-0.7c0-0.4-0.3-0.7-0.7-0.7h-5.9c-0.4,0-0.7,0.3-0.7,0.7c0,0.4,0.3,0.7,0.7,0.7H62.4z"></path><path d="M75.3,57.1h-2.9c0,0-0.1,0-0.1,0c0,0-0.1,0-0.1,0h-4.9c-0.4,0-0.7,0.3-0.7,0.7c0,0.4,0.3,0.7,0.7,0.7h4.9c0,0,0.1,0,0.1,0   c0,0,0.1,0,0.1,0h2.9c0.4,0,0.7-0.3,0.7-0.7C76.1,57.4,75.8,57.1,75.3,57.1z"></path><path d="M105.6,57.1h-1c0,0-0.1,0-0.1,0c0,0-0.1,0-0.1,0h-4.9c-0.4,0-0.7,0.3-0.7,0.7c0,0.4,0.3,0.7,0.7,0.7h4.9c0,0,0.1,0,0.1,0   c0,0,0.1,0,0.1,0h1c0.4,0,0.7-0.3,0.7-0.7C106.4,57.4,106,57.1,105.6,57.1z"></path><path d="M96.5,57.1h-0.2c-0.4,0-0.7,0.3-0.7,0.7c0,0.4,0.3,0.7,0.7,0.7h0.2c0.4,0,0.7-0.3,0.7-0.7C97.3,57.4,96.9,57.1,96.5,57.1z"></path><path d="M80.3,57.1c-0.4,0-0.7,0.3-0.7,0.7c0,0.4,0.3,0.7,0.7,0.7h0.2c0.4,0,0.7-0.3,0.7-0.7c0-0.4-0.3-0.7-0.7-0.7H80.3z"></path><path d="M91.4,57.1h-2.9c0,0-0.1,0-0.1,0c0,0-0.1,0-0.1,0h-4.9c-0.4,0-0.7,0.3-0.7,0.7c0,0.4,0.3,0.7,0.7,0.7h4.9c0,0,0.1,0,0.1,0   c0,0,0.1,0,0.1,0h2.9c0.4,0,0.7-0.3,0.7-0.7C92.2,57.4,91.8,57.1,91.4,57.1z"></path><path d="M48.1,57.1c-0.4,0-0.7,0.3-0.7,0.7c0,0.4,0.3,0.7,0.7,0.7h0.2c0.4,0,0.7-0.3,0.7-0.7c0-0.4-0.3-0.7-0.7-0.7H48.1z"></path><path d="M60,57.8c0-0.4-0.3-0.7-0.7-0.7h-2.9c0,0-0.1,0-0.1,0c0,0-0.1,0-0.1,0h-4.9c-0.4,0-0.7,0.3-0.7,0.7c0,0.4,0.3,0.7,0.7,0.7   h4.9c0,0,0.1,0,0.1,0c0,0,0.1,0,0.1,0h2.9C59.7,58.5,60,58.2,60,57.8z"></path><path d="M40.1,58.5C40.2,58.5,40.2,58.5,40.1,58.5l3,0c0.4,0,0.7-0.3,0.7-0.7c0-0.4-0.3-0.7-0.7-0.7h-2.9c0,0-0.1,0-0.1,0   c0,0-0.1,0-0.1,0h-4.9c-0.4,0-0.7,0.3-0.7,0.7c0,0.4,0.3,0.7,0.7,0.7L40.1,58.5C40.1,58.5,40.1,58.5,40.1,58.5z"></path><path d="M27.1,57.1h-2.9c-0.4,0-0.7,0.3-0.7,0.7c0,0.4,0.3,0.7,0.7,0.7h2.9c0.4,0,0.7-0.3,0.7-0.7C27.8,57.4,27.5,57.1,27.1,57.1z"></path><path d="M32.2,57.1H32c-0.4,0-0.7,0.3-0.7,0.7c0,0.4,0.3,0.7,0.7,0.7h0.2c0.4,0,0.7-0.3,0.7-0.7C32.9,57.4,32.6,57.1,32.2,57.1z"></path><path d="M64.4,58.5c0.4,0,0.7-0.3,0.7-0.7c0-0.4-0.3-0.7-0.7-0.7h-0.2c-0.4,0-0.7,0.3-0.7,0.7c0,0.4,0.3,0.7,0.7,0.7H64.4z"></path></g></g>
</svg>
</g><g opacity="1" transform="rotate(0 201.185 314.7713)">
<svg width="114.9174" height="17.5" x="201.185" y="314.7713" version="1.1" preserveAspectRatio="none" viewBox="4.56 -29.68 252.64 38.480000000000004">
  <g transform="matrix(1 0 0 1 0 0)" class="text"><path id="id-6izo4zJp12" d="M22.20-14.44Q24.96-13.84 26.46-12.06Q27.96-10.28 27.96-7.48L27.96-7.48Q27.96-3.88 25.30-1.94Q22.64 0 17.44 0L17.44 0L4.56 0L4.56-28L16.64-28Q21.32-28 23.90-26.12Q26.48-24.24 26.48-20.80L26.48-20.80Q26.48-18.48 25.34-16.86Q24.20-15.24 22.20-14.44L22.20-14.44ZM16.44-25.56L7.52-25.56L7.52-15.40L16.44-15.40Q19.84-15.40 21.68-16.70Q23.52-18 23.52-20.48L23.52-20.48Q23.52-22.96 21.68-24.26Q19.84-25.56 16.44-25.56L16.44-25.56ZM17.40-2.44Q21.16-2.44 23.08-3.72Q25-5 25-7.72L25-7.72Q25-12.96 17.40-12.96L17.40-12.96L7.52-12.96L7.52-2.44L17.40-2.44Z M36.12 0L36.12-21.04L38.96-21.04L38.96 0L36.12 0ZM37.56-25.64Q36.68-25.64 36.08-26.24Q35.48-26.84 35.48-27.68L35.48-27.68Q35.48-28.48 36.08-29.08Q36.68-29.68 37.56-29.68L37.56-29.68Q38.44-29.68 39.04-29.10Q39.64-28.52 39.64-27.72L39.64-27.72Q39.64-26.84 39.04-26.24Q38.44-25.64 37.56-25.64L37.56-25.64Z M48.88 0L48.88-29.68L51.72-29.68L51.72 0L48.88 0Z M78.40-21.04L81.12-21.04L81.12-2.56Q81.12 2.80 78.50 5.38Q75.88 7.96 70.60 7.96L70.60 7.96Q67.68 7.96 65.06 7.10Q62.44 6.24 60.80 4.72L60.80 4.72L62.24 2.56Q63.76 3.92 65.94 4.68Q68.12 5.44 70.52 5.44L70.52 5.44Q74.52 5.44 76.40 3.58Q78.28 1.72 78.28-2.20L78.28-2.20L78.28-4.88Q76.96-2.88 74.82-1.84Q72.68-0.80 70.08-0.80L70.08-0.80Q67.12-0.80 64.70-2.10Q62.28-3.40 60.90-5.74Q59.52-8.08 59.52-11.04L59.52-11.04Q59.52-14 60.90-16.32Q62.28-18.64 64.68-19.92Q67.08-21.20 70.08-21.20L70.08-21.20Q72.76-21.20 74.92-20.12Q77.08-19.04 78.40-17L78.40-17L78.40-21.04ZM70.36-3.32Q72.64-3.32 74.48-4.30Q76.32-5.28 77.34-7.04Q78.36-8.80 78.36-11.04L78.36-11.04Q78.36-13.28 77.34-15.02Q76.32-16.76 74.50-17.74Q72.68-18.72 70.36-18.72L70.36-18.72Q68.08-18.72 66.26-17.76Q64.44-16.80 63.42-15.04Q62.40-13.28 62.40-11.04L62.40-11.04Q62.40-8.80 63.42-7.04Q64.44-5.28 66.26-4.30Q68.08-3.32 70.36-3.32L70.36-3.32Z M91.08 0L91.08-21.04L93.92-21.04L93.92 0L91.08 0ZM92.52-25.64Q91.64-25.64 91.04-26.24Q90.44-26.84 90.44-27.68L90.44-27.68Q90.44-28.48 91.04-29.08Q91.64-29.68 92.52-29.68L92.52-29.68Q93.40-29.68 94.00-29.10Q94.60-28.52 94.60-27.72L94.60-27.72Q94.60-26.84 94.00-26.24Q93.40-25.64 92.52-25.64L92.52-25.64Z M133.08-21.04L135.80-21.04L135.80-2.56Q135.80 2.80 133.18 5.38Q130.56 7.96 125.28 7.96L125.28 7.96Q122.36 7.96 119.74 7.10Q117.12 6.24 115.48 4.72L115.48 4.72L116.92 2.56Q118.44 3.92 120.62 4.68Q122.80 5.44 125.20 5.44L125.20 5.44Q129.20 5.44 131.08 3.58Q132.96 1.72 132.96-2.20L132.96-2.20L132.96-4.88Q131.64-2.88 129.50-1.84Q127.36-0.80 124.76-0.80L124.76-0.80Q121.80-0.80 119.38-2.10Q116.96-3.40 115.58-5.74Q114.20-8.08 114.20-11.04L114.20-11.04Q114.20-14 115.58-16.32Q116.96-18.64 119.36-19.92Q121.76-21.20 124.76-21.20L124.76-21.20Q127.44-21.20 129.60-20.12Q131.76-19.04 133.08-17L133.08-17L133.08-21.04ZM125.04-3.32Q127.32-3.32 129.16-4.30Q131-5.28 132.02-7.04Q133.04-8.80 133.04-11.04L133.04-11.04Q133.04-13.28 132.02-15.02Q131-16.76 129.18-17.74Q127.36-18.72 125.04-18.72L125.04-18.72Q122.76-18.72 120.94-17.76Q119.12-16.80 118.10-15.04Q117.08-13.28 117.08-11.04L117.08-11.04Q117.08-8.80 118.10-7.04Q119.12-5.28 120.94-4.30Q122.76-3.32 125.04-3.32L125.04-3.32Z M161.88-21.04L164.72-21.04L164.72 0L162 0L162-3.84Q160.88-1.92 158.92-0.86Q156.96 0.20 154.44 0.20L154.44 0.20Q150.32 0.20 147.94-2.10Q145.56-4.40 145.56-8.84L145.56-8.84L145.56-21.04L148.40-21.04L148.40-9.12Q148.40-5.80 150.04-4.08Q151.68-2.36 154.72-2.36L154.72-2.36Q158.04-2.36 159.96-4.38Q161.88-6.40 161.88-10L161.88-10L161.88-21.04ZM151.60-25.24Q150.88-25.24 150.38-25.72Q149.88-26.20 149.88-26.96L149.88-26.96Q149.88-27.68 150.38-28.18Q150.88-28.68 151.60-28.68L151.60-28.68Q152.28-28.68 152.80-28.18Q153.32-27.68 153.32-26.96L153.32-26.96Q153.32-26.24 152.82-25.74Q152.32-25.24 151.60-25.24L151.60-25.24ZM158.72-25.24Q158-25.24 157.50-25.74Q157-26.24 157-26.96L157-26.96Q157-27.68 157.52-28.18Q158.04-28.68 158.72-28.68L158.72-28.68Q159.44-28.68 159.94-28.18Q160.44-27.68 160.44-26.96L160.44-26.96Q160.44-26.20 159.94-25.72Q159.44-25.24 158.72-25.24L158.72-25.24Z M183.40 0.20Q180.28 0.20 177.82-1.16Q175.36-2.52 173.96-4.98Q172.56-7.44 172.56-10.52L172.56-10.52Q172.56-13.60 173.96-16.04Q175.36-18.48 177.82-19.84Q180.28-21.20 183.40-21.20L183.40-21.20Q186.12-21.20 188.26-20.14Q190.40-19.08 191.64-17.04L191.64-17.04L189.52-15.60Q188.48-17.16 186.88-17.94Q185.28-18.72 183.40-18.72L183.40-18.72Q181.12-18.72 179.30-17.70Q177.48-16.68 176.46-14.80Q175.44-12.92 175.44-10.52L175.44-10.52Q175.44-8.08 176.46-6.22Q177.48-4.36 179.30-3.34Q181.12-2.32 183.40-2.32L183.40-2.32Q185.28-2.32 186.88-3.08Q188.48-3.84 189.52-5.40L189.52-5.40L191.64-3.96Q190.40-1.92 188.24-0.86Q186.08 0.20 183.40 0.20L183.40 0.20ZM181.72 8.80Q179.76 8.80 178.36 7.88L178.36 7.88L179.04 6.36Q180.20 7.12 181.68 7.12L181.68 7.12Q182.88 7.12 183.52 6.64Q184.16 6.16 184.16 5.24L184.16 5.24Q184.16 4.40 183.54 3.90Q182.92 3.40 181.68 3.40L181.68 3.40L180.76 3.40L181.72-0.24L183.44-0.24L182.84 2.08Q184.48 2.24 185.36 3.10Q186.24 3.96 186.24 5.32L186.24 5.32Q186.24 6.92 185.00 7.86Q183.76 8.80 181.72 8.80L181.72 8.80Z M209.52-3.32L210.52-1.28Q209.72-0.56 208.54-0.18Q207.36 0.20 206.08 0.20L206.08 0.20Q203.12 0.20 201.52-1.40Q199.92-3 199.92-5.92L199.92-5.92L199.92-18.64L196.16-18.64L196.16-21.04L199.92-21.04L199.92-25.64L202.76-25.64L202.76-21.04L209.16-21.04L209.16-18.64L202.76-18.64L202.76-6.08Q202.76-4.20 203.70-3.22Q204.64-2.24 206.40-2.24L206.40-2.24Q207.28-2.24 208.10-2.52Q208.92-2.80 209.52-3.32L209.52-3.32Z M233.80-21.04L236.64-21.04L236.64 0L233.92 0L233.92-3.84Q232.80-1.92 230.84-0.86Q228.88 0.20 226.36 0.20L226.36 0.20Q222.24 0.20 219.86-2.10Q217.48-4.40 217.48-8.84L217.48-8.84L217.48-21.04L220.32-21.04L220.32-9.12Q220.32-5.80 221.96-4.08Q223.60-2.36 226.64-2.36L226.64-2.36Q229.96-2.36 231.88-4.38Q233.80-6.40 233.80-10L233.80-10L233.80-21.04ZM223.52-25.24Q222.80-25.24 222.30-25.72Q221.80-26.20 221.80-26.96L221.80-26.96Q221.80-27.68 222.30-28.18Q222.80-28.68 223.52-28.68L223.52-28.68Q224.20-28.68 224.72-28.18Q225.24-27.68 225.24-26.96L225.24-26.96Q225.24-26.24 224.74-25.74Q224.24-25.24 223.52-25.24L223.52-25.24ZM230.64-25.24Q229.92-25.24 229.42-25.74Q228.92-26.24 228.92-26.96L228.92-26.96Q228.92-27.68 229.44-28.18Q229.96-28.68 230.64-28.68L230.64-28.68Q231.36-28.68 231.86-28.18Q232.36-27.68 232.36-26.96L232.36-26.96Q232.36-26.20 231.86-25.72Q231.36-25.24 230.64-25.24L230.64-25.24Z M249.32-16.92Q250.32-19.04 252.30-20.12Q254.28-21.20 257.20-21.20L257.20-21.20L257.20-18.44L256.52-18.48Q253.20-18.48 251.32-16.44Q249.44-14.40 249.44-10.72L249.44-10.72L249.44 0L246.60 0L246.60-21.04L249.32-21.04L249.32-16.92Z"/></g>
</svg>
</g><g opacity="1" transform="rotate(0 62.5333 250.7713)">
<svg width="392.2208" height="50" x="62.5333" y="250.7713" version="1.1" preserveAspectRatio="none" viewBox="3.08 -29.6 235.95999999999998 30.080000000000002">
  <g transform="matrix(1 0 0 1 0 0)" class="companyName"><path id="id-D6z1nYkh15" d="M32.76 0L26.56 0Q27.04-0.08 27.60-0.86Q28.16-1.64 28.16-3.76L28.16-3.76L28.16-23.76L17.68 0.44L7.04-23.72L7.04-3.96Q7.04-1.80 7.74-0.94Q8.44-0.08 9 0L9 0L3.08 0Q3.68-0.08 4.40-0.90Q5.12-1.72 5.12-3.96L5.12-3.96L5.12-24Q5.12-25.92 4.44-26.64Q3.76-27.36 3.08-27.52L3.08-27.52L8.48-27.52L18.28-5.16L27.92-27.52L32.76-27.52Q32.24-27.44 31.64-26.68Q31.04-25.92 31.04-23.88L31.04-23.88L31.04-3.60Q31.04-1.60 31.64-0.84Q32.24-0.08 32.76 0L32.76 0Z M48.32-2.32Q46.32 0.48 43.40 0.48L43.40 0.48Q41.36 0.48 40.04-0.86Q38.72-2.20 38.72-4.96L38.72-4.96L38.72-10.64Q38.72-12.28 38.22-13.16Q37.72-14.04 37.08-14.36Q36.44-14.68 36.44-14.56L36.44-14.56L41.28-14.56L41.28-5.56Q41.28-3.68 42.30-2.68Q43.32-1.68 44.72-1.68L44.72-1.68Q46.12-1.68 47.22-2.62Q48.32-3.56 48.32-5.08L48.32-5.08L48.32-10.92Q48.32-12.48 47.92-13.28Q47.52-14.08 47-14.36Q46.48-14.64 46.48-14.56L46.48-14.56L50.88-14.56L50.88-4.52Q50.88-2.84 51.42-2.22Q51.96-1.60 52.64-1.60L52.64-1.60L52.88-1.60L48.32 0.48L48.32-2.32ZM41.64-19.52Q40.92-19.52 40.50-20Q40.08-20.48 40.08-21.12L40.08-21.12Q40.08-21.76 40.50-22.24Q40.92-22.72 41.64-22.72L41.64-22.72Q42.36-22.72 42.78-22.24Q43.20-21.76 43.20-21.12L43.20-21.12Q43.20-20.48 42.78-20Q42.36-19.52 41.64-19.52L41.64-19.52ZM47.88-19.52Q47.16-19.52 46.74-20Q46.32-20.48 46.32-21.12L46.32-21.12Q46.32-21.76 46.74-22.24Q47.16-22.72 47.88-22.72L47.88-22.72Q48.60-22.72 49.02-22.24Q49.44-21.76 49.44-21.12L49.44-21.12Q49.44-20.48 49.02-20Q48.60-19.52 47.88-19.52L47.88-19.52Z M59.84-12.52Q60.72-13.56 62-14.22Q63.28-14.88 64.68-14.88L64.68-14.88Q66.84-14.88 68.14-13.50Q69.44-12.12 69.44-9.52L69.44-9.52L69.44-3.96Q69.44-2.28 69.80-1.40Q70.16-0.52 70.60-0.20Q71.04 0.12 71.04 0L71.04 0L65.28 0Q65.28 0.12 65.72-0.18Q66.16-0.48 66.52-1.36Q66.88-2.24 66.88-4L66.88-4L66.88-8.56Q66.88-9.92 66.52-10.72Q66.16-11.52 65.56-12.04L65.56-12.04Q64.64-12.80 63.36-12.80L63.36-12.80Q61.92-12.80 60.88-11.86Q59.84-10.92 59.84-9.24L59.84-9.24L59.84-4Q59.84-2.28 60.20-1.40Q60.56-0.52 61.02-0.20Q61.48 0.12 61.48 0L61.48 0L55.72 0Q55.72 0.12 56.16-0.18Q56.60-0.48 56.94-1.38Q57.28-2.28 57.28-4L57.28-4L57.28-24.60Q57.28-26.28 56.74-26.90Q56.20-27.52 55.52-27.52L55.52-27.52L55.28-27.52L59.84-29.60L59.84-12.52Z M81.16 0.48Q79 0.48 77.44-0.58Q75.88-1.64 75.06-3.34Q74.24-5.04 74.24-6.96L74.24-6.96Q74.24-9.44 75.22-11.24Q76.20-13.04 77.76-13.96Q79.32-14.88 81-14.88L81-14.88Q83.40-14.88 85.14-13.14Q86.88-11.40 87.04-8.32L87.04-8.32L76.64-8.32Q76.64-6.40 77.36-4.94Q78.08-3.48 79.30-2.70Q80.52-1.92 81.96-1.92L81.96-1.92Q85.72-1.92 87.04-4.32L87.04-4.32Q86.68-2.16 85.08-0.84Q83.48 0.48 81.16 0.48L81.16 0.48ZM80.72-13.56Q79.16-13.56 78.04-12.46Q76.92-11.36 76.68-9.60L76.68-9.60L83.96-9.60Q83.96-11.44 82.98-12.50Q82-13.56 80.72-13.56L80.72-13.56Z M94.40-12.16Q95.32-13.40 96.58-14.14Q97.84-14.88 99.24-14.88L99.24-14.88Q101.40-14.88 102.70-13.50Q104-12.12 104-9.52L104-9.52L104-3.96Q104-2.28 104.36-1.40Q104.72-0.52 105.16-0.20Q105.60 0.12 105.60 0L105.60 0L99.84 0Q99.84 0.12 100.28-0.18Q100.72-0.48 101.08-1.36Q101.44-2.24 101.44-4L101.44-4L101.44-8.56Q101.44-9.92 101.08-10.72Q100.72-11.52 100.12-12.04L100.12-12.04Q99.20-12.80 97.92-12.80L97.92-12.80Q96.48-12.80 95.44-11.86Q94.40-10.92 94.40-9.24L94.40-9.24L94.40-4Q94.40-2.28 94.76-1.40Q95.12-0.52 95.58-0.20Q96.04 0.12 96.04 0L96.04 0L90.28 0Q90.28 0.12 90.72-0.18Q91.16-0.48 91.50-1.38Q91.84-2.28 91.84-4L91.84-4L91.84-10.04Q91.84-11.72 91.30-12.34Q90.76-12.96 90.08-12.96L90.08-12.96L94.40-14.88L94.40-12.16Z M120-13.80L120-24.60Q120-26.28 119.46-26.90Q118.92-27.52 118.24-27.52L118.24-27.52L118-27.52L122.56-29.60L122.56-4.52Q122.56-2.84 123.10-2.22Q123.64-1.60 124.32-1.60L124.32-1.60L124.56-1.60L120 0.48L120-2.12Q119.52-1.32 118.26-0.42Q117 0.48 114.96 0.48L114.96 0.48Q113.20 0.48 111.80-0.40Q110.40-1.28 109.60-2.84Q108.80-4.40 108.80-6.32L108.80-6.32Q108.80-8.76 109.80-10.64Q110.80-12.52 112.40-13.64L112.40-13.64Q114.20-14.88 116.32-14.88L116.32-14.88Q117.72-14.88 118.64-14.50Q119.56-14.12 120-13.80L120-13.80ZM111.68-7.52Q111.68-5 112.86-3.14Q114.04-1.28 116.28-1.28L116.28-1.28Q117.12-1.28 118-1.74Q118.88-2.20 119.44-3Q120-3.80 120-4.80L120-4.80L120-9.52Q120-10.80 119.70-11.60Q119.40-12.40 118.76-12.80L118.76-12.80Q117.76-13.44 116.32-13.44L116.32-13.44Q114.32-13.44 113-11.82Q111.68-10.20 111.68-7.52L111.68-7.52Z M128.96-10.04Q128.96-11.72 128.42-12.34Q127.88-12.96 127.20-12.96L127.20-12.96L131.52-14.88L131.52-4Q131.52-2.24 131.88-1.36Q132.24-0.48 132.68-0.18Q133.12 0.12 133.12 0L133.12 0L127.36 0Q127.36 0.12 127.80-0.18Q128.24-0.48 128.60-1.36Q128.96-2.24 128.96-4L128.96-4L128.96-10.04ZM130.20-19.72Q129.32-19.72 128.82-20.30Q128.32-20.88 128.32-21.64L128.32-21.64Q128.32-22.40 128.82-22.98Q129.32-23.56 130.20-23.56L130.20-23.56Q131.08-23.56 131.58-22.98Q132.08-22.40 132.08-21.64L132.08-21.64Q132.08-20.88 131.58-20.30Q131.08-19.72 130.20-19.72L130.20-19.72Z M141.56 0.48Q140.36 0.48 139.08 0.08Q137.80-0.32 136.96-0.96L136.96-0.96L136.96-4.48Q137.72-2.60 139.02-1.78Q140.32-0.96 141.84-0.96L141.84-0.96Q143.08-0.96 143.86-1.64Q144.64-2.32 144.64-3.12L144.64-3.12Q144.64-4 143.84-4.60Q143.04-5.20 141.40-5.96L141.40-5.96Q139.28-6.96 138.12-7.92Q136.96-8.88 136.96-10.52L136.96-10.52Q136.96-12.32 138.32-13.60Q139.68-14.88 141.88-14.88L141.88-14.88Q143.40-14.88 144.52-14.52Q145.64-14.16 146.20-13.72L146.20-13.72L145.56-10.72Q145.08-12.08 143.96-12.76Q142.84-13.44 141.60-13.44L141.60-13.44Q140.52-13.44 139.82-12.80Q139.12-12.16 139.12-11.36L139.12-11.36Q139.12-10.28 139.98-9.64Q140.84-9 142.60-8.24L142.60-8.24Q144.68-7.36 145.78-6.46Q146.88-5.56 146.88-3.92L146.88-3.92Q146.88-2.76 146.24-1.76Q145.60-0.76 144.38-0.14Q143.16 0.48 141.56 0.48L141.56 0.48Z M151.68-10.04Q151.68-11.72 151.14-12.34Q150.60-12.96 149.92-12.96L149.92-12.96L154.24-14.88L154.24-4Q154.24-2.24 154.60-1.36Q154.96-0.48 155.40-0.18Q155.84 0.12 155.84 0L155.84 0L150.08 0Q150.08 0.12 150.52-0.18Q150.96-0.48 151.32-1.36Q151.68-2.24 151.68-4L151.68-4L151.68-10.04ZM152.92-19.72Q152.04-19.72 151.54-20.30Q151.04-20.88 151.04-21.64L151.04-21.64Q151.04-22.40 151.54-22.98Q152.04-23.56 152.92-23.56L152.92-23.56Q153.80-23.56 154.30-22.98Q154.80-22.40 154.80-21.64L154.80-21.64Q154.80-20.88 154.30-20.30Q153.80-19.72 152.92-19.72L152.92-19.72Z M163.20-12.16Q164.12-13.40 165.38-14.14Q166.64-14.88 168.04-14.88L168.04-14.88Q170.20-14.88 171.50-13.50Q172.80-12.12 172.80-9.52L172.80-9.52L172.80-3.96Q172.80-2.28 173.16-1.40Q173.52-0.52 173.96-0.20Q174.40 0.12 174.40 0L174.40 0L168.64 0Q168.64 0.12 169.08-0.18Q169.52-0.48 169.88-1.36Q170.24-2.24 170.24-4L170.24-4L170.24-8.56Q170.24-9.92 169.88-10.72Q169.52-11.52 168.92-12.04L168.92-12.04Q168-12.80 166.72-12.80L166.72-12.80Q165.28-12.80 164.24-11.86Q163.20-10.92 163.20-9.24L163.20-9.24L163.20-4Q163.20-2.28 163.56-1.40Q163.92-0.52 164.38-0.20Q164.84 0.12 164.84 0L164.84 0L159.08 0Q159.08 0.12 159.52-0.18Q159.96-0.48 160.30-1.38Q160.64-2.28 160.64-4L160.64-4L160.64-10.04Q160.64-11.72 160.10-12.34Q159.56-12.96 158.88-12.96L158.88-12.96L163.20-14.88L163.20-12.16Z M202.32-0.68Q201.28-0.32 199.94-0.16Q198.60 0 196.24 0L196.24 0L189.64 0Q190.16-0.12 190.76-0.90Q191.36-1.68 191.36-3.92L191.36-3.92L191.36-23.72Q191.36-25.80 190.80-26.58Q190.24-27.36 189.68-27.52L189.68-27.52L196.24-27.52Q198.80-27.52 200.14-27.30Q201.48-27.08 202.48-26.64L202.48-26.64Q204.24-25.80 205.20-24.28Q206.16-22.76 206.16-21L206.16-21Q206.16-18.32 204.54-16.38Q202.92-14.44 200.28-13.88L200.28-13.88Q202.08-13.68 203.70-12.84Q205.32-12 206.34-10.56Q207.36-9.12 207.36-7.28L207.36-7.28Q207.36-4.72 206-3.10Q204.64-1.48 202.32-0.68L202.32-0.68ZM201.20-24.72Q200.40-25.32 199.48-25.62Q198.56-25.92 197-25.92L197-25.92L194.24-25.92L194.24-14.56L197.48-14.56Q198.92-14.56 199.88-15Q200.84-15.44 201.56-16.16L201.56-16.16Q202.32-16.92 202.76-18Q203.20-19.08 203.20-20.20L203.20-20.20Q203.20-21.56 202.70-22.76Q202.20-23.96 201.20-24.72L201.20-24.72ZM202.04-11.80Q201.28-12.40 200.16-12.68Q199.04-12.96 197.12-12.96L197.12-12.96L194.24-12.96L194.24-1.60L198.04-1.60Q200.92-1.60 202.54-2.96Q204.16-4.32 204.16-7.28L204.16-7.28Q204.16-10.04 202.04-11.80L202.04-11.80Z M213.12-10.04Q213.12-11.72 212.58-12.34Q212.04-12.96 211.36-12.96L211.36-12.96L215.68-14.88L215.68-4Q215.68-2.24 216.04-1.36Q216.40-0.48 216.84-0.18Q217.28 0.12 217.28 0L217.28 0L211.52 0Q211.52 0.12 211.96-0.18Q212.40-0.48 212.76-1.36Q213.12-2.24 213.12-4L213.12-4L213.12-10.04ZM214.36-19.72Q213.48-19.72 212.98-20.30Q212.48-20.88 212.48-21.64L212.48-21.64Q212.48-22.40 212.98-22.98Q213.48-23.56 214.36-23.56L214.36-23.56Q215.24-23.56 215.74-22.98Q216.24-22.40 216.24-21.64L216.24-21.64Q216.24-20.88 215.74-20.30Q215.24-19.72 214.36-19.72L214.36-19.72Z M224.64-11.24Q225.24-12.52 226.62-13.70Q228.00-14.88 229.40-14.88L229.40-14.88Q230.28-14.88 230.72-14.64L230.72-14.64L230.72-11.36Q229.84-12.44 228.24-12.44L228.24-12.44Q226.56-12.44 225.60-10.98Q224.64-9.52 224.64-7.24L224.64-7.24L224.64-4Q224.64-1.76 225.16-0.92Q225.68-0.08 226.16 0L226.16 0L220.52 0Q221.00-0.08 221.54-0.90Q222.08-1.72 222.08-4L222.08-4L222.08-10.04Q222.08-11.72 221.54-12.34Q221.00-12.96 220.32-12.96L220.32-12.96L224.64-14.88L224.64-11.24Z M234.88-10.04Q234.88-11.72 234.34-12.34Q233.80-12.96 233.12-12.96L233.12-12.96L237.44-14.88L237.44-4Q237.44-2.24 237.80-1.36Q238.16-0.48 238.60-0.18Q239.04 0.12 239.04 0L239.04 0L233.28 0Q233.28 0.12 233.72-0.18Q234.16-0.48 234.52-1.36Q234.88-2.24 234.88-4L234.88-4L234.88-10.04ZM236.12-19.72Q235.24-19.72 234.74-20.30Q234.24-20.88 234.24-21.64L234.24-21.64Q234.24-22.40 234.74-22.98Q235.24-23.56 236.12-23.56L236.12-23.56Q237.00-23.56 237.50-22.98Q238.00-22.40 238.00-21.64L238.00-21.64Q238.00-20.88 237.50-20.30Q237.00-19.72 236.12-19.72L236.12-19.72Z"/></g>
</svg>
</g></svg></svg>