<svg version="1.1" preserveAspectRatio="none" xmlns="http://www.w3.org/2000/svg" width="500" height="500" viewBox="0 0 500 500"><rect width="100%" height="100%" fill="#FFFFFF" fill-opacity="1"/><svg viewBox="2.4113 1.7916 356.3555 305.758" width="333" height="285.71865454581166" x="83.5px" y="107.1407px" xmlns="http://www.w3.org/2000/svg" xmlns:xlink="http://www.w3.org/1999/xlink" preserveAspectRatio="none"><defs></defs><style>.background {fill:#FFFFFF;fill-opacity:1;}.companyName {fill:#262626;fill-opacity:1;}.icon3-str {stroke:#F55139;stroke-opacity:0.97;}.shape {fill:#F5F94D;fill-opacity:1;}.text {fill:#262626;fill-opacity:0.96;}</style><g opacity="1" transform="rotate(-10 83.6907 39.7419)">
<svg width="218.5473" height="141.4908" x="83.6907" y="39.7419" version="1.1" preserveAspectRatio="none" viewBox="0.1111 -28 43.249 28">
  <g transform="matrix(1 0 0 1 0 0)" class="shape"><path id="id-wAbsaticb2" d="M0.64 0Q0.36 0 0.22-0.16Q0.08-0.32 0.12-0.60L0.12-0.60L3.40-27.40Q3.44-27.68 3.62-27.84Q3.80-28 4.04-28L4.04-28L10.12-28Q10.60-28 10.76-27.56L10.76-27.56L12.80-22.48Q12.88-22.36 12.98-22.36Q13.08-22.36 13.12-22.48L13.12-22.48L16.44-27.56Q16.68-28 17.16-28L17.16-28L23.24-28Q23.48-28 23.62-27.84Q23.76-27.68 23.72-27.40L23.72-27.40L20.44-0.60Q20.40-0.32 20.22-0.16Q20.04 0 19.80 0L19.80 0L13.64 0Q13.40 0 13.26-0.16Q13.12-0.32 13.16-0.60L13.16-0.60L15.16-16.88Q15.16-17.08 15.08-17.10Q15-17.12 14.88-16.96L14.88-16.96L12.20-13.12L11.72-12.40L11.68-12.40L9.68-17.04Q9.64-17.20 9.54-17.18Q9.44-17.16 9.40-16.96L9.40-16.96L7.40-0.60Q7.36-0.32 7.20-0.16Q7.04 0 6.76 0L6.76 0L0.64 0Z M42.32-8.04Q41.88-4.16 39.26-2.08Q36.64 0 32.96 0L32.96 0L24.76 0Q24.52 0 24.38-0.16Q24.24-0.32 24.28-0.60L24.28-0.60L27.56-27.40Q27.60-27.68 27.78-27.84Q27.96-28 28.20-28L28.20-28L35.24-28Q39.08-28 41.22-26.38Q43.36-24.76 43.36-21.48L43.36-21.48Q43.36-21.08 43.28-20.12L43.28-20.12Q42.80-16.44 40.40-14.64L40.40-14.64Q40.16-14.48 40.28-14.36L40.28-14.36Q42.40-12.52 42.40-9.20L42.40-9.20Q42.40-8.84 42.32-8.04L42.32-8.04ZM34.36-21.56Q34.12-21.56 34.12-21.32L34.12-21.32L33.60-17.32Q33.60-17.20 33.66-17.14Q33.72-17.08 33.80-17.08L33.80-17.08L34-17.08Q35.72-17.08 36.04-19.32L36.04-19.32L36.08-19.84Q36.08-21.56 34.56-21.56L34.56-21.56L34.36-21.56ZM33.16-6.44Q34.04-6.44 34.62-7.28Q35.20-8.12 35.20-9.68L35.20-9.68Q35.20-10.60 34.84-11.16Q34.48-11.72 33.84-11.72L33.84-11.72L33.16-11.72Q32.96-11.72 32.88-11.48L32.88-11.48L32.32-6.68Q32.28-6.44 32.52-6.44L32.52-6.44L33.16-6.44Z"/></g>
</svg>
</g><g opacity="1" transform="rotate(-10 75.6037 52.1575)">
<svg width="206.3507" height="142.5579" x="75.6037" y="52.1575" version="1.1" preserveAspectRatio="none" viewBox="1.31 -28 40.53 28">
  <g transform="matrix(1 0 0 1 0 0)" class="companyName"><path id="id-lcA0T24mw2" d="M1.72 0Q1.52 0 1.40-0.14Q1.28-0.28 1.32-0.48L1.32-0.48L4.64-27.52Q4.64-27.72 4.80-27.86Q4.96-28 5.16-28L5.16-28L8.68-28Q9.04-28 9.16-27.64L9.16-27.64L11.84-19Q11.92-18.76 12.08-19L12.08-19L16.80-27.64Q17-28 17.40-28L17.40-28L20.96-28Q21.40-28 21.40-27.52L21.40-27.52L18.08-0.48Q18.04-0.28 17.88-0.14Q17.72 0 17.52 0L17.52 0L13.96 0Q13.76 0 13.64-0.14Q13.52-0.28 13.56-0.48L13.56-0.48L15.72-17.92Q15.72-18.08 15.64-18.08Q15.56-18.08 15.48-17.96L15.48-17.96L11.28-10.96Q11.04-10.60 10.92-10.60L10.92-10.60Q10.84-10.60 10.64-10.96L10.64-10.96L8.20-18.04Q8.12-18.16 8.04-18.14Q7.96-18.12 7.96-17.96L7.96-17.96L5.80-0.48Q5.76-0.28 5.62-0.14Q5.48 0 5.28 0L5.28 0L1.72 0Z M40.48-7.76Q40.08-4.04 37.76-2.02Q35.44 0 32.04 0L32.04 0L25.24 0Q24.80 0 24.80-0.48L24.80-0.48L28.12-27.52Q28.16-27.72 28.32-27.86Q28.48-28 28.68-28L28.68-28L34.80-28Q38.12-28 39.98-26.44Q41.84-24.88 41.84-21.80L41.84-21.80Q41.84-21.36 41.76-20.48L41.76-20.48Q41.24-16.36 38.20-14.60L38.20-14.60Q37.96-14.48 38.08-14.36L38.08-14.36Q40.56-12.52 40.56-9L40.56-9Q40.56-8.64 40.48-7.76L40.48-7.76ZM32.40-24Q32.20-24 32.20-23.80L32.20-23.80L31.28-16.36Q31.20-16.16 31.44-16.16L31.44-16.16L33.40-16.16Q35-16.16 36.02-17.16Q37.04-18.16 37.28-20L37.28-20Q37.32-20.28 37.32-20.80L37.32-20.80Q37.32-22.32 36.56-23.16Q35.80-24 34.36-24L34.36-24L32.40-24ZM32.20-4.04Q33.76-4.04 34.78-5.16Q35.80-6.28 36.08-8.32L36.08-8.32Q36.12-8.64 36.12-9.24L36.12-9.24Q36.12-10.88 35.38-11.82Q34.64-12.76 33.28-12.76L33.28-12.76L31.04-12.76Q30.80-12.76 30.80-12.56L30.80-12.56L29.80-4.24Q29.72-4.04 29.96-4.04L29.96-4.04L32.20-4.04Z"/></g>
</svg>
</g><g opacity="1" transform="rotate(-10 59.6031 53.1576)">
<svg width="206.3519" height="142.5578" x="59.6031" y="53.1576" version="1.1" preserveAspectRatio="none" viewBox="1.31 -28 40.53 28">
  <g transform="matrix(1 0 0 1 0 0)" class="background"><path id="id-zm6CZq_Ug2" d="M1.72 0Q1.52 0 1.40-0.14Q1.28-0.28 1.32-0.48L1.32-0.48L4.64-27.52Q4.64-27.72 4.80-27.86Q4.96-28 5.16-28L5.16-28L8.68-28Q9.04-28 9.16-27.64L9.16-27.64L11.84-19Q11.92-18.76 12.08-19L12.08-19L16.80-27.64Q17-28 17.40-28L17.40-28L20.96-28Q21.40-28 21.40-27.52L21.40-27.52L18.08-0.48Q18.04-0.28 17.88-0.14Q17.72 0 17.52 0L17.52 0L13.96 0Q13.76 0 13.64-0.14Q13.52-0.28 13.56-0.48L13.56-0.48L15.72-17.92Q15.72-18.08 15.64-18.08Q15.56-18.08 15.48-17.96L15.48-17.96L11.28-10.96Q11.04-10.60 10.92-10.60L10.92-10.60Q10.84-10.60 10.64-10.96L10.64-10.96L8.20-18.04Q8.12-18.16 8.04-18.14Q7.96-18.12 7.96-17.96L7.96-17.96L5.80-0.48Q5.76-0.28 5.62-0.14Q5.48 0 5.28 0L5.28 0L1.72 0Z M40.48-7.76Q40.08-4.04 37.76-2.02Q35.44 0 32.04 0L32.04 0L25.24 0Q24.80 0 24.80-0.48L24.80-0.48L28.12-27.52Q28.16-27.72 28.32-27.86Q28.48-28 28.68-28L28.68-28L34.80-28Q38.12-28 39.98-26.44Q41.84-24.88 41.84-21.80L41.84-21.80Q41.84-21.36 41.76-20.48L41.76-20.48Q41.24-16.36 38.20-14.60L38.20-14.60Q37.96-14.48 38.08-14.36L38.08-14.36Q40.56-12.52 40.56-9L40.56-9Q40.56-8.64 40.48-7.76L40.48-7.76ZM32.40-24Q32.20-24 32.20-23.80L32.20-23.80L31.28-16.36Q31.20-16.16 31.44-16.16L31.44-16.16L33.40-16.16Q35-16.16 36.02-17.16Q37.04-18.16 37.28-20L37.28-20Q37.32-20.28 37.32-20.80L37.32-20.80Q37.32-22.32 36.56-23.16Q35.80-24 34.36-24L34.36-24L32.40-24ZM32.20-4.04Q33.76-4.04 34.78-5.16Q35.80-6.28 36.08-8.32L36.08-8.32Q36.12-8.64 36.12-9.24L36.12-9.24Q36.12-10.88 35.38-11.82Q34.64-12.76 33.28-12.76L33.28-12.76L31.04-12.76Q30.80-12.76 30.80-12.56L30.80-12.56L29.80-4.24Q29.72-4.04 29.96-4.04L29.96-4.04L32.20-4.04Z"/></g>
</svg>
</g><g opacity="1" transform="rotate(0 123.8305 291.5496)">
<svg width="113.5171" height="16" x="123.8305" y="291.5496" version="1.1" preserveAspectRatio="none" viewBox="4.2 -30.28 278.4 39.24">
  <g transform="matrix(1 0 0 1 0 0)" class="text"><path id="id-6izo4zJp12" d="M23.04-14.52Q25.48-13.84 26.88-12.06Q28.28-10.28 28.28-7.56L28.28-7.56Q28.28-3.92 25.54-1.96Q22.80 0 17.56 0L17.56 0L4.20 0L4.20-28L16.76-28Q21.56-28 24.18-26.08Q26.80-24.16 26.80-20.76L26.80-20.76Q26.80-18.56 25.78-16.96Q24.76-15.36 23.04-14.52L23.04-14.52ZM16.40-24.76L8.20-24.76L8.20-15.80L16.40-15.80Q19.48-15.80 21.14-16.94Q22.80-18.08 22.80-20.28L22.80-20.28Q22.80-22.48 21.14-23.62Q19.48-24.76 16.40-24.76L16.40-24.76ZM17.40-3.24Q20.80-3.24 22.52-4.36Q24.24-5.48 24.24-7.88L24.24-7.88Q24.24-12.56 17.40-12.56L17.40-12.56L8.20-12.56L8.20-3.24L17.40-3.24Z M37.92 0L37.92-21.20L41.76-21.20L41.76 0L37.92 0ZM39.84-25.28Q38.72-25.28 37.98-26Q37.24-26.72 37.24-27.76L37.24-27.76Q37.24-28.80 37.98-29.54Q38.72-30.28 39.84-30.28L39.84-30.28Q40.96-30.28 41.70-29.58Q42.44-28.88 42.44-27.84L42.44-27.84Q42.44-26.76 41.70-26.02Q40.96-25.28 39.84-25.28L39.84-25.28Z M53.08 0L53.08-29.68L56.92-29.68L56.92 0L53.08 0Z M84.88-21.20L88.52-21.20L88.52-2.88Q88.52 2.68 85.76 5.34Q83 8 77.52 8L77.52 8Q74.52 8 71.80 7.18Q69.08 6.36 67.40 4.84L67.40 4.84L69.24 1.88Q70.72 3.16 72.90 3.90Q75.08 4.64 77.40 4.64L77.40 4.64Q81.12 4.64 82.90 2.88Q84.68 1.12 84.68-2.48L84.68-2.48L84.68-4.16Q83.32-2.52 81.34-1.70Q79.36-0.88 77.04-0.88L77.04-0.88Q74-0.88 71.54-2.18Q69.08-3.48 67.68-5.82Q66.28-8.16 66.28-11.16L66.28-11.16Q66.28-14.16 67.68-16.50Q69.08-18.84 71.54-20.12Q74-21.40 77.04-21.40L77.04-21.40Q79.44-21.40 81.50-20.52Q83.56-19.64 84.88-17.92L84.88-17.92L84.88-21.20ZM77.48-4.24Q79.56-4.24 81.22-5.12Q82.88-6 83.82-7.58Q84.76-9.16 84.76-11.16L84.76-11.16Q84.76-14.24 82.72-16.14Q80.68-18.04 77.48-18.04L77.48-18.04Q74.24-18.04 72.20-16.14Q70.16-14.24 70.16-11.16L70.16-11.16Q70.16-9.16 71.10-7.58Q72.04-6 73.70-5.12Q75.36-4.24 77.48-4.24L77.48-4.24Z M99.84 0L99.84-21.20L103.68-21.20L103.68 0L99.84 0ZM101.76-25.28Q100.64-25.28 99.90-26Q99.16-26.72 99.16-27.76L99.16-27.76Q99.16-28.80 99.90-29.54Q100.64-30.28 101.76-30.28L101.76-30.28Q102.88-30.28 103.62-29.58Q104.36-28.88 104.36-27.84L104.36-27.84Q104.36-26.76 103.62-26.02Q102.88-25.28 101.76-25.28L101.76-25.28Z M146.40-21.20L150.04-21.20L150.04-2.88Q150.04 2.68 147.28 5.34Q144.52 8 139.04 8L139.04 8Q136.04 8 133.32 7.18Q130.60 6.36 128.92 4.84L128.92 4.84L130.76 1.88Q132.24 3.16 134.42 3.90Q136.60 4.64 138.92 4.64L138.92 4.64Q142.64 4.64 144.42 2.88Q146.20 1.12 146.20-2.48L146.20-2.48L146.20-4.16Q144.84-2.52 142.86-1.70Q140.88-0.88 138.56-0.88L138.56-0.88Q135.52-0.88 133.06-2.18Q130.60-3.48 129.20-5.82Q127.80-8.16 127.80-11.16L127.80-11.16Q127.80-14.16 129.20-16.50Q130.60-18.84 133.06-20.12Q135.52-21.40 138.56-21.40L138.56-21.40Q140.96-21.40 143.02-20.52Q145.08-19.64 146.40-17.92L146.40-17.92L146.40-21.20ZM139-4.24Q141.08-4.24 142.74-5.12Q144.40-6 145.34-7.58Q146.28-9.16 146.28-11.16L146.28-11.16Q146.28-14.24 144.24-16.14Q142.20-18.04 139-18.04L139-18.04Q135.76-18.04 133.72-16.14Q131.68-14.24 131.68-11.16L131.68-11.16Q131.68-9.16 132.62-7.58Q133.56-6 135.22-5.12Q136.88-4.24 139-4.24L139-4.24Z M177.28-21.20L181.12-21.20L181.12 0L177.48 0L177.48-3.20Q176.32-1.56 174.42-0.66Q172.52 0.24 170.28 0.24L170.28 0.24Q166.04 0.24 163.60-2.10Q161.16-4.44 161.16-9L161.16-9L161.16-21.20L165-21.20L165-9.44Q165-6.36 166.48-4.78Q167.96-3.20 170.72-3.20L170.72-3.20Q173.76-3.20 175.52-5.04Q177.28-6.88 177.28-10.24L177.28-10.24L177.28-21.20ZM167.44-24.96Q166.60-24.96 166-25.54Q165.40-26.12 165.40-27L165.40-27Q165.40-27.88 166-28.48Q166.60-29.08 167.44-29.08L167.44-29.08Q168.28-29.08 168.88-28.48Q169.48-27.88 169.48-27L169.48-27Q169.48-26.12 168.88-25.54Q168.28-24.96 167.44-24.96L167.44-24.96ZM174.88-24.96Q174.04-24.96 173.44-25.54Q172.84-26.12 172.84-27L172.84-27Q172.84-27.88 173.44-28.48Q174.04-29.08 174.88-29.08L174.88-29.08Q175.72-29.08 176.32-28.48Q176.92-27.88 176.92-27L176.92-27Q176.92-26.12 176.32-25.54Q175.72-24.96 174.88-24.96L174.88-24.96Z M201.68 0.24Q198.44 0.24 195.90-1.16Q193.36-2.56 191.92-5.02Q190.48-7.48 190.48-10.60L190.48-10.60Q190.48-13.72 191.92-16.18Q193.36-18.64 195.90-20.02Q198.44-21.40 201.68-21.40L201.68-21.40Q204.56-21.40 206.82-20.24Q209.08-19.08 210.32-16.88L210.32-16.88L207.40-15Q206.40-16.52 204.92-17.28Q203.44-18.04 201.64-18.04L201.64-18.04Q199.56-18.04 197.90-17.12Q196.24-16.20 195.30-14.50Q194.36-12.80 194.36-10.60L194.36-10.60Q194.36-8.36 195.30-6.66Q196.24-4.96 197.90-4.04Q199.56-3.12 201.64-3.12L201.64-3.12Q203.44-3.12 204.92-3.88Q206.40-4.64 207.40-6.16L207.40-6.16L210.32-4.32Q209.08-2.12 206.82-0.94Q204.56 0.24 201.68 0.24L201.68 0.24ZM199.80 8.96Q197.72 8.96 196.24 8.08L196.24 8.08L197.08 6.12Q198.28 6.80 199.80 6.80L199.80 6.80Q202.04 6.80 202.04 5.20L202.04 5.20Q202.04 4.48 201.48 4.06Q200.92 3.64 199.76 3.64L199.76 3.64L198.68 3.64L199.68-0.28L201.88-0.28L201.28 2Q202.96 2.16 203.86 3.06Q204.76 3.96 204.76 5.32L204.76 5.32Q204.76 7 203.40 7.98Q202.04 8.96 199.80 8.96L199.80 8.96Z M230.28-4L231.48-1.24Q230.64-0.52 229.40-0.14Q228.16 0.24 226.84 0.24L226.84 0.24Q223.64 0.24 221.88-1.48Q220.12-3.20 220.12-6.40L220.12-6.40L220.12-18.04L216.52-18.04L216.52-21.20L220.12-21.20L220.12-25.84L223.96-25.84L223.96-21.20L230.04-21.20L230.04-18.04L223.96-18.04L223.96-6.56Q223.96-4.84 224.82-3.92Q225.68-3 227.28-3L227.28-3Q229.04-3 230.28-4L230.28-4Z M256.04-21.20L259.88-21.20L259.88 0L256.24 0L256.24-3.20Q255.08-1.56 253.18-0.66Q251.28 0.24 249.04 0.24L249.04 0.24Q244.80 0.24 242.36-2.10Q239.92-4.44 239.92-9L239.92-9L239.92-21.20L243.76-21.20L243.76-9.44Q243.76-6.36 245.24-4.78Q246.72-3.20 249.48-3.20L249.48-3.20Q252.52-3.20 254.28-5.04Q256.04-6.88 256.04-10.24L256.04-10.24L256.04-21.20ZM246.20-24.96Q245.36-24.96 244.76-25.54Q244.16-26.12 244.16-27L244.16-27Q244.16-27.88 244.76-28.48Q245.36-29.08 246.20-29.08L246.20-29.08Q247.04-29.08 247.64-28.48Q248.24-27.88 248.24-27L248.24-27Q248.24-26.12 247.64-25.54Q247.04-24.96 246.20-24.96L246.20-24.96ZM253.64-24.96Q252.80-24.96 252.20-25.54Q251.60-26.12 251.60-27L251.60-27Q251.60-27.88 252.20-28.48Q252.80-29.08 253.64-29.08L253.64-29.08Q254.48-29.08 255.08-28.48Q255.68-27.88 255.68-27L255.68-27Q255.68-26.12 255.08-25.54Q254.48-24.96 253.64-24.96L253.64-24.96Z M274.88-17.64Q275.88-19.48 277.84-20.44Q279.80-21.40 282.60-21.40L282.60-21.40L282.60-17.68Q282.28-17.72 281.72-17.72L281.72-17.72Q278.60-17.72 276.82-15.86Q275.04-14 275.04-10.56L275.04-10.56L275.04 0L271.20 0L271.20-21.20L274.88-21.20L274.88-17.64Z"/></g>
</svg>
</g><g opacity="1" transform="rotate(0 2.4113 223.5496)">
<svg width="356.3555" height="50" x="2.4113" y="223.5496" version="1.1" preserveAspectRatio="none" viewBox="2.84 -28 201.83999999999997 28.32">
  <g transform="matrix(1 0 0 1 0 0)" class="companyName"><path id="id-D6z1nYkh15" d="M3.24 0Q2.84 0 2.84-0.40L2.84-0.40L2.84-27.60Q2.84-28 3.24-28L3.24-28L5.32-28Q5.64-28 5.76-27.68L5.76-27.68L10.24-16.84Q10.28-16.76 10.36-16.76Q10.44-16.76 10.48-16.84L10.48-16.84L15-27.68Q15.12-28 15.44-28L15.44-28L17.52-28Q17.92-28 17.92-27.60L17.92-27.60L17.92-0.40Q17.92 0 17.52 0L17.52 0L15.48 0Q15.08 0 15.08-0.40L15.08-0.40L15.08-20.88Q15.08-21 15-21Q14.92-21 14.88-20.92L14.88-20.92L10.80-11.64Q10.68-11.32 10.44-11.32L10.44-11.32Q10.16-11.32 10.04-11.64L10.04-11.64L5.88-20.96Q5.84-21.04 5.76-21.04Q5.68-21.04 5.68-20.92L5.68-20.92L5.68-0.40Q5.68 0 5.28 0L5.28 0L3.24 0Z M32.44-19.84Q32.44-20.24 32.84-20.24L32.84-20.24L34.88-20.24Q35.28-20.24 35.28-19.84L35.28-19.84L35.28-0.40Q35.28 0 34.88 0L34.88 0L32.84 0Q32.44 0 32.44-0.40L32.44-0.40L32.44-1.76Q32.44-1.88 32.38-1.88Q32.32-1.88 32.24-1.80L32.24-1.80Q31 0.28 28.24 0.28L28.24 0.28Q25.84 0.28 24.42-1.18Q23-2.64 23-5.60L23-5.60L23-19.84Q23-20.24 23.40-20.24L23.40-20.24L25.44-20.24Q25.84-20.24 25.84-19.84L25.84-19.84L25.84-6.24Q25.84-4.24 26.66-3.22Q27.48-2.20 29.04-2.20L29.04-2.20Q30.64-2.20 31.54-3.36Q32.44-4.52 32.44-6.52L32.44-6.52L32.44-19.84ZM26.56-23.76Q25.76-23.76 25.26-24.28Q24.76-24.80 24.76-25.64L24.76-25.64Q24.76-26.44 25.28-26.96Q25.80-27.48 26.56-27.48L26.56-27.48Q27.32-27.48 27.78-26.96Q28.24-26.44 28.24-25.64L28.24-25.64Q28.24-24.80 27.78-24.28Q27.32-23.76 26.56-23.76L26.56-23.76ZM31.80-23.76Q31-23.76 30.50-24.28Q30-24.80 30-25.64L30-25.64Q30-26.44 30.52-26.96Q31.04-27.48 31.80-27.48L31.80-27.48Q32.56-27.48 33.04-26.96Q33.52-26.44 33.52-25.64L33.52-25.64Q33.52-24.80 33.04-24.28Q32.56-23.76 31.80-23.76L31.80-23.76Z M47.36-20.52Q49.80-20.52 51.14-18.84Q52.48-17.16 52.48-14.16L52.48-14.16L52.48-0.40Q52.48 0 52.08 0L52.08 0L50.04 0Q49.64 0 49.64-0.40L49.64-0.40L49.64-13.92Q49.64-15.88 48.80-16.96Q47.96-18.04 46.44-18.04L46.44-18.04Q44.84-18.04 43.92-16.88Q43-15.72 43-13.72L43-13.72L43-0.40Q43 0 42.60 0L42.60 0L40.56 0Q40.16 0 40.16-0.40L40.16-0.40L40.16-27.60Q40.16-28 40.56-28L40.56-28L42.60-28Q43-28 43-27.60L43-27.60L43-18.52Q43-18.44 43.08-18.42Q43.16-18.40 43.20-18.48L43.20-18.48Q44.68-20.52 47.36-20.52L47.36-20.52Z M69.20-9.44Q69.20-9.04 68.80-9.04L68.80-9.04L59.68-9.04Q59.52-9.04 59.52-8.88L59.52-8.88L59.52-5.96Q59.52-4.28 60.46-3.22Q61.40-2.16 62.92-2.16L62.92-2.16Q64.20-2.16 65.10-2.94Q66-3.72 66.28-4.96L66.28-4.96Q66.40-5.32 66.72-5.32L66.72-5.32L68.72-5.24Q68.88-5.24 69-5.12Q69.12-5 69.08-4.80L69.08-4.80Q68.76-2.44 67.14-1.06Q65.52 0.32 62.92 0.32L62.92 0.32Q60.08 0.32 58.38-1.36Q56.68-3.04 56.68-5.80L56.68-5.80L56.68-14.44Q56.68-17.16 58.38-18.86Q60.08-20.56 62.92-20.56L62.92-20.56Q65.80-20.56 67.50-18.86Q69.20-17.16 69.20-14.44L69.20-14.44L69.20-9.44ZM62.92-18.08Q61.40-18.08 60.46-17.02Q59.52-15.96 59.52-14.24L59.52-14.24L59.52-11.56Q59.52-11.40 59.68-11.40L59.68-11.40L66.24-11.40Q66.40-11.40 66.40-11.56L66.40-11.56L66.40-14.24Q66.40-15.96 65.44-17.02Q64.48-18.08 62.92-18.08L62.92-18.08Z M80.60-20.52Q83.04-20.52 84.38-18.84Q85.72-17.16 85.72-14.16L85.72-14.16L85.72-0.40Q85.72 0 85.32 0L85.32 0L83.28 0Q82.88 0 82.88-0.40L82.88-0.40L82.88-13.92Q82.88-15.88 82.04-16.96Q81.20-18.04 79.68-18.04L79.68-18.04Q78.08-18.04 77.16-16.88Q76.24-15.72 76.24-13.72L76.24-13.72L76.24-0.40Q76.24 0 75.84 0L75.84 0L73.80 0Q73.40 0 73.40-0.40L73.40-0.40L73.40-19.84Q73.40-20.24 73.80-20.24L73.80-20.24L75.84-20.24Q76.24-20.24 76.24-19.84L76.24-19.84L76.24-18.52Q76.24-18.44 76.32-18.42Q76.40-18.40 76.44-18.48L76.44-18.48Q77.92-20.52 80.60-20.52L80.60-20.52Z M99.56-27.60Q99.56-28 99.96-28L99.96-28L102.00-28Q102.40-28 102.40-27.60L102.40-27.60L102.40-0.40Q102.40 0 102.00 0L102.00 0L99.96 0Q99.56 0 99.56-0.40L99.56-0.40L99.56-1.56Q99.56-1.64 99.50-1.68Q99.44-1.72 99.36-1.64L99.36-1.64Q98.68-0.68 97.66-0.18Q96.64 0.32 95.40 0.32L95.40 0.32Q93.04 0.32 91.58-1.38Q90.12-3.08 90.00-5.80L90.00-5.80Q89.96-7.28 89.96-10.24L89.96-10.24Q89.96-13.08 90.00-14.56L90.00-14.56Q90.08-17.24 91.54-18.90Q93.00-20.56 95.40-20.56L95.40-20.56Q98.00-20.56 99.36-18.64L99.36-18.64Q99.44-18.56 99.50-18.60Q99.56-18.64 99.56-18.72L99.56-18.72L99.56-27.60ZM96.24-2.16Q97.68-2.16 98.62-3.26Q99.56-4.36 99.56-6.16L99.56-6.16L99.56-14.08Q99.56-15.88 98.62-16.98Q97.68-18.08 96.24-18.08L96.24-18.08Q94.68-18.08 93.72-16.98Q92.76-15.88 92.80-14.08L92.80-14.08L92.80-12.68L92.80-10.12L92.80-6.16Q92.76-4.40 93.72-3.28Q94.68-2.16 96.24-2.16L96.24-2.16Z M108.92-23.84Q108.04-23.84 107.48-24.44Q106.92-25.04 106.92-25.96L106.92-25.96Q106.92-26.84 107.48-27.42Q108.04-28 108.92-28L108.92-28Q109.76-28 110.30-27.42Q110.84-26.84 110.84-25.96L110.84-25.96Q110.84-25.04 110.30-24.44Q109.76-23.84 108.92-23.84L108.92-23.84ZM107.88 0Q107.48 0 107.48-0.40L107.48-0.40L107.48-19.84Q107.48-20.24 107.88-20.24L107.88-20.24L109.92-20.24Q110.32-20.24 110.32-19.84L110.32-19.84L110.32-0.40Q110.32 0 109.92 0L109.92 0L107.88 0Z M120.64 0.20Q117.88 0.20 116.22-1.22Q114.56-2.64 114.56-5L114.56-5L114.56-5.28Q114.56-5.68 114.96-5.68L114.96-5.68L116.88-5.68Q117.28-5.68 117.28-5.36L117.28-5.36L117.28-5.04Q117.28-3.76 118.22-2.88Q119.16-2 120.68-2L120.68-2Q122.12-2 123.00-2.88Q123.88-3.76 123.88-5.12L123.88-5.12Q123.88-6.16 123.32-6.86Q122.76-7.56 122.02-7.96Q121.28-8.36 119.80-9L119.80-9Q118.24-9.64 117.22-10.26Q116.20-10.88 115.46-12.02Q114.72-13.16 114.72-14.92L114.72-14.92Q114.72-17.48 116.30-18.96Q117.88-20.44 120.56-20.44L120.56-20.44Q123.28-20.44 124.88-18.92Q126.48-17.40 126.48-14.88L126.48-14.88L126.48-14.76Q126.48-14.36 126.08-14.36L126.08-14.36L124.24-14.36Q123.84-14.36 123.84-14.68L123.84-14.68L123.84-15Q123.84-16.36 122.94-17.24Q122.04-18.12 120.60-18.12L120.60-18.12Q119.16-18.12 118.30-17.22Q117.44-16.32 117.44-15L117.44-15Q117.44-14.04 117.96-13.38Q118.48-12.72 119.24-12.30Q120.00-11.88 121.36-11.28L121.36-11.28Q123.00-10.56 124.06-9.92Q125.12-9.28 125.92-8.12Q126.72-6.96 126.72-5.24L126.72-5.24Q126.72-2.76 125.08-1.28Q123.44 0.20 120.64 0.20L120.64 0.20Z M131.96-23.84Q131.08-23.84 130.52-24.44Q129.96-25.04 129.96-25.96L129.96-25.96Q129.96-26.84 130.52-27.42Q131.08-28 131.96-28L131.96-28Q132.80-28 133.34-27.42Q133.88-26.84 133.88-25.96L133.88-25.96Q133.88-25.04 133.34-24.44Q132.80-23.84 131.96-23.84L131.96-23.84ZM130.92 0Q130.52 0 130.52-0.40L130.52-0.40L130.52-19.84Q130.52-20.24 130.92-20.24L130.92-20.24L132.96-20.24Q133.36-20.24 133.36-19.84L133.36-19.84L133.36-0.40Q133.36 0 132.96 0L132.96 0L130.92 0Z M145.60-20.52Q148.04-20.52 149.38-18.84Q150.72-17.16 150.72-14.16L150.72-14.16L150.72-0.40Q150.72 0 150.32 0L150.32 0L148.28 0Q147.88 0 147.88-0.40L147.88-0.40L147.88-13.92Q147.88-15.88 147.04-16.96Q146.20-18.04 144.68-18.04L144.68-18.04Q143.08-18.04 142.16-16.88Q141.24-15.72 141.24-13.72L141.24-13.72L141.24-0.40Q141.24 0 140.84 0L140.84 0L138.80 0Q138.40 0 138.40-0.40L138.40-0.40L138.40-19.84Q138.40-20.24 138.80-20.24L138.80-20.24L140.84-20.24Q141.24-20.24 141.24-19.84L141.24-19.84L141.24-18.52Q141.24-18.44 141.32-18.42Q141.40-18.40 141.44-18.48L141.44-18.48Q142.92-20.52 145.60-20.52L145.60-20.52Z M177.48-7.60Q177.52-4 175.56-2Q173.60 0 170.32 0L170.32 0L164.20 0Q163.80 0 163.80-0.40L163.80-0.40L163.80-27.60Q163.80-28 164.20-28L164.20-28L169.96-28Q173.40-28 175.36-26.10Q177.32-24.20 177.32-20.68L177.32-20.68Q177.32-16.20 174.00-14.56L174.00-14.56Q173.92-14.52 173.92-14.48Q173.92-14.44 173.96-14.40L173.96-14.40Q177.48-12.36 177.48-7.60L177.48-7.60ZM166.80-25.52Q166.64-25.52 166.64-25.36L166.64-25.36L166.64-15.72Q166.64-15.56 166.80-15.56L166.80-15.56L169.96-15.56Q172.12-15.56 173.32-16.84Q174.52-18.12 174.52-20.44L174.52-20.44Q174.52-22.84 173.32-24.18Q172.12-25.52 169.96-25.52L169.96-25.52L166.80-25.52ZM170.12-2.52Q172.24-2.52 173.44-3.94Q174.64-5.36 174.64-7.92L174.64-7.92Q174.64-10.52 173.44-11.96Q172.24-13.40 170.12-13.40L170.12-13.40L166.80-13.40Q166.64-13.40 166.64-13.24L166.64-13.24L166.64-2.68Q166.64-2.52 166.80-2.52L166.80-2.52L170.12-2.52Z M182.96-23.84Q182.08-23.84 181.52-24.44Q180.96-25.04 180.96-25.96L180.96-25.96Q180.96-26.84 181.52-27.42Q182.08-28 182.96-28L182.96-28Q183.80-28 184.34-27.42Q184.88-26.84 184.88-25.96L184.88-25.96Q184.88-25.04 184.34-24.44Q183.80-23.84 182.96-23.84L182.96-23.84ZM181.92 0Q181.52 0 181.52-0.40L181.52-0.40L181.52-19.84Q181.52-20.24 181.92-20.24L181.92-20.24L183.96-20.24Q184.36-20.24 184.36-19.84L184.36-19.84L184.36-0.40Q184.36 0 183.96 0L183.96 0L181.92 0Z M196.24-20.44Q197.24-20.44 197.96-20L197.96-20Q198.24-19.84 198.16-19.48L198.16-19.48L197.72-17.44Q197.68-17.08 197.20-17.20L197.20-17.20Q196.72-17.40 196.12-17.40L196.12-17.40Q195.72-17.40 195.52-17.36L195.52-17.36Q194.08-17.28 193.16-15.86Q192.24-14.44 192.24-12.40L192.24-12.40L192.24-0.40Q192.24 0 191.84 0L191.84 0L189.80 0Q189.40 0 189.40-0.40L189.40-0.40L189.40-19.84Q189.40-20.24 189.80-20.24L189.80-20.24L191.84-20.24Q192.24-20.24 192.24-19.84L192.24-19.84L192.24-17.44Q192.24-17.32 192.30-17.32Q192.36-17.32 192.44-17.40L192.44-17.40Q193.60-20.44 196.24-20.44L196.24-20.44Z M202.76-23.84Q201.88-23.84 201.32-24.44Q200.76-25.04 200.76-25.96L200.76-25.96Q200.76-26.84 201.32-27.42Q201.88-28 202.76-28L202.76-28Q203.60-28 204.14-27.42Q204.68-26.84 204.68-25.96L204.68-25.96Q204.68-25.04 204.14-24.44Q203.60-23.84 202.76-23.84L202.76-23.84ZM201.72 0Q201.32 0 201.32-0.40L201.32-0.40L201.32-19.84Q201.32-20.24 201.72-20.24L201.72-20.24L203.76-20.24Q204.16-20.24 204.16-19.84L204.16-19.84L204.16-0.40Q204.16 0 203.76 0L203.76 0L201.72 0Z"/></g>
</svg>
</g></svg></svg>